<ttFont>
<head>
    <!-- Most of this table will be recalculated by the compiler -->
    <tableVersion value="1.0"/>
    <fontRevision value="1.57"/>
    <checkSumAdjustment value="0x6587af28"/>
    <magicNumber value="0x5f0f3cf5"/>
    <flags value="00000000 00001011"/>
    <unitsPerEm value="2048"/>
    <created value="Fri Mar  5 15:16:14 1993"/>
    <modified value="Fri Jul 27 15:53:01 2012"/>
    <xMin value="-386"/>
    <yMin value="-531"/>
    <xMax value="2083"/>
    <yMax value="1819"/>
    <macStyle value="00000000 00000000"/>
    <lowestRecPPEM value="9"/>
    <fontDirectionHint value="2"/>
    <indexToLocFormat value="0"/>
    <glyphDataFormat value="0"/>
  </head>
    <TTGlyph name=".notdef" xMin="51" yMin="0" xMax="461" yMax="1365">
      <contour>
        <pt x="51" y="0" on="1"/>
        <pt x="51" y="1365" on="1"/>
        <pt x="461" y="1365" on="1"/>
        <pt x="461" y="0" on="1"/>
      </contour>
      <contour>
        <pt x="410" y="51" on="1"/>
        <pt x="410" y="1314" on="1"/>
        <pt x="102" y="1314" on="1"/>
        <pt x="102" y="51" on="1"/>
      </contour>
    </TTGlyph>
    <TTGlyph name="A" xMin="0" yMin="0" xMax="1557" yMax="1365">
      <contour>
        <pt x="967" y="1365" on="1"/>
        <pt x="863" y="1247" on="1"/>
        <pt x="1027" y="811" on="1"/>
        <pt x="1067" y="833" on="1"/>
        <pt x="919" y="1227" on="1"/>
        <pt x="1025" y="1349" on="1"/>
        <pt x="1051" y="1338" on="1"/>
        <pt x="950" y="1221" on="1"/>
        <pt x="1090" y="848" on="1"/>
        <pt x="1102" y="857" on="0"/>
        <pt x="1104" y="859" on="1"/>
        <pt x="1137" y="887" on="1"/>
        <pt x="1167" y="911" on="0"/>
        <pt x="1175" y="921" on="1"/>
        <pt x="1201" y="807" on="0"/>
        <pt x="1255" y="717" on="1"/>
        <pt x="1226" y="719" on="0"/>
        <pt x="1213" y="719" on="1"/>
        <pt x="1118" y="719" on="0"/>
        <pt x="1074" y="689" on="1"/>
        <pt x="1255" y="198" on="1"/>
        <pt x="1405" y="82" on="1"/>
        <pt x="900" y="82" on="1"/>
        <pt x="1038" y="198" on="1"/>
        <pt x="927" y="490" on="1"/>
        <pt x="817" y="379" on="0"/>
        <pt x="758" y="279" on="1"/>
        <pt x="735" y="285" on="1"/>
        <pt x="794" y="383" on="0"/>
        <pt x="911" y="504" on="1"/>
        <pt x="919" y="514" on="1"/>
        <pt x="900" y="558" on="1"/>
        <pt x="781" y="459" on="0"/>
        <pt x="703" y="328" on="1"/>
        <pt x="685" y="357" on="1"/>
        <pt x="633" y="440" on="0"/>
        <pt x="552" y="546" on="1"/>
        <pt x="542" y="558" on="1"/>
        <pt x="465" y="387" on="0"/>
        <pt x="465" y="280" on="1"/>
        <pt x="465" y="217" on="0"/>
        <pt x="508" y="130" on="0"/>
        <pt x="590" y="28" on="1"/>
        <pt x="597" y="19" on="0"/>
        <pt x="612" y="0" on="1"/>
        <pt x="72" y="0" on="1"/>
        <pt x="52" y="27" on="1"/>
        <pt x="561" y="27" on="1"/>
        <pt x="544" y="48" on="1"/>
        <pt x="478" y="128" on="0"/>
        <pt x="437" y="217" on="0"/>
        <pt x="437" y="277" on="1"/>
        <pt x="437" y="379" on="0"/>
        <pt x="520" y="581" on="1"/>
        <pt x="476" y="627" on="1"/>
        <pt x="463" y="595" on="0"/>
        <pt x="443" y="533" on="1"/>
        <pt x="410" y="431" on="1"/>
        <pt x="383" y="349" on="0"/>
        <pt x="383" y="295" on="1"/>
        <pt x="383" y="239" on="0"/>
        <pt x="421" y="165" on="0"/>
        <pt x="482" y="101" on="1"/>
        <pt x="488" y="95" on="0"/>
        <pt x="500" y="82" on="1"/>
        <pt x="0" y="82" on="1"/>
        <pt x="143" y="156" on="0"/>
        <pt x="310" y="406" on="0"/>
        <pt x="392" y="667" on="1"/>
        <pt x="396" y="681" on="1"/>
        <pt x="343" y="726" on="0"/>
        <pt x="243" y="736" on="1"/>
        <pt x="298" y="818" on="0"/>
        <pt x="328" y="907" on="1"/>
        <pt x="342" y="894" on="0"/>
        <pt x="345" y="891" on="1"/>
        <pt x="390" y="849" on="1"/>
        <pt x="413" y="827" on="0"/>
        <pt x="445" y="804" on="1"/>
        <pt x="463" y="848" on="1"/>
        <pt x="451" y="858" on="1"/>
        <pt x="401" y="902" on="0"/>
        <pt x="367" y="929" on="1"/>
        <pt x="358" y="936" on="1"/>
        <pt x="374" y="958" on="1"/>
        <pt x="427" y="923" on="0"/>
        <pt x="476" y="877" on="1"/>
        <pt x="612" y="1251" on="1"/>
        <pt x="506" y="1365" on="1"/>
      </contour>
      <contour>
        <pt x="720" y="1044" on="1"/>
        <pt x="610" y="754" on="1"/>
        <pt x="619" y="744" on="0"/>
        <pt x="620" y="742" on="1"/>
        <pt x="661" y="696" on="1"/>
        <pt x="694" y="660" on="0"/>
        <pt x="745" y="584" on="1"/>
        <pt x="755" y="569" on="1"/>
        <pt x="798" y="623" on="0"/>
        <pt x="857" y="676" on="1"/>
      </contour>
      <contour>
        <pt x="675" y="1160" on="1"/>
        <pt x="516" y="740" on="1"/>
        <pt x="592" y="662" on="0"/>
        <pt x="647" y="586" on="1"/>
        <pt x="693" y="522" on="1"/>
        <pt x="694" y="521" on="0"/>
        <pt x="703" y="509" on="1"/>
        <pt x="712" y="518" on="0"/>
        <pt x="713" y="520" on="1"/>
        <pt x="727" y="537" on="1"/>
        <pt x="730" y="541" on="0"/>
        <pt x="738" y="550" on="1"/>
        <pt x="668" y="658" on="0"/>
        <pt x="575" y="745" on="1"/>
        <pt x="703" y="1083" on="1"/>
      </contour>
      <contour>
        <pt x="1263" y="873" on="1"/>
        <pt x="1285" y="783" on="0"/>
        <pt x="1373" y="626" on="1"/>
        <pt x="1351" y="629" on="0"/>
        <pt x="1348" y="629" on="1"/>
        <pt x="1267" y="636" on="1"/>
        <pt x="1212" y="641" on="0"/>
        <pt x="1187" y="641" on="1"/>
        <pt x="1183" y="641" on="0"/>
        <pt x="1167" y="640" on="1"/>
        <pt x="1334" y="197" on="1"/>
        <pt x="1557" y="0" on="1"/>
        <pt x="978" y="0" on="1"/>
        <pt x="959" y="27" on="1"/>
        <pt x="1490" y="27" on="1"/>
        <pt x="1310" y="186" on="1"/>
        <pt x="1132" y="657" on="1"/>
        <pt x="1166" y="666" on="0"/>
        <pt x="1210" y="666" on="1"/>
        <pt x="1264" y="666" on="0"/>
        <pt x="1330" y="657" on="1"/>
        <pt x="1318" y="679" on="1"/>
        <pt x="1254" y="797" on="0"/>
        <pt x="1232" y="892" on="1"/>
      </contour>
    </TTGlyph>
    <TTGlyph name="AE" xMin="-34" yMin="0" xMax="2083" yMax="1365">
      <contour>
        <pt x="1901" y="1365" on="1"/>
        <pt x="1783" y="1213" on="0"/>
        <pt x="1729" y="1067" on="1"/>
        <pt x="1725" y="1077" on="0"/>
        <pt x="1723" y="1083" on="1"/>
        <pt x="1676" y="1202" on="0"/>
        <pt x="1580" y="1273" on="0"/>
        <pt x="1465" y="1273" on="1"/>
        <pt x="1374" y="1273" on="1"/>
        <pt x="1181" y="1273" on="1"/>
        <pt x="1181" y="829" on="1"/>
        <pt x="1243" y="829" on="1"/>
        <pt x="1243" y="1222" on="1"/>
        <pt x="1296" y="1225" on="0"/>
        <pt x="1352" y="1225" on="1"/>
        <pt x="1517" y="1225" on="0"/>
        <pt x="1645" y="1184" on="0"/>
        <pt x="1682" y="1120" on="1"/>
        <pt x="1673" y="1126" on="0"/>
        <pt x="1668" y="1129" on="1"/>
        <pt x="1604" y="1174" on="0"/>
        <pt x="1491" y="1196" on="0"/>
        <pt x="1332" y="1196" on="1"/>
        <pt x="1270" y="1195" on="1"/>
        <pt x="1270" y="829" on="1"/>
        <pt x="1470" y="829" on="1"/>
        <pt x="1600" y="1010" on="1"/>
        <pt x="1600" y="550" on="1"/>
        <pt x="1461" y="738" on="1"/>
        <pt x="1181" y="738" on="1"/>
        <pt x="1181" y="170" on="1"/>
        <pt x="1243" y="170" on="1"/>
        <pt x="1243" y="686" on="1"/>
        <pt x="1461" y="686" on="1"/>
        <pt x="1487" y="660" on="1"/>
        <pt x="1270" y="660" on="1"/>
        <pt x="1270" y="170" on="1"/>
        <pt x="1283" y="171" on="1"/>
        <pt x="1441" y="168" on="1"/>
        <pt x="1522" y="172" on="1"/>
        <pt x="1653" y="186" on="0"/>
        <pt x="1785" y="290" on="0"/>
        <pt x="1810" y="399" on="1"/>
        <pt x="1859" y="249" on="0"/>
        <pt x="1915" y="167" on="1"/>
        <pt x="1952" y="112" on="1"/>
        <pt x="1957" y="104" on="0"/>
        <pt x="1972" y="82" on="1"/>
        <pt x="826" y="82" on="1"/>
        <pt x="993" y="227" on="1"/>
        <pt x="993" y="453" on="1"/>
        <pt x="876" y="306" on="1"/>
        <pt x="865" y="335" on="1"/>
        <pt x="993" y="493" on="1"/>
        <pt x="993" y="585" on="1"/>
        <pt x="826" y="372" on="1"/>
        <pt x="796" y="404" on="0"/>
        <pt x="731" y="486" on="1"/>
        <pt x="684" y="545" on="0"/>
        <pt x="645" y="584" on="1"/>
        <pt x="638" y="591" on="1"/>
        <pt x="540" y="437" on="1"/>
        <pt x="469" y="326" on="0"/>
        <pt x="469" y="240" on="1"/>
        <pt x="469" y="183" on="0"/>
        <pt x="519" y="102" on="0"/>
        <pt x="610" y="11" on="1"/>
        <pt x="621" y="0" on="1"/>
        <pt x="20" y="0" on="1"/>
        <pt x="5" y="27" on="1"/>
        <pt x="572" y="27" on="1"/>
        <pt x="517" y="82" on="1"/>
        <pt x="-34" y="82" on="1"/>
        <pt x="69" y="120" on="0"/>
        <pt x="273" y="333" on="0"/>
        <pt x="408" y="543" on="1"/>
        <pt x="508" y="697" on="1"/>
        <pt x="457" y="726" on="0"/>
        <pt x="417" y="735" on="1"/>
        <pt x="385" y="742" on="1"/>
        <pt x="382" y="743" on="0"/>
        <pt x="374" y="745" on="1"/>
        <pt x="475" y="893" on="1"/>
        <pt x="482" y="885" on="0"/>
        <pt x="484" y="883" on="1"/>
        <pt x="508" y="856" on="1"/>
        <pt x="528" y="834" on="0"/>
        <pt x="547" y="818" on="1"/>
        <pt x="567" y="801" on="1"/>
        <pt x="569" y="799" on="0"/>
        <pt x="576" y="793" on="1"/>
        <pt x="601" y="829" on="1"/>
        <pt x="594" y="835" on="0"/>
        <pt x="593" y="837" on="1"/>
        <pt x="556" y="879" on="1"/>
        <pt x="514" y="928" on="1"/>
        <pt x="508" y="936" on="1"/>
        <pt x="521" y="963" on="1"/>
        <pt x="529" y="955" on="0"/>
        <pt x="531" y="953" on="1"/>
        <pt x="569" y="911" on="1"/>
        <pt x="615" y="864" on="1"/>
        <pt x="621" y="858" on="1"/>
        <pt x="865" y="1231" on="1"/>
        <pt x="711" y="1365" on="1"/>
      </contour>
      <contour>
        <pt x="619" y="607" on="1"/>
        <pt x="600" y="628" on="0"/>
        <pt x="576" y="647" on="1"/>
        <pt x="487" y="513" on="1"/>
        <pt x="388" y="364" on="0"/>
        <pt x="388" y="263" on="1"/>
        <pt x="388" y="157" on="0"/>
        <pt x="504" y="100" on="1"/>
        <pt x="442" y="157" on="0"/>
        <pt x="442" y="233" on="1"/>
        <pt x="442" y="341" on="0"/>
        <pt x="541" y="490" on="1"/>
      </contour>
      <contour>
        <pt x="994" y="1125" on="1"/>
        <pt x="742" y="749" on="1"/>
        <pt x="885" y="591" on="1"/>
        <pt x="994" y="717" on="1"/>
      </contour>
      <contour>
        <pt x="994" y="1268" on="1"/>
        <pt x="634" y="735" on="1"/>
        <pt x="827" y="526" on="1"/>
        <pt x="866" y="571" on="1"/>
        <pt x="708" y="748" on="1"/>
        <pt x="994" y="1175" on="1"/>
      </contour>
      <contour>
        <pt x="1937" y="1321" on="1"/>
        <pt x="1946" y="1300" on="1"/>
        <pt x="1863" y="1206" on="0"/>
        <pt x="1788" y="1041" on="1"/>
        <pt x="1783" y="1031" on="1"/>
        <pt x="1768" y="1047" on="1"/>
        <pt x="1836" y="1220" on="0"/>
      </contour>
      <contour>
        <pt x="1671" y="976" on="1"/>
        <pt x="1671" y="507" on="1"/>
        <pt x="1645" y="520" on="1"/>
        <pt x="1645" y="989" on="1"/>
      </contour>
      <contour>
        <pt x="2083" y="85" on="1"/>
        <pt x="2032" y="0" on="1"/>
        <pt x="889" y="0" on="1"/>
        <pt x="877" y="27" on="1"/>
        <pt x="2019" y="27" on="1"/>
        <pt x="2050" y="77" on="1"/>
        <pt x="2045" y="83" on="1"/>
        <pt x="1917" y="246" on="0"/>
        <pt x="1886" y="381" on="1"/>
        <pt x="1918" y="371" on="1"/>
        <pt x="1921" y="363" on="1"/>
        <pt x="1958" y="277" on="1"/>
        <pt x="1988" y="211" on="0"/>
        <pt x="2023" y="164" on="1"/>
        <pt x="2074" y="97" on="1"/>
        <pt x="2076" y="94" on="0"/>
      </contour>
    </TTGlyph>
    <TTGlyph name="Aacute" xMin="0" yMin="0" xMax="1557" yMax="1764">
      <component glyphName="A" x="0" y="0" flags="0x14"/>
      <component glyphName="glyph178" x="0" y="0" flags="0x14"/>
    </TTGlyph>
    <TTGlyph name="Acircumflex" xMin="0" yMin="0" xMax="1557" yMax="1767">
      <component glyphName="A" x="0" y="0" flags="0x14"/>
      <component glyphName="glyph180" x="0" y="0" flags="0x14"/>
    </TTGlyph>
    <TTGlyph name="Adieresis" xMin="0" yMin="0" xMax="1557" yMax="1765">
      <component glyphName="A" x="0" y="0" flags="0x14"/>
      <component glyphName="glyph177" x="0" y="0" flags="0x14"/>
    </TTGlyph>
    <TTGlyph name="Agrave" xMin="0" yMin="0" xMax="1557" yMax="1762">
      <component glyphName="A" x="0" y="0" flags="0x14"/>
      <component glyphName="glyph179" x="0" y="0" flags="0x14"/>
    </TTGlyph>
    <TTGlyph name="Aring" xMin="0" yMin="0" xMax="1557" yMax="1819">
      <component glyphName="A" x="0" y="0" flags="0x14"/>
      <component glyphName="glyph182" x="0" y="0" flags="0x14"/>
    </TTGlyph>
    <TTGlyph name="Atilde" xMin="0" yMin="0" xMax="1557" yMax="1779">
      <component glyphName="A" x="0" y="0" flags="0x14"/>
      <component glyphName="glyph181" x="0" y="0" flags="0x14"/>
    </TTGlyph>
    <TTGlyph name="B" xMin="14" yMin="0" xMax="1236" yMax="1386">
      <contour>
        <pt x="67" y="1229" on="1"/>
        <pt x="305" y="1386" on="0"/>
        <pt x="601" y="1386" on="1"/>
        <pt x="816" y="1386" on="0"/>
        <pt x="1088" y="1193" on="0"/>
        <pt x="1088" y="1040" on="1"/>
        <pt x="1088" y="836" on="0"/>
        <pt x="852" y="767" on="1"/>
        <pt x="852" y="756" on="1"/>
        <pt x="876" y="750" on="0"/>
        <pt x="910" y="740" on="1"/>
        <pt x="1021" y="766" on="0"/>
        <pt x="1148" y="926" on="0"/>
        <pt x="1148" y="1039" on="1"/>
        <pt x="1148" y="1181" on="0"/>
        <pt x="1031" y="1291" on="1"/>
        <pt x="1031" y="1297" on="1"/>
        <pt x="1042" y="1288" on="1"/>
        <pt x="1173" y="1187" on="0"/>
        <pt x="1173" y="1029" on="1"/>
        <pt x="1173" y="811" on="0"/>
        <pt x="947" y="725" on="1"/>
        <pt x="1045" y="680" on="0"/>
        <pt x="1154" y="514" on="0"/>
        <pt x="1154" y="410" on="1"/>
        <pt x="1154" y="261" on="0"/>
        <pt x="938" y="82" on="0"/>
        <pt x="758" y="82" on="1"/>
        <pt x="42" y="82" on="1"/>
        <pt x="180" y="200" on="1"/>
        <pt x="180" y="633" on="1"/>
        <pt x="121" y="633" on="0"/>
        <pt x="42" y="621" on="1"/>
        <pt x="34" y="650" on="1"/>
        <pt x="123" y="659" on="0"/>
        <pt x="180" y="659" on="1"/>
        <pt x="180" y="712" on="1"/>
        <pt x="155" y="712" on="1"/>
        <pt x="99" y="712" on="0"/>
        <pt x="14" y="704" on="1"/>
        <pt x="58" y="800" on="1"/>
        <pt x="74" y="799" on="1"/>
        <pt x="113" y="796" on="0"/>
        <pt x="133" y="796" on="1"/>
        <pt x="163" y="796" on="0"/>
        <pt x="180" y="793" on="1"/>
        <pt x="180" y="1169" on="1"/>
      </contour>
      <contour>
        <pt x="380" y="1244" on="1"/>
        <pt x="380" y="793" on="1"/>
        <pt x="391" y="794" on="0"/>
        <pt x="395" y="794" on="1"/>
        <pt x="413" y="793" on="1"/>
        <pt x="417" y="793" on="0"/>
        <pt x="430" y="793" on="1"/>
        <pt x="430" y="1202" on="1"/>
        <pt x="516" y="1242" on="0"/>
        <pt x="598" y="1242" on="1"/>
        <pt x="692" y="1242" on="0"/>
        <pt x="801" y="1174" on="0"/>
        <pt x="839" y="1092" on="1"/>
        <pt x="811" y="1108" on="1"/>
        <pt x="736" y="1221" on="0"/>
        <pt x="597" y="1221" on="1"/>
        <pt x="519" y="1221" on="0"/>
        <pt x="457" y="1177" on="1"/>
        <pt x="457" y="793" on="1"/>
        <pt x="499" y="793" on="1"/>
        <pt x="690" y="793" on="0"/>
        <pt x="877" y="920" on="0"/>
        <pt x="877" y="1051" on="1"/>
        <pt x="877" y="1166" on="0"/>
        <pt x="722" y="1307" on="0"/>
        <pt x="596" y="1307" on="1"/>
        <pt x="485" y="1307" on="0"/>
      </contour>
      <contour>
        <pt x="380" y="711" on="1"/>
        <pt x="380" y="160" on="1"/>
        <pt x="430" y="160" on="1"/>
        <pt x="430" y="651" on="1"/>
        <pt x="501" y="656" on="0"/>
        <pt x="532" y="656" on="1"/>
        <pt x="698" y="656" on="0"/>
        <pt x="847" y="594" on="0"/>
        <pt x="891" y="507" on="1"/>
        <pt x="879" y="507" on="1"/>
        <pt x="830" y="576" on="0"/>
        <pt x="682" y="629" on="0"/>
        <pt x="539" y="629" on="1"/>
        <pt x="457" y="627" on="1"/>
        <pt x="457" y="160" on="1"/>
        <pt x="489" y="160" on="1"/>
        <pt x="634" y="165" on="1"/>
        <pt x="916" y="185" on="0"/>
        <pt x="916" y="439" on="1"/>
        <pt x="916" y="598" on="0"/>
        <pt x="730" y="715" on="0"/>
        <pt x="475" y="715" on="1"/>
        <pt x="450" y="715" on="0"/>
      </contour>
      <contour>
        <pt x="1129" y="641" on="1"/>
        <pt x="1236" y="558" on="0"/>
        <pt x="1236" y="389" on="1"/>
        <pt x="1236" y="219" on="0"/>
        <pt x="1117" y="108" on="1"/>
        <pt x="1001" y="0" on="0"/>
        <pt x="776" y="0" on="1"/>
        <pt x="96" y="0" on="1"/>
        <pt x="79" y="27" on="1"/>
        <pt x="710" y="27" on="1"/>
        <pt x="916" y="27" on="0"/>
        <pt x="1007" y="69" on="1"/>
        <pt x="1209" y="163" on="0"/>
        <pt x="1209" y="396" on="1"/>
        <pt x="1209" y="526" on="0"/>
        <pt x="1117" y="632" on="1"/>
      </contour>
    </TTGlyph>
    <TTGlyph name="C" xMin="48" yMin="-33" xMax="1165" yMax="1398">
      <contour>
        <pt x="1092" y="1334" on="1"/>
        <pt x="1081" y="1315" on="1"/>
        <pt x="991" y="1158" on="0"/>
        <pt x="925" y="1001" on="1"/>
        <pt x="916" y="978" on="1"/>
        <pt x="903" y="985" on="1"/>
        <pt x="880" y="1137" on="0"/>
        <pt x="712" y="1315" on="0"/>
        <pt x="593" y="1315" on="1"/>
        <pt x="466" y="1315" on="0"/>
        <pt x="381" y="1204" on="1"/>
        <pt x="274" y="1066" on="0"/>
        <pt x="274" y="736" on="1"/>
        <pt x="274" y="452" on="0"/>
        <pt x="471" y="130" on="0"/>
        <pt x="646" y="130" on="1"/>
        <pt x="786" y="130" on="0"/>
        <pt x="953" y="317" on="0"/>
        <pt x="969" y="491" on="1"/>
        <pt x="973" y="533" on="0"/>
        <pt x="1003" y="533" on="1"/>
        <pt x="1042" y="533" on="0"/>
        <pt x="1042" y="468" on="1"/>
        <pt x="1042" y="371" on="0"/>
        <pt x="998" y="267" on="1"/>
        <pt x="905" y="47" on="0"/>
        <pt x="614" y="47" on="1"/>
        <pt x="354" y="47" on="0"/>
        <pt x="48" y="412" on="0"/>
        <pt x="48" y="723" on="1"/>
        <pt x="48" y="1010" on="0"/>
        <pt x="366" y="1398" on="0"/>
        <pt x="602" y="1398" on="1"/>
        <pt x="714" y="1398" on="0"/>
        <pt x="857" y="1343" on="1"/>
        <pt x="932" y="1314" on="0"/>
        <pt x="981" y="1314" on="1"/>
        <pt x="1034" y="1314" on="0"/>
        <pt x="1076" y="1343" on="1"/>
      </contour>
      <contour>
        <pt x="802" y="1161" on="1"/>
        <pt x="711" y="1234" on="0"/>
        <pt x="630" y="1234" on="1"/>
        <pt x="371" y="1234" on="0"/>
        <pt x="371" y="740" on="1"/>
        <pt x="371" y="515" on="0"/>
        <pt x="491" y="216" on="0"/>
        <pt x="600" y="172" on="1"/>
        <pt x="600" y="162" on="1"/>
        <pt x="482" y="186" on="0"/>
        <pt x="341" y="501" on="0"/>
        <pt x="341" y="742" on="1"/>
        <pt x="341" y="1259" on="0"/>
        <pt x="625" y="1259" on="1"/>
        <pt x="721" y="1259" on="0"/>
        <pt x="802" y="1174" on="1"/>
      </contour>
      <contour>
        <pt x="1128" y="474" on="1"/>
        <pt x="1112" y="226" on="0"/>
        <pt x="867" y="-33" on="0"/>
        <pt x="647" y="-33" on="1"/>
        <pt x="480" y="-33" on="0"/>
        <pt x="336" y="70" on="1"/>
        <pt x="336" y="78" on="1"/>
        <pt x="464" y="-6" on="0"/>
        <pt x="645" y="-6" on="1"/>
        <pt x="843" y="-6" on="0"/>
        <pt x="968" y="121" on="1"/>
        <pt x="1029" y="183" on="0"/>
        <pt x="1087" y="337" on="0"/>
        <pt x="1097" y="464" on="1"/>
        <pt x="1099" y="487" on="1"/>
      </contour>
      <contour>
        <pt x="1165" y="1286" on="1"/>
        <pt x="1154" y="1267" on="1"/>
        <pt x="1045" y="1081" on="0"/>
        <pt x="980" y="928" on="1"/>
        <pt x="953" y="941" on="1"/>
        <pt x="964" y="966" on="1"/>
        <pt x="1014" y="1071" on="0"/>
        <pt x="1052" y="1140" on="1"/>
        <pt x="1132" y="1282" on="1"/>
        <pt x="1142" y="1300" on="1"/>
      </contour>
    </TTGlyph>
    <TTGlyph name="Ccedilla" xMin="48" yMin="-420" xMax="1165" yMax="1398">
      <contour>
        <pt x="665" y="49" on="1"/>
        <pt x="645" y="-34" on="1"/>
        <pt x="747" y="-34" on="0"/>
        <pt x="747" y="-159" on="1"/>
        <pt x="747" y="-246" on="0"/>
        <pt x="639" y="-361" on="0"/>
        <pt x="558" y="-361" on="1"/>
        <pt x="458" y="-361" on="0"/>
        <pt x="401" y="-262" on="1"/>
        <pt x="409" y="-257" on="1"/>
        <pt x="444" y="-235" on="1"/>
        <pt x="469" y="-219" on="0"/>
        <pt x="508" y="-188" on="1"/>
        <pt x="508" y="-282" on="0"/>
        <pt x="569" y="-282" on="1"/>
        <pt x="597" y="-282" on="0"/>
        <pt x="640" y="-204" on="0"/>
        <pt x="640" y="-152" on="1"/>
        <pt x="640" y="-85" on="0"/>
        <pt x="584" y="-85" on="1"/>
        <pt x="554" y="-85" on="0"/>
        <pt x="534" y="-115" on="1"/>
        <pt x="516" y="-99" on="1"/>
        <pt x="529" y="-65" on="0"/>
        <pt x="541" y="-28" on="1"/>
        <pt x="543" y="-21" on="1"/>
        <pt x="441" y="-5" on="0"/>
        <pt x="336" y="70" on="1"/>
        <pt x="336" y="78" on="1"/>
        <pt x="430" y="16" on="0"/>
        <pt x="550" y="3" on="1"/>
        <pt x="555" y="19" on="0"/>
        <pt x="561" y="43" on="1"/>
        <pt x="562" y="49" on="1"/>
        <pt x="322" y="73" on="0"/>
        <pt x="48" y="425" on="0"/>
        <pt x="48" y="711" on="1"/>
        <pt x="48" y="1007" on="0"/>
        <pt x="363" y="1398" on="0"/>
        <pt x="602" y="1398" on="1"/>
        <pt x="714" y="1398" on="0"/>
        <pt x="857" y="1343" on="1"/>
        <pt x="932" y="1314" on="0"/>
        <pt x="981" y="1314" on="1"/>
        <pt x="1034" y="1314" on="0"/>
        <pt x="1076" y="1343" on="1"/>
        <pt x="1092" y="1334" on="1"/>
        <pt x="1081" y="1315" on="1"/>
        <pt x="991" y="1158" on="0"/>
        <pt x="925" y="1001" on="1"/>
        <pt x="916" y="978" on="1"/>
        <pt x="904" y="985" on="1"/>
        <pt x="880" y="1137" on="0"/>
        <pt x="713" y="1315" on="0"/>
        <pt x="593" y="1315" on="1"/>
        <pt x="467" y="1315" on="0"/>
        <pt x="382" y="1204" on="1"/>
        <pt x="275" y="1066" on="0"/>
        <pt x="275" y="736" on="1"/>
        <pt x="275" y="451" on="0"/>
        <pt x="472" y="130" on="0"/>
        <pt x="646" y="130" on="1"/>
        <pt x="787" y="130" on="0"/>
        <pt x="954" y="317" on="0"/>
        <pt x="969" y="491" on="1"/>
        <pt x="973" y="533" on="0"/>
        <pt x="1003" y="533" on="1"/>
        <pt x="1042" y="533" on="0"/>
        <pt x="1042" y="472" on="1"/>
        <pt x="1042" y="390" on="0"/>
        <pt x="981" y="216" on="0"/>
        <pt x="935" y="167" on="1"/>
        <pt x="836" y="62" on="0"/>
      </contour>
      <contour>
        <pt x="802" y="1161" on="1"/>
        <pt x="711" y="1234" on="0"/>
        <pt x="630" y="1234" on="1"/>
        <pt x="371" y="1234" on="0"/>
        <pt x="371" y="740" on="1"/>
        <pt x="371" y="515" on="0"/>
        <pt x="492" y="214" on="0"/>
        <pt x="600" y="172" on="1"/>
        <pt x="601" y="162" on="1"/>
        <pt x="482" y="186" on="0"/>
        <pt x="341" y="500" on="0"/>
        <pt x="341" y="742" on="1"/>
        <pt x="341" y="992" on="0"/>
        <pt x="488" y="1259" on="0"/>
        <pt x="626" y="1259" on="1"/>
        <pt x="721" y="1259" on="0"/>
        <pt x="802" y="1174" on="1"/>
      </contour>
      <contour>
        <pt x="751" y="-63" on="1"/>
        <pt x="819" y="-116" on="0"/>
        <pt x="819" y="-218" on="1"/>
        <pt x="819" y="-301" on="0"/>
        <pt x="700" y="-420" on="0"/>
        <pt x="618" y="-420" on="1"/>
        <pt x="540" y="-420" on="0"/>
        <pt x="494" y="-376" on="1"/>
        <pt x="494" y="-367" on="1"/>
        <pt x="550" y="-399" on="0"/>
        <pt x="604" y="-399" on="1"/>
        <pt x="678" y="-399" on="0"/>
        <pt x="792" y="-274" on="0"/>
        <pt x="792" y="-193" on="1"/>
        <pt x="792" y="-125" on="0"/>
        <pt x="743" y="-68" on="1"/>
      </contour>
      <contour>
        <pt x="570" y="-142" on="1"/>
        <pt x="577" y="-108" on="0"/>
        <pt x="615" y="-108" on="1"/>
        <pt x="615" y="-118" on="1"/>
        <pt x="597" y="-128" on="0"/>
        <pt x="583" y="-157" on="1"/>
      </contour>
      <contour>
        <pt x="1128" y="474" on="1"/>
        <pt x="1101" y="55" on="0"/>
        <pt x="766" y="-17" on="1"/>
        <pt x="756" y="-19" on="1"/>
        <pt x="730" y="5" on="1"/>
        <pt x="820" y="12" on="0"/>
        <pt x="907" y="71" on="1"/>
        <pt x="998" y="132" on="0"/>
        <pt x="1085" y="312" on="0"/>
        <pt x="1097" y="464" on="1"/>
        <pt x="1099" y="487" on="1"/>
      </contour>
      <contour>
        <pt x="1165" y="1286" on="1"/>
        <pt x="1154" y="1267" on="1"/>
        <pt x="1045" y="1081" on="0"/>
        <pt x="980" y="928" on="1"/>
        <pt x="953" y="941" on="1"/>
        <pt x="964" y="966" on="1"/>
        <pt x="1014" y="1071" on="0"/>
        <pt x="1052" y="1140" on="1"/>
        <pt x="1132" y="1282" on="1"/>
        <pt x="1142" y="1300" on="1"/>
      </contour>
      <contour>
        <pt x="574" y="-235" on="1"/>
        <pt x="597" y="-246" on="1"/>
        <pt x="579" y="-258" on="1"/>
      </contour>
    </TTGlyph>
    <TTGlyph name="D" xMin="41" yMin="0" xMax="1190" yMax="1365">
      <contour>
        <pt x="71" y="1365" on="1"/>
        <pt x="465" y="1365" on="1"/>
        <pt x="754" y="1365" on="0"/>
        <pt x="893" y="1254" on="1"/>
        <pt x="1100" y="1090" on="0"/>
        <pt x="1100" y="740" on="1"/>
        <pt x="1100" y="377" on="0"/>
        <pt x="919" y="215" on="1"/>
        <pt x="837" y="142" on="0"/>
        <pt x="634" y="82" on="0"/>
        <pt x="466" y="82" on="1"/>
        <pt x="41" y="82" on="1"/>
        <pt x="178" y="187" on="1"/>
        <pt x="178" y="1250" on="1"/>
      </contour>
      <contour>
        <pt x="374" y="1281" on="1"/>
        <pt x="374" y="159" on="1"/>
        <pt x="429" y="159" on="1"/>
        <pt x="429" y="1215" on="1"/>
        <pt x="481" y="1223" on="0"/>
        <pt x="524" y="1223" on="1"/>
        <pt x="606" y="1223" on="0"/>
        <pt x="701" y="1190" on="0"/>
        <pt x="749" y="1146" on="1"/>
        <pt x="643" y="1196" on="0"/>
        <pt x="522" y="1196" on="1"/>
        <pt x="496" y="1196" on="0"/>
        <pt x="454" y="1192" on="1"/>
        <pt x="454" y="159" on="1"/>
        <pt x="566" y="159" on="0"/>
        <pt x="682" y="196" on="0"/>
        <pt x="734" y="249" on="1"/>
        <pt x="879" y="396" on="0"/>
        <pt x="879" y="743" on="1"/>
        <pt x="879" y="1082" on="0"/>
        <pt x="722" y="1206" on="1"/>
        <pt x="627" y="1281" on="0"/>
        <pt x="421" y="1281" on="1"/>
      </contour>
      <contour>
        <pt x="103" y="0" on="1"/>
        <pt x="88" y="27" on="1"/>
        <pt x="454" y="27" on="1"/>
        <pt x="724" y="27" on="0"/>
        <pt x="864" y="102" on="1"/>
        <pt x="1165" y="262" on="0"/>
        <pt x="1165" y="721" on="1"/>
        <pt x="1165" y="1028" on="0"/>
        <pt x="1030" y="1177" on="1"/>
        <pt x="990" y="1221" on="1"/>
        <pt x="988" y="1223" on="0"/>
        <pt x="978" y="1235" on="1"/>
        <pt x="1190" y="1102" on="0"/>
        <pt x="1190" y="726" on="1"/>
        <pt x="1190" y="331" on="0"/>
        <pt x="980" y="144" on="1"/>
        <pt x="819" y="0" on="0"/>
        <pt x="454" y="0" on="1"/>
      </contour>
    </TTGlyph>
    <TTGlyph name="Delta" xMin="-5" yMin="0" xMax="1371" yMax="1394">
      <contour>
        <pt x="742" y="1394" on="1"/>
        <pt x="1371" y="0" on="1"/>
        <pt x="-5" y="0" on="1"/>
        <pt x="621" y="1394" on="1"/>
      </contour>
      <contour>
        <pt x="613" y="1161" on="1"/>
        <pt x="223" y="288" on="1"/>
        <pt x="195" y="225" on="0"/>
        <pt x="195" y="198" on="1"/>
        <pt x="195" y="164" on="0"/>
        <pt x="238" y="137" on="0"/>
        <pt x="294" y="137" on="1"/>
        <pt x="1058" y="137" on="1"/>
      </contour>
    </TTGlyph>
    <TTGlyph name="E" xMin="0" yMin="0" xMax="1293" yMax="1365">
      <contour>
        <pt x="1125" y="1365" on="1"/>
        <pt x="1109" y="1346" on="1"/>
        <pt x="1007" y="1221" on="0"/>
        <pt x="947" y="1059" on="1"/>
        <pt x="937" y="1082" on="0"/>
        <pt x="932" y="1093" on="1"/>
        <pt x="877" y="1213" on="0"/>
        <pt x="751" y="1283" on="0"/>
        <pt x="588" y="1283" on="1"/>
        <pt x="513" y="1283" on="0"/>
        <pt x="408" y="1278" on="1"/>
        <pt x="408" y="818" on="1"/>
        <pt x="472" y="818" on="1"/>
        <pt x="472" y="1225" on="1"/>
        <pt x="548" y="1232" on="0"/>
        <pt x="617" y="1232" on="1"/>
        <pt x="744" y="1232" on="0"/>
        <pt x="864" y="1178" on="0"/>
        <pt x="911" y="1100" on="1"/>
        <pt x="897" y="1110" on="0"/>
        <pt x="891" y="1115" on="1"/>
        <pt x="810" y="1179" on="0"/>
        <pt x="738" y="1203" on="0"/>
        <pt x="632" y="1203" on="1"/>
        <pt x="600" y="1203" on="0"/>
        <pt x="518" y="1199" on="1"/>
        <pt x="497" y="1198" on="1"/>
        <pt x="497" y="818" on="1"/>
        <pt x="681" y="818" on="1"/>
        <pt x="810" y="995" on="1"/>
        <pt x="810" y="564" on="1"/>
        <pt x="681" y="731" on="1"/>
        <pt x="408" y="731" on="1"/>
        <pt x="408" y="170" on="1"/>
        <pt x="472" y="170" on="1"/>
        <pt x="472" y="684" on="1"/>
        <pt x="689" y="684" on="1"/>
        <pt x="715" y="658" on="1"/>
        <pt x="497" y="658" on="1"/>
        <pt x="497" y="170" on="1"/>
        <pt x="701" y="170" on="0"/>
        <pt x="873" y="228" on="0"/>
        <pt x="922" y="313" on="1"/>
        <pt x="975" y="404" on="1"/>
        <pt x="978" y="410" on="0"/>
        <pt x="987" y="426" on="1"/>
        <pt x="1013" y="316" on="0"/>
        <pt x="1090" y="184" on="0"/>
        <pt x="1179" y="96" on="1"/>
        <pt x="58" y="96" on="1"/>
        <pt x="210" y="212" on="1"/>
        <pt x="210" y="658" on="1"/>
        <pt x="126" y="648" on="0"/>
        <pt x="58" y="606" on="1"/>
        <pt x="44" y="627" on="1"/>
        <pt x="105" y="671" on="0"/>
        <pt x="210" y="684" on="1"/>
        <pt x="210" y="731" on="1"/>
        <pt x="193" y="733" on="0"/>
        <pt x="186" y="733" on="1"/>
        <pt x="84" y="733" on="0"/>
        <pt x="0" y="658" on="1"/>
        <pt x="46" y="818" on="0"/>
        <pt x="210" y="818" on="1"/>
        <pt x="210" y="1245" on="1"/>
        <pt x="58" y="1365" on="1"/>
      </contour>
      <contour>
        <pt x="1173" y="1295" on="1"/>
        <pt x="1166" y="1286" on="1"/>
        <pt x="1044" y="1122" on="0"/>
        <pt x="1003" y="1011" on="1"/>
        <pt x="986" y="1032" on="1"/>
        <pt x="1053" y="1187" on="0"/>
        <pt x="1159" y="1316" on="1"/>
      </contour>
      <contour>
        <pt x="879" y="962" on="1"/>
        <pt x="879" y="520" on="1"/>
        <pt x="854" y="533" on="1"/>
        <pt x="854" y="975" on="1"/>
      </contour>
      <contour>
        <pt x="1293" y="90" on="1"/>
        <pt x="1241" y="0" on="1"/>
        <pt x="149" y="0" on="1"/>
        <pt x="133" y="27" on="1"/>
        <pt x="1228" y="27" on="1"/>
        <pt x="1262" y="90" on="1"/>
        <pt x="1118" y="223" on="0"/>
        <pt x="1059" y="374" on="1"/>
        <pt x="1091" y="362" on="1"/>
        <pt x="1146" y="234" on="0"/>
        <pt x="1277" y="106" on="1"/>
      </contour>
    </TTGlyph>
    <TTGlyph name="Eacute" xMin="0" yMin="0" xMax="1293" yMax="1764">
      <component glyphName="E" x="0" y="0" flags="0x14"/>
      <component glyphName="glyph184" x="0" y="0" flags="0x14"/>
    </TTGlyph>
    <TTGlyph name="Ecircumflex" xMin="0" yMin="0" xMax="1293" yMax="1767">
      <component glyphName="E" x="0" y="0" flags="0x14"/>
      <component glyphName="glyph186" x="0" y="0" flags="0x14"/>
    </TTGlyph>
    <TTGlyph name="Edieresis" xMin="0" yMin="0" xMax="1293" yMax="1765">
      <component glyphName="E" x="0" y="0" flags="0x14"/>
      <component glyphName="glyph183" x="0" y="0" flags="0x14"/>
    </TTGlyph>
    <TTGlyph name="Egrave" xMin="0" yMin="0" xMax="1293" yMax="1762">
      <component glyphName="E" x="0" y="0" flags="0x14"/>
      <component glyphName="glyph185" x="0" y="0" flags="0x14"/>
    </TTGlyph>
    <TTGlyph name="Eth" xMin="18" yMin="0" xMax="1190" yMax="1365">
      <contour>
        <pt x="70" y="1365" on="1"/>
        <pt x="483" y="1365" on="1"/>
        <pt x="796" y="1365" on="0"/>
        <pt x="1100" y="1052" on="0"/>
        <pt x="1100" y="729" on="1"/>
        <pt x="1100" y="398" on="0"/>
        <pt x="797" y="82" on="0"/>
        <pt x="480" y="82" on="1"/>
        <pt x="40" y="82" on="1"/>
        <pt x="178" y="187" on="1"/>
        <pt x="178" y="657" on="1"/>
        <pt x="100" y="657" on="1"/>
        <pt x="90" y="683" on="1"/>
        <pt x="178" y="683" on="1"/>
        <pt x="178" y="728" on="1"/>
        <pt x="53" y="728" on="1"/>
        <pt x="18" y="820" on="1"/>
        <pt x="178" y="820" on="1"/>
        <pt x="178" y="1253" on="1"/>
      </contour>
      <contour>
        <pt x="374" y="1278" on="1"/>
        <pt x="374" y="820" on="1"/>
        <pt x="430" y="820" on="1"/>
        <pt x="430" y="1214" on="1"/>
        <pt x="468" y="1222" on="0"/>
        <pt x="529" y="1222" on="1"/>
        <pt x="662" y="1222" on="0"/>
        <pt x="747" y="1146" on="1"/>
        <pt x="633" y="1194" on="0"/>
        <pt x="521" y="1194" on="1"/>
        <pt x="489" y="1194" on="0"/>
        <pt x="455" y="1190" on="1"/>
        <pt x="455" y="820" on="1"/>
        <pt x="614" y="820" on="1"/>
        <pt x="646" y="728" on="1"/>
        <pt x="374" y="728" on="1"/>
        <pt x="374" y="159" on="1"/>
        <pt x="430" y="159" on="1"/>
        <pt x="430" y="683" on="1"/>
        <pt x="713" y="683" on="1"/>
        <pt x="672" y="788" on="1"/>
        <pt x="700" y="776" on="1"/>
        <pt x="747" y="657" on="1"/>
        <pt x="455" y="657" on="1"/>
        <pt x="455" y="159" on="1"/>
        <pt x="477" y="158" on="0"/>
        <pt x="482" y="158" on="1"/>
        <pt x="691" y="158" on="0"/>
        <pt x="782" y="309" on="1"/>
        <pt x="880" y="471" on="0"/>
        <pt x="880" y="732" on="1"/>
        <pt x="880" y="997" on="0"/>
        <pt x="780" y="1145" on="1"/>
        <pt x="689" y="1279" on="0"/>
        <pt x="416" y="1279" on="1"/>
      </contour>
      <contour>
        <pt x="978" y="1236" on="1"/>
        <pt x="1190" y="1099" on="0"/>
        <pt x="1190" y="726" on="1"/>
        <pt x="1190" y="357" on="0"/>
        <pt x="846" y="0" on="0"/>
        <pt x="491" y="0" on="1"/>
        <pt x="103" y="0" on="1"/>
        <pt x="88" y="27" on="1"/>
        <pt x="484" y="27" on="1"/>
        <pt x="833" y="27" on="0"/>
        <pt x="1165" y="368" on="0"/>
        <pt x="1165" y="725" on="1"/>
        <pt x="1165" y="904" on="0"/>
        <pt x="1085" y="1122" on="0"/>
      </contour>
    </TTGlyph>
    <TTGlyph name="Euro" xMin="-3" yMin="-33" xMax="1224" yMax="1398">
      <contour>
        <pt x="684" y="1259" on="1"/>
        <pt x="780" y="1259" on="0"/>
        <pt x="861" y="1174" on="1"/>
        <pt x="861" y="1161" on="1"/>
        <pt x="770" y="1234" on="0"/>
        <pt x="689" y="1234" on="1"/>
        <pt x="492" y="1234" on="0"/>
        <pt x="445" y="950" on="1"/>
        <pt x="653" y="950" on="1"/>
        <pt x="685" y="858" on="1"/>
        <pt x="338" y="858" on="1"/>
        <pt x="333" y="799" on="0"/>
        <pt x="333" y="736" on="1"/>
        <pt x="333" y="693" on="0"/>
        <pt x="336" y="650" on="1"/>
        <pt x="403" y="650" on="1"/>
        <pt x="400" y="687" on="0"/>
        <pt x="400" y="742" on="1"/>
        <pt x="400" y="749" on="0"/>
        <pt x="401" y="777" on="1"/>
        <pt x="401" y="805" on="0"/>
        <pt x="401" y="813" on="1"/>
        <pt x="752" y="813" on="1"/>
        <pt x="711" y="918" on="1"/>
        <pt x="739" y="906" on="1"/>
        <pt x="786" y="787" on="1"/>
        <pt x="431" y="787" on="1"/>
        <pt x="430" y="777" on="0"/>
        <pt x="430" y="740" on="1"/>
        <pt x="430" y="686" on="0"/>
        <pt x="432" y="650" on="1"/>
        <pt x="653" y="650" on="1"/>
        <pt x="685" y="558" on="1"/>
        <pt x="345" y="558" on="1"/>
        <pt x="407" y="130" on="0"/>
        <pt x="705" y="130" on="1"/>
        <pt x="995" y="130" on="0"/>
        <pt x="1028" y="491" on="1"/>
        <pt x="1032" y="533" on="0"/>
        <pt x="1062" y="533" on="1"/>
        <pt x="1101" y="533" on="0"/>
        <pt x="1101" y="468" on="1"/>
        <pt x="1101" y="371" on="0"/>
        <pt x="1057" y="267" on="1"/>
        <pt x="964" y="47" on="0"/>
        <pt x="673" y="47" on="1"/>
        <pt x="456" y="47" on="0"/>
        <pt x="314" y="173" on="1"/>
        <pt x="185" y="287" on="0"/>
        <pt x="135" y="487" on="1"/>
        <pt x="79" y="487" on="1"/>
        <pt x="69" y="513" on="1"/>
        <pt x="129" y="513" on="1"/>
        <pt x="124" y="535" on="0"/>
        <pt x="120" y="558" on="1"/>
        <pt x="32" y="558" on="1"/>
        <pt x="-3" y="650" on="1"/>
        <pt x="109" y="650" on="1"/>
        <pt x="107" y="686" on="0"/>
        <pt x="107" y="723" on="1"/>
        <pt x="107" y="755" on="0"/>
        <pt x="109" y="787" on="1"/>
        <pt x="79" y="787" on="1"/>
        <pt x="69" y="813" on="1"/>
        <pt x="112" y="813" on="1"/>
        <pt x="114" y="836" on="0"/>
        <pt x="118" y="858" on="1"/>
        <pt x="32" y="858" on="1"/>
        <pt x="-3" y="950" on="1"/>
        <pt x="138" y="950" on="1"/>
        <pt x="193" y="1145" on="0"/>
        <pt x="321" y="1265" on="1"/>
        <pt x="463" y="1398" on="0"/>
        <pt x="661" y="1398" on="1"/>
        <pt x="738" y="1398" on="0"/>
        <pt x="986" y="1314" on="0"/>
        <pt x="1040" y="1314" on="1"/>
        <pt x="1093" y="1314" on="0"/>
        <pt x="1135" y="1343" on="1"/>
        <pt x="1151" y="1334" on="1"/>
        <pt x="1140" y="1315" on="1"/>
        <pt x="1038" y="1138" on="0"/>
        <pt x="984" y="1001" on="1"/>
        <pt x="975" y="978" on="1"/>
        <pt x="962" y="985" on="1"/>
        <pt x="941" y="1123" on="0"/>
        <pt x="867" y="1212" on="1"/>
        <pt x="782" y="1315" on="0"/>
        <pt x="652" y="1315" on="1"/>
        <pt x="406" y="1315" on="0"/>
        <pt x="348" y="950" on="1"/>
        <pt x="415" y="950" on="1"/>
        <pt x="468" y="1259" on="0"/>
      </contour>
      <contour>
        <pt x="659" y="172" on="1"/>
        <pt x="659" y="162" on="1"/>
        <pt x="561" y="180" on="0"/>
        <pt x="494" y="297" on="1"/>
        <pt x="441" y="388" on="0"/>
        <pt x="419" y="513" on="1"/>
        <pt x="752" y="513" on="1"/>
        <pt x="711" y="618" on="1"/>
        <pt x="739" y="606" on="1"/>
        <pt x="786" y="487" on="1"/>
        <pt x="454" y="487" on="1"/>
        <pt x="508" y="233" on="0"/>
      </contour>
      <contour>
        <pt x="1187" y="474" on="1"/>
        <pt x="1154" y="-33" on="0"/>
        <pt x="706" y="-33" on="1"/>
        <pt x="539" y="-33" on="0"/>
        <pt x="395" y="70" on="1"/>
        <pt x="395" y="78" on="1"/>
        <pt x="523" y="-6" on="0"/>
        <pt x="704" y="-6" on="1"/>
        <pt x="850" y="-6" on="0"/>
        <pt x="964" y="68" on="1"/>
        <pt x="1082" y="146" on="0"/>
        <pt x="1125" y="282" on="1"/>
        <pt x="1146" y="352" on="0"/>
        <pt x="1156" y="464" on="1"/>
        <pt x="1158" y="487" on="1"/>
      </contour>
      <contour>
        <pt x="1224" y="1286" on="1"/>
        <pt x="1213" y="1267" on="1"/>
        <pt x="1100" y="1072" on="0"/>
        <pt x="1039" y="928" on="1"/>
        <pt x="1012" y="941" on="1"/>
        <pt x="1023" y="966" on="1"/>
        <pt x="1059" y="1047" on="0"/>
        <pt x="1111" y="1140" on="1"/>
        <pt x="1201" y="1300" on="1"/>
      </contour>
    </TTGlyph>
    <TTGlyph name="F" xMin="0" yMin="0" xMax="1177" yMax="1365">
      <contour>
        <pt x="63" y="1365" on="1"/>
        <pt x="1101" y="1365" on="1"/>
        <pt x="1039" y="1283" on="0"/>
        <pt x="986" y="1189" on="0"/>
        <pt x="945" y="1085" on="1"/>
        <pt x="937" y="1065" on="1"/>
        <pt x="871" y="1201" on="0"/>
        <pt x="742" y="1281" on="0"/>
        <pt x="589" y="1281" on="1"/>
        <pt x="532" y="1280" on="1"/>
        <pt x="435" y="1281" on="1"/>
        <pt x="398" y="1282" on="1"/>
        <pt x="398" y="814" on="1"/>
        <pt x="459" y="814" on="1"/>
        <pt x="459" y="1227" on="1"/>
        <pt x="488" y="1228" on="1"/>
        <pt x="550" y="1231" on="0"/>
        <pt x="620" y="1231" on="1"/>
        <pt x="824" y="1231" on="0"/>
        <pt x="875" y="1125" on="1"/>
        <pt x="826" y="1172" on="0"/>
        <pt x="711" y="1205" on="0"/>
        <pt x="591" y="1205" on="1"/>
        <pt x="548" y="1205" on="0"/>
        <pt x="484" y="1200" on="1"/>
        <pt x="484" y="814" on="1"/>
        <pt x="635" y="814" on="1"/>
        <pt x="795" y="983" on="1"/>
        <pt x="795" y="564" on="1"/>
        <pt x="627" y="730" on="1"/>
        <pt x="398" y="730" on="1"/>
        <pt x="398" y="226" on="1"/>
        <pt x="526" y="96" on="1"/>
        <pt x="35" y="96" on="1"/>
        <pt x="198" y="226" on="1"/>
        <pt x="198" y="656" on="1"/>
        <pt x="121" y="656" on="0"/>
        <pt x="63" y="598" on="1"/>
        <pt x="44" y="619" on="1"/>
        <pt x="102" y="683" on="0"/>
        <pt x="198" y="683" on="1"/>
        <pt x="198" y="730" on="1"/>
        <pt x="177" y="732" on="0"/>
        <pt x="168" y="732" on="1"/>
        <pt x="75" y="732" on="0"/>
        <pt x="7" y="656" on="1"/>
        <pt x="0" y="672" on="1"/>
        <pt x="45" y="802" on="0"/>
        <pt x="198" y="814" on="1"/>
        <pt x="198" y="1236" on="1"/>
      </contour>
      <contour>
        <pt x="1177" y="1304" on="1"/>
        <pt x="1034" y="1137" on="0"/>
        <pt x="997" y="998" on="1"/>
        <pt x="976" y="1012" on="1"/>
        <pt x="1014" y="1169" on="0"/>
        <pt x="1159" y="1321" on="1"/>
      </contour>
      <contour>
        <pt x="868" y="948" on="1"/>
        <pt x="868" y="516" on="1"/>
        <pt x="842" y="531" on="1"/>
        <pt x="842" y="963" on="1"/>
      </contour>
      <contour>
        <pt x="689" y="646" on="1"/>
        <pt x="484" y="646" on="1"/>
        <pt x="484" y="218" on="1"/>
        <pt x="660" y="0" on="1"/>
        <pt x="81" y="0" on="1"/>
        <pt x="56" y="27" on="1"/>
        <pt x="604" y="27" on="1"/>
        <pt x="459" y="206" on="1"/>
        <pt x="459" y="673" on="1"/>
        <pt x="660" y="673" on="1"/>
      </contour>
    </TTGlyph>
    <TTGlyph name="G" xMin="48" yMin="-1" xMax="1355" yMax="1371">
      <contour>
        <pt x="1172" y="1330" on="1"/>
        <pt x="985" y="962" on="1"/>
        <pt x="967" y="1119" on="0"/>
        <pt x="806" y="1285" on="0"/>
        <pt x="674" y="1285" on="1"/>
        <pt x="486" y="1285" on="0"/>
        <pt x="277" y="993" on="0"/>
        <pt x="277" y="730" on="1"/>
        <pt x="277" y="151" on="0"/>
        <pt x="751" y="151" on="1"/>
        <pt x="912" y="151" on="1"/>
        <pt x="912" y="670" on="1"/>
        <pt x="660" y="670" on="1"/>
        <pt x="578" y="670" on="0"/>
        <pt x="507" y="688" on="0"/>
        <pt x="474" y="718" on="1"/>
        <pt x="474" y="743" on="1"/>
        <pt x="510" y="716" on="0"/>
        <pt x="582" y="699" on="0"/>
        <pt x="663" y="699" on="1"/>
        <pt x="912" y="699" on="1"/>
        <pt x="912" y="753" on="1"/>
        <pt x="634" y="753" on="1"/>
        <pt x="589" y="753" on="1"/>
        <pt x="440" y="753" on="0"/>
        <pt x="440" y="861" on="1"/>
        <pt x="440" y="903" on="0"/>
        <pt x="490" y="963" on="0"/>
        <pt x="525" y="963" on="1"/>
        <pt x="551" y="963" on="0"/>
        <pt x="590" y="925" on="0"/>
        <pt x="590" y="899" on="1"/>
        <pt x="590" y="855" on="0"/>
        <pt x="558" y="848" on="1"/>
        <pt x="534" y="843" on="1"/>
        <pt x="522" y="840" on="0"/>
        <pt x="522" y="833" on="1"/>
        <pt x="522" y="820" on="0"/>
        <pt x="555" y="820" on="1"/>
        <pt x="589" y="820" on="1"/>
        <pt x="1249" y="820" on="1"/>
        <pt x="1111" y="685" on="1"/>
        <pt x="1111" y="192" on="1"/>
        <pt x="1239" y="82" on="1"/>
        <pt x="728" y="82" on="1"/>
        <pt x="627" y="82" on="1"/>
        <pt x="500" y="82" on="0"/>
        <pt x="334" y="144" on="0"/>
        <pt x="249" y="223" on="1"/>
        <pt x="48" y="407" on="0"/>
        <pt x="48" y="716" on="1"/>
        <pt x="48" y="1035" on="0"/>
        <pt x="238" y="1214" on="1"/>
        <pt x="404" y="1371" on="0"/>
        <pt x="632" y="1371" on="1"/>
        <pt x="734" y="1371" on="0"/>
        <pt x="866" y="1335" on="1"/>
        <pt x="1001" y="1298" on="0"/>
        <pt x="1044" y="1298" on="1"/>
        <pt x="1107" y="1298" on="0"/>
      </contour>
      <contour>
        <pt x="1232" y="1267" on="1"/>
        <pt x="1061" y="931" on="1"/>
        <pt x="1037" y="942" on="1"/>
        <pt x="1209" y="1279" on="1"/>
      </contour>
      <contour>
        <pt x="912" y="1115" on="1"/>
        <pt x="894" y="1128" on="1"/>
        <pt x="780" y="1209" on="0"/>
        <pt x="686" y="1209" on="1"/>
        <pt x="572" y="1209" on="0"/>
        <pt x="489" y="1128" on="1"/>
        <pt x="429" y="1068" on="0"/>
        <pt x="376" y="874" on="0"/>
        <pt x="376" y="715" on="1"/>
        <pt x="376" y="513" on="0"/>
        <pt x="456" y="299" on="0"/>
        <pt x="563" y="213" on="1"/>
        <pt x="563" y="202" on="1"/>
        <pt x="447" y="271" on="0"/>
        <pt x="345" y="522" on="0"/>
        <pt x="345" y="737" on="1"/>
        <pt x="345" y="974" on="0"/>
        <pt x="523" y="1237" on="0"/>
        <pt x="684" y="1237" on="1"/>
        <pt x="824" y="1237" on="0"/>
        <pt x="912" y="1121" on="1"/>
      </contour>
      <contour>
        <pt x="1292" y="763" on="1"/>
        <pt x="1189" y="660" on="1"/>
        <pt x="1189" y="191" on="1"/>
        <pt x="1355" y="0" on="1"/>
        <pt x="958" y="3" on="1"/>
        <pt x="598" y="-1" on="1"/>
        <pt x="564" y="-1" on="0"/>
        <pt x="546" y="1" on="1"/>
        <pt x="483" y="8" on="0"/>
        <pt x="419" y="56" on="1"/>
        <pt x="440" y="56" on="1"/>
        <pt x="508" y="26" on="0"/>
        <pt x="626" y="26" on="1"/>
        <pt x="676" y="27" on="1"/>
        <pt x="1299" y="27" on="1"/>
        <pt x="1161" y="180" on="1"/>
        <pt x="1161" y="670" on="1"/>
        <pt x="1276" y="786" on="1"/>
      </contour>
    </TTGlyph>
    <TTGlyph name="H" xMin="7" yMin="0" xMax="1286" yMax="1365">
      <contour>
        <pt x="65" y="1365" on="1"/>
        <pt x="535" y="1365" on="1"/>
        <pt x="399" y="1232" on="1"/>
        <pt x="399" y="800" on="1"/>
        <pt x="422" y="796" on="0"/>
        <pt x="453" y="794" on="1"/>
        <pt x="453" y="1222" on="1"/>
        <pt x="562" y="1330" on="1"/>
        <pt x="582" y="1312" on="1"/>
        <pt x="479" y="1210" on="1"/>
        <pt x="479" y="793" on="1"/>
        <pt x="512" y="790" on="1"/>
        <pt x="589" y="783" on="0"/>
        <pt x="661" y="783" on="1"/>
        <pt x="765" y="783" on="0"/>
        <pt x="840" y="793" on="1"/>
        <pt x="840" y="1253" on="1"/>
        <pt x="718" y="1365" on="1"/>
        <pt x="1180" y="1365" on="1"/>
        <pt x="1042" y="1232" on="1"/>
        <pt x="1042" y="190" on="1"/>
        <pt x="1163" y="82" on="1"/>
        <pt x="703" y="82" on="1"/>
        <pt x="840" y="199" on="1"/>
        <pt x="840" y="623" on="1"/>
        <pt x="756" y="603" on="0"/>
        <pt x="667" y="603" on="1"/>
        <pt x="583" y="603" on="0"/>
        <pt x="493" y="612" on="1"/>
        <pt x="479" y="613" on="1"/>
        <pt x="479" y="190" on="1"/>
        <pt x="644" y="0" on="1"/>
        <pt x="127" y="0" on="1"/>
        <pt x="101" y="27" on="1"/>
        <pt x="589" y="27" on="1"/>
        <pt x="453" y="176" on="1"/>
        <pt x="453" y="636" on="1"/>
        <pt x="482" y="634" on="1"/>
        <pt x="614" y="624" on="0"/>
        <pt x="673" y="624" on="1"/>
        <pt x="769" y="624" on="0"/>
        <pt x="840" y="650" on="1"/>
        <pt x="840" y="686" on="1"/>
        <pt x="746" y="672" on="0"/>
        <pt x="621" y="672" on="1"/>
        <pt x="554" y="672" on="0"/>
        <pt x="523" y="675" on="1"/>
        <pt x="422" y="684" on="1"/>
        <pt x="416" y="685" on="0"/>
        <pt x="399" y="686" on="1"/>
        <pt x="399" y="190" on="1"/>
        <pt x="527" y="82" on="1"/>
        <pt x="65" y="82" on="1"/>
        <pt x="199" y="199" on="1"/>
        <pt x="199" y="636" on="1"/>
        <pt x="115" y="636" on="0"/>
        <pt x="65" y="570" on="1"/>
        <pt x="44" y="580" on="1"/>
        <pt x="102" y="653" on="0"/>
        <pt x="199" y="661" on="1"/>
        <pt x="199" y="698" on="1"/>
        <pt x="87" y="698" on="0"/>
        <pt x="22" y="613" on="1"/>
        <pt x="7" y="623" on="1"/>
        <pt x="66" y="767" on="0"/>
        <pt x="199" y="793" on="1"/>
        <pt x="199" y="1243" on="1"/>
      </contour>
      <contour>
        <pt x="1222" y="1309" on="1"/>
        <pt x="1120" y="1210" on="1"/>
        <pt x="1120" y="190" on="1"/>
        <pt x="1286" y="0" on="1"/>
        <pt x="767" y="0" on="1"/>
        <pt x="742" y="27" on="1"/>
        <pt x="1229" y="27" on="1"/>
        <pt x="1095" y="178" on="1"/>
        <pt x="1095" y="1220" on="1"/>
        <pt x="1206" y="1330" on="1"/>
      </contour>
    </TTGlyph>
    <TTGlyph name="I" xMin="41" yMin="0" xMax="626" yMax="1365">
      <contour>
        <pt x="41" y="1365" on="1"/>
        <pt x="515" y="1365" on="1"/>
        <pt x="381" y="1229" on="1"/>
        <pt x="381" y="188" on="1"/>
        <pt x="507" y="82" on="1"/>
        <pt x="41" y="82" on="1"/>
        <pt x="180" y="197" on="1"/>
        <pt x="180" y="1240" on="1"/>
      </contour>
      <contour>
        <pt x="560" y="1308" on="1"/>
        <pt x="458" y="1207" on="1"/>
        <pt x="458" y="188" on="1"/>
        <pt x="626" y="0" on="1"/>
        <pt x="106" y="0" on="1"/>
        <pt x="81" y="27" on="1"/>
        <pt x="567" y="27" on="1"/>
        <pt x="430" y="178" on="1"/>
        <pt x="430" y="1216" on="1"/>
        <pt x="543" y="1328" on="1"/>
      </contour>
    </TTGlyph>
    <TTGlyph name="Iacute" xMin="41" yMin="0" xMax="654" yMax="1764">
      <component glyphName="I" x="0" y="0" flags="0x14"/>
      <component glyphName="glyph188" x="0" y="0" flags="0x14"/>
    </TTGlyph>
    <TTGlyph name="Icircumflex" xMin="38" yMin="0" xMax="643" yMax="1767">
      <component glyphName="I" x="1" y="0" flags="0x14"/>
      <component glyphName="glyph190" x="0" y="0" flags="0x14"/>
    </TTGlyph>
    <TTGlyph name="Idieresis" xMin="15" yMin="0" xMax="626" yMax="1765">
      <component glyphName="I" x="0" y="0" flags="0x14"/>
      <component glyphName="glyph187" x="0" y="0" flags="0x14"/>
    </TTGlyph>
    <TTGlyph name="Igrave" xMin="-13" yMin="0" xMax="626" yMax="1762">
      <component glyphName="I" x="0" y="0" flags="0x14"/>
      <component glyphName="glyph189" x="0" y="0" flags="0x14"/>
    </TTGlyph>
    <TTGlyph name="J" xMin="-41" yMin="-30" xMax="997" yMax="1365">
      <contour>
        <pt x="956" y="1365" on="1"/>
        <pt x="821" y="1230" on="1"/>
        <pt x="821" y="487" on="1"/>
        <pt x="821" y="455" on="1"/>
        <pt x="821" y="380" on="0"/>
        <pt x="871" y="353" on="1"/>
        <pt x="859" y="222" on="0"/>
        <pt x="629" y="57" on="0"/>
        <pt x="458" y="57" on="1"/>
        <pt x="143" y="57" on="0"/>
        <pt x="53" y="304" on="1"/>
        <pt x="39" y="342" on="1"/>
        <pt x="29" y="371" on="0"/>
        <pt x="0" y="392" on="0"/>
        <pt x="-41" y="399" on="1"/>
        <pt x="258" y="622" on="1"/>
        <pt x="242" y="524" on="0"/>
        <pt x="242" y="424" on="1"/>
        <pt x="242" y="289" on="0"/>
        <pt x="349" y="128" on="0"/>
        <pt x="440" y="128" on="1"/>
        <pt x="621" y="128" on="0"/>
        <pt x="621" y="415" on="1"/>
        <pt x="621" y="1242" on="1"/>
        <pt x="485" y="1365" on="1"/>
      </contour>
      <contour>
        <pt x="997" y="1309" on="1"/>
        <pt x="899" y="1209" on="1"/>
        <pt x="899" y="478" on="1"/>
        <pt x="899" y="439" on="1"/>
        <pt x="913" y="378" on="1"/>
        <pt x="926" y="352" on="0"/>
        <pt x="968" y="325" on="1"/>
        <pt x="954" y="240" on="0"/>
        <pt x="882" y="151" on="1"/>
        <pt x="737" y="-30" on="0"/>
        <pt x="475" y="-30" on="1"/>
        <pt x="275" y="-30" on="0"/>
        <pt x="155" y="85" on="1"/>
        <pt x="155" y="93" on="1"/>
        <pt x="230" y="36" on="0"/>
        <pt x="362" y="-7" on="0"/>
        <pt x="460" y="-7" on="1"/>
        <pt x="634" y="-7" on="0"/>
        <pt x="907" y="178" on="0"/>
        <pt x="938" y="316" on="1"/>
        <pt x="892" y="353" on="0"/>
        <pt x="872" y="405" on="0"/>
        <pt x="872" y="484" on="1"/>
        <pt x="872" y="1220" on="1"/>
        <pt x="982" y="1330" on="1"/>
      </contour>
      <contour>
        <pt x="351" y="599" on="1"/>
        <pt x="349" y="586" on="1"/>
        <pt x="330" y="473" on="0"/>
        <pt x="330" y="422" on="1"/>
        <pt x="330" y="228" on="0"/>
        <pt x="475" y="158" on="1"/>
        <pt x="460" y="158" on="1"/>
        <pt x="303" y="204" on="0"/>
        <pt x="303" y="405" on="1"/>
        <pt x="303" y="507" on="0"/>
        <pt x="325" y="599" on="1"/>
      </contour>
    </TTGlyph>
    <TTGlyph name="K" xMin="41" yMin="0" xMax="1447" yMax="1365">
      <contour>
        <pt x="49" y="1365" on="1"/>
        <pt x="517" y="1365" on="1"/>
        <pt x="378" y="1233" on="1"/>
        <pt x="378" y="629" on="1"/>
        <pt x="433" y="692" on="1"/>
        <pt x="433" y="1225" on="1"/>
        <pt x="545" y="1334" on="1"/>
        <pt x="560" y="1312" on="1"/>
        <pt x="457" y="1212" on="1"/>
        <pt x="457" y="723" on="1"/>
        <pt x="767" y="1093" on="1"/>
        <pt x="834" y="1173" on="0"/>
        <pt x="834" y="1237" on="1"/>
        <pt x="834" y="1275" on="0"/>
        <pt x="758" y="1344" on="0"/>
        <pt x="704" y="1355" on="1"/>
        <pt x="704" y="1365" on="1"/>
        <pt x="1231" y="1365" on="1"/>
        <pt x="1231" y="1355" on="1"/>
        <pt x="1058" y="1313" on="0"/>
        <pt x="858" y="1073" on="1"/>
        <pt x="719" y="908" on="1"/>
        <pt x="1088" y="191" on="1"/>
        <pt x="1256" y="82" on="1"/>
        <pt x="737" y="82" on="1"/>
        <pt x="868" y="180" on="1"/>
        <pt x="620" y="676" on="1"/>
        <pt x="457" y="477" on="1"/>
        <pt x="457" y="191" on="1"/>
        <pt x="620" y="0" on="1"/>
        <pt x="107" y="0" on="1"/>
        <pt x="80" y="27" on="1"/>
        <pt x="560" y="27" on="1"/>
        <pt x="433" y="180" on="1"/>
        <pt x="433" y="490" on="1"/>
        <pt x="607" y="704" on="1"/>
        <pt x="585" y="748" on="1"/>
        <pt x="378" y="502" on="1"/>
        <pt x="378" y="191" on="1"/>
        <pt x="499" y="82" on="1"/>
        <pt x="41" y="82" on="1"/>
        <pt x="178" y="199" on="1"/>
        <pt x="178" y="1246" on="1"/>
      </contour>
      <contour>
        <pt x="1281" y="1274" on="1"/>
        <pt x="1133" y="1264" on="0"/>
        <pt x="986" y="1101" on="1"/>
        <pt x="811" y="907" on="1"/>
        <pt x="1164" y="191" on="1"/>
        <pt x="1447" y="0" on="1"/>
        <pt x="811" y="0" on="1"/>
        <pt x="783" y="27" on="1"/>
        <pt x="1362" y="27" on="1"/>
        <pt x="1149" y="172" on="1"/>
        <pt x="783" y="907" on="1"/>
        <pt x="969" y="1117" on="1"/>
        <pt x="1115" y="1280" on="0"/>
        <pt x="1270" y="1295" on="1"/>
      </contour>
    </TTGlyph>
    <TTGlyph name="L" xMin="41" yMin="0" xMax="1183" yMax="1365">
      <contour>
        <pt x="41" y="1365" on="1"/>
        <pt x="519" y="1365" on="1"/>
        <pt x="378" y="1228" on="1"/>
        <pt x="378" y="159" on="1"/>
        <pt x="386" y="159" on="1"/>
        <pt x="422" y="156" on="1"/>
        <pt x="431" y="156" on="1"/>
        <pt x="431" y="1218" on="1"/>
        <pt x="539" y="1327" on="1"/>
        <pt x="553" y="1305" on="1"/>
        <pt x="456" y="1206" on="1"/>
        <pt x="456" y="156" on="1"/>
        <pt x="501" y="152" on="0"/>
        <pt x="542" y="152" on="1"/>
        <pt x="701" y="152" on="0"/>
        <pt x="864" y="293" on="0"/>
        <pt x="892" y="455" on="1"/>
        <pt x="986" y="182" on="0"/>
        <pt x="1085" y="82" on="1"/>
        <pt x="41" y="82" on="1"/>
        <pt x="179" y="195" on="1"/>
        <pt x="179" y="1238" on="1"/>
      </contour>
      <contour>
        <pt x="1183" y="90" on="1"/>
        <pt x="1138" y="0" on="1"/>
        <pt x="94" y="0" on="1"/>
        <pt x="69" y="27" on="1"/>
        <pt x="1127" y="27" on="1"/>
        <pt x="1156" y="90" on="1"/>
        <pt x="1046" y="225" on="0"/>
        <pt x="980" y="391" on="1"/>
        <pt x="976" y="402" on="1"/>
        <pt x="1008" y="390" on="1"/>
        <pt x="1015" y="373" on="1"/>
        <pt x="1082" y="225" on="0"/>
        <pt x="1175" y="100" on="1"/>
      </contour>
    </TTGlyph>
    <TTGlyph name="M" xMin="-34" yMin="0" xMax="1505" yMax="1365">
      <contour>
        <pt x="1388" y="1365" on="1"/>
        <pt x="1251" y="1226" on="1"/>
        <pt x="1251" y="199" on="1"/>
        <pt x="1374" y="82" on="1"/>
        <pt x="914" y="82" on="1"/>
        <pt x="1053" y="199" on="1"/>
        <pt x="1053" y="872" on="1"/>
        <pt x="736" y="0" on="1"/>
        <pt x="640" y="0" on="1"/>
        <pt x="632" y="27" on="1"/>
        <pt x="719" y="27" on="1"/>
        <pt x="1053" y="957" on="1"/>
        <pt x="1053" y="1110" on="1"/>
        <pt x="681" y="83" on="1"/>
        <pt x="611" y="83" on="1"/>
        <pt x="337" y="890" on="1"/>
        <pt x="337" y="361" on="1"/>
        <pt x="337" y="255" on="0"/>
        <pt x="365" y="167" on="0"/>
        <pt x="417" y="114" on="1"/>
        <pt x="507" y="0" on="1"/>
        <pt x="-16" y="0" on="1"/>
        <pt x="-34" y="27" on="1"/>
        <pt x="457" y="27" on="1"/>
        <pt x="420" y="82" on="1"/>
        <pt x="-26" y="82" on="1"/>
        <pt x="-5" y="93" on="1"/>
        <pt x="106" y="154" on="0"/>
        <pt x="177" y="279" on="0"/>
        <pt x="177" y="414" on="1"/>
        <pt x="177" y="1241" on="1"/>
        <pt x="45" y="1365" on="1"/>
        <pt x="562" y="1365" on="1"/>
        <pt x="417" y="1234" on="1"/>
        <pt x="700" y="397" on="1"/>
        <pt x="736" y="484" on="1"/>
        <pt x="480" y="1226" on="1"/>
        <pt x="611" y="1323" on="1"/>
        <pt x="632" y="1306" on="1"/>
        <pt x="507" y="1218" on="1"/>
        <pt x="745" y="521" on="1"/>
        <pt x="1003" y="1234" on="1"/>
        <pt x="881" y="1365" on="1"/>
      </contour>
      <contour>
        <pt x="256" y="1128" on="1"/>
        <pt x="256" y="410" on="1"/>
        <pt x="256" y="245" on="0"/>
        <pt x="319" y="121" on="0"/>
        <pt x="418" y="93" on="1"/>
        <pt x="409" y="108" on="1"/>
        <pt x="311" y="176" on="0"/>
        <pt x="311" y="304" on="1"/>
        <pt x="311" y="378" on="1"/>
        <pt x="311" y="969" on="1"/>
      </contour>
      <contour>
        <pt x="1444" y="1287" on="1"/>
        <pt x="1331" y="1206" on="1"/>
        <pt x="1331" y="198" on="1"/>
        <pt x="1505" y="0" on="1"/>
        <pt x="974" y="0" on="1"/>
        <pt x="960" y="27" on="1"/>
        <pt x="1444" y="27" on="1"/>
        <pt x="1305" y="184" on="1"/>
        <pt x="1305" y="1223" on="1"/>
        <pt x="1423" y="1304" on="1"/>
      </contour>
    </TTGlyph>
    <TTGlyph name="N" xMin="-20" yMin="0" xMax="1217" yMax="1365">
      <contour>
        <pt x="1182" y="1365" on="1"/>
        <pt x="1068" y="1306" on="0"/>
        <pt x="1035" y="1257" on="1"/>
        <pt x="985" y="1181" on="0"/>
        <pt x="985" y="1028" on="1"/>
        <pt x="985" y="963" on="1"/>
        <pt x="985" y="82" on="1"/>
        <pt x="816" y="82" on="1"/>
        <pt x="344" y="998" on="1"/>
        <pt x="344" y="455" on="1"/>
        <pt x="343" y="410" on="1"/>
        <pt x="355" y="266" on="1"/>
        <pt x="375" y="166" on="0"/>
        <pt x="446" y="118" on="1"/>
        <pt x="454" y="111" on="1"/>
        <pt x="316" y="157" on="0"/>
        <pt x="316" y="406" on="1"/>
        <pt x="317" y="500" on="1"/>
        <pt x="317" y="1047" on="1"/>
        <pt x="263" y="1152" on="1"/>
        <pt x="263" y="576" on="1"/>
        <pt x="263" y="302" on="0"/>
        <pt x="335" y="132" on="0"/>
        <pt x="468" y="93" on="1"/>
        <pt x="555" y="0" on="1"/>
        <pt x="13" y="0" on="1"/>
        <pt x="-3" y="27" on="1"/>
        <pt x="498" y="27" on="1"/>
        <pt x="446" y="82" on="1"/>
        <pt x="-20" y="82" on="1"/>
        <pt x="102" y="126" on="0"/>
        <pt x="182" y="274" on="0"/>
        <pt x="182" y="454" on="1"/>
        <pt x="182" y="1254" on="1"/>
        <pt x="49" y="1365" on="1"/>
        <pt x="555" y="1365" on="1"/>
        <pt x="413" y="1270" on="1"/>
        <pt x="897" y="326" on="1"/>
        <pt x="897" y="446" on="1"/>
        <pt x="482" y="1254" on="1"/>
        <pt x="622" y="1349" on="1"/>
        <pt x="641" y="1330" on="1"/>
        <pt x="517" y="1246" on="1"/>
        <pt x="897" y="500" on="1"/>
        <pt x="897" y="967" on="1"/>
        <pt x="897" y="1020" on="1"/>
        <pt x="897" y="1194" on="0"/>
        <pt x="840" y="1311" on="0"/>
        <pt x="728" y="1365" on="1"/>
      </contour>
      <contour>
        <pt x="1217" y="1291" on="1"/>
        <pt x="1199" y="1261" on="1"/>
        <pt x="1122" y="1243" on="0"/>
        <pt x="1067" y="1146" on="0"/>
        <pt x="1067" y="1031" on="1"/>
        <pt x="1067" y="0" on="1"/>
        <pt x="852" y="0" on="1"/>
        <pt x="839" y="27" on="1"/>
        <pt x="1040" y="27" on="1"/>
        <pt x="1040" y="1021" on="1"/>
        <pt x="1040" y="1162" on="0"/>
        <pt x="1113" y="1273" on="0"/>
      </contour>
    </TTGlyph>
    <TTGlyph name="Ntilde" xMin="-20" yMin="0" xMax="1217" yMax="1779">
      <component glyphName="N" x="0" y="0" flags="0x14"/>
      <component glyphName="glyph191" x="0" y="0" flags="0x14"/>
    </TTGlyph>
    <TTGlyph name="O" xMin="48" yMin="-13" xMax="1230" yMax="1378">
      <contour>
        <pt x="816" y="1142" on="1"/>
        <pt x="799" y="1152" on="1"/>
        <pt x="703" y="1205" on="0"/>
        <pt x="623" y="1205" on="1"/>
        <pt x="360" y="1205" on="0"/>
        <pt x="360" y="688" on="1"/>
        <pt x="360" y="310" on="0"/>
        <pt x="523" y="187" on="1"/>
        <pt x="514" y="177" on="1"/>
        <pt x="414" y="248" on="0"/>
        <pt x="329" y="479" on="0"/>
        <pt x="329" y="676" on="1"/>
        <pt x="329" y="1231" on="0"/>
        <pt x="621" y="1231" on="1"/>
        <pt x="754" y="1231" on="0"/>
      </contour>
      <contour>
        <pt x="602" y="1378" on="1"/>
        <pt x="845" y="1378" on="0"/>
        <pt x="1136" y="1010" on="0"/>
        <pt x="1136" y="702" on="1"/>
        <pt x="1136" y="411" on="0"/>
        <pt x="849" y="65" on="0"/>
        <pt x="607" y="65" on="1"/>
        <pt x="416" y="65" on="0"/>
        <pt x="267" y="187" on="1"/>
        <pt x="48" y="367" on="0"/>
        <pt x="48" y="720" on="1"/>
        <pt x="48" y="1022" on="0"/>
        <pt x="348" y="1378" on="0"/>
      </contour>
      <contour>
        <pt x="602" y="1292" on="1"/>
        <pt x="264" y="1292" on="0"/>
        <pt x="264" y="698" on="1"/>
        <pt x="264" y="149" on="0"/>
        <pt x="597" y="149" on="1"/>
        <pt x="752" y="149" on="0"/>
        <pt x="914" y="440" on="0"/>
        <pt x="914" y="720" on="1"/>
        <pt x="914" y="1037" on="0"/>
        <pt x="836" y="1162" on="1"/>
        <pt x="754" y="1292" on="0"/>
      </contour>
      <contour>
        <pt x="921" y="1327" on="1"/>
        <pt x="1064" y="1258" on="0"/>
        <pt x="1230" y="924" on="0"/>
        <pt x="1230" y="705" on="1"/>
        <pt x="1230" y="383" on="0"/>
        <pt x="903" y="-13" on="0"/>
        <pt x="637" y="-13" on="1"/>
        <pt x="467" y="-13" on="0"/>
        <pt x="319" y="102" on="1"/>
        <pt x="319" y="107" on="1"/>
        <pt x="443" y="16" on="0"/>
        <pt x="630" y="16" on="1"/>
        <pt x="881" y="16" on="0"/>
        <pt x="1203" y="394" on="0"/>
        <pt x="1203" y="688" on="1"/>
        <pt x="1203" y="907" on="0"/>
        <pt x="1056" y="1235" on="0"/>
        <pt x="921" y="1316" on="1"/>
      </contour>
    </TTGlyph>
    <TTGlyph name="OE" xMin="48" yMin="-17" xMax="1972" yMax="1373">
      <contour>
        <pt x="757" y="0" on="1"/>
        <pt x="750" y="-1" on="1"/>
        <pt x="674" y="-17" on="0"/>
        <pt x="626" y="-17" on="1"/>
        <pt x="465" y="-17" on="0"/>
        <pt x="319" y="97" on="1"/>
        <pt x="319" y="102" on="1"/>
        <pt x="445" y="11" on="0"/>
        <pt x="641" y="11" on="1"/>
        <pt x="695" y="11" on="0"/>
        <pt x="733" y="20" on="1"/>
        <pt x="760" y="26" on="1"/>
        <pt x="768" y="27" on="1"/>
        <pt x="1906" y="27" on="1"/>
        <pt x="1940" y="90" on="1"/>
        <pt x="1796" y="223" on="0"/>
        <pt x="1738" y="374" on="1"/>
        <pt x="1769" y="362" on="1"/>
        <pt x="1824" y="234" on="0"/>
        <pt x="1956" y="106" on="1"/>
        <pt x="1972" y="90" on="1"/>
        <pt x="1920" y="0" on="1"/>
      </contour>
      <contour>
        <pt x="816" y="1137" on="1"/>
        <pt x="706" y="1201" on="0"/>
        <pt x="623" y="1201" on="1"/>
        <pt x="360" y="1201" on="0"/>
        <pt x="360" y="684" on="1"/>
        <pt x="360" y="305" on="0"/>
        <pt x="523" y="183" on="1"/>
        <pt x="514" y="169" on="1"/>
        <pt x="415" y="240" on="0"/>
        <pt x="329" y="472" on="0"/>
        <pt x="329" y="670" on="1"/>
        <pt x="329" y="1227" on="0"/>
        <pt x="621" y="1227" on="1"/>
        <pt x="753" y="1227" on="0"/>
      </contour>
      <contour>
        <pt x="782" y="82" on="1"/>
        <pt x="776" y="79" on="1"/>
        <pt x="722" y="60" on="0"/>
        <pt x="639" y="60" on="1"/>
        <pt x="368" y="60" on="0"/>
        <pt x="48" y="415" on="0"/>
        <pt x="48" y="716" on="1"/>
        <pt x="48" y="1017" on="0"/>
        <pt x="348" y="1373" on="0"/>
        <pt x="602" y="1373" on="1"/>
        <pt x="674" y="1373" on="0"/>
        <pt x="744" y="1356" on="1"/>
        <pt x="1803" y="1356" on="1"/>
        <pt x="1787" y="1337" on="1"/>
        <pt x="1684" y="1210" on="0"/>
        <pt x="1625" y="1050" on="1"/>
        <pt x="1615" y="1072" on="0"/>
        <pt x="1610" y="1083" on="1"/>
        <pt x="1556" y="1203" on="0"/>
        <pt x="1430" y="1273" on="0"/>
        <pt x="1267" y="1273" on="1"/>
        <pt x="1120" y="1269" on="1"/>
        <pt x="1087" y="1268" on="1"/>
        <pt x="1087" y="818" on="1"/>
        <pt x="1151" y="818" on="1"/>
        <pt x="1151" y="1216" on="1"/>
        <pt x="1228" y="1222" on="0"/>
        <pt x="1296" y="1222" on="1"/>
        <pt x="1422" y="1222" on="0"/>
        <pt x="1542" y="1168" on="0"/>
        <pt x="1589" y="1090" on="1"/>
        <pt x="1575" y="1100" on="0"/>
        <pt x="1569" y="1106" on="1"/>
        <pt x="1489" y="1168" on="0"/>
        <pt x="1416" y="1193" on="0"/>
        <pt x="1311" y="1193" on="1"/>
        <pt x="1273" y="1193" on="0"/>
        <pt x="1197" y="1189" on="1"/>
        <pt x="1176" y="1189" on="1"/>
        <pt x="1176" y="818" on="1"/>
        <pt x="1359" y="818" on="1"/>
        <pt x="1488" y="995" on="1"/>
        <pt x="1488" y="564" on="1"/>
        <pt x="1359" y="731" on="1"/>
        <pt x="1087" y="731" on="1"/>
        <pt x="1087" y="169" on="1"/>
        <pt x="1151" y="169" on="1"/>
        <pt x="1151" y="684" on="1"/>
        <pt x="1368" y="684" on="1"/>
        <pt x="1393" y="658" on="1"/>
        <pt x="1176" y="658" on="1"/>
        <pt x="1176" y="169" on="1"/>
        <pt x="1380" y="169" on="0"/>
        <pt x="1551" y="227" on="0"/>
        <pt x="1600" y="312" on="1"/>
        <pt x="1653" y="404" on="1"/>
        <pt x="1656" y="409" on="0"/>
        <pt x="1665" y="425" on="1"/>
        <pt x="1691" y="311" on="0"/>
        <pt x="1769" y="171" on="0"/>
        <pt x="1857" y="82" on="1"/>
      </contour>
      <contour>
        <pt x="905" y="630" on="1"/>
        <pt x="905" y="768" on="1"/>
        <pt x="905" y="926" on="0"/>
        <pt x="875" y="1097" on="0"/>
        <pt x="836" y="1157" on="1"/>
        <pt x="752" y="1287" on="0"/>
        <pt x="603" y="1287" on="1"/>
        <pt x="264" y="1287" on="0"/>
        <pt x="264" y="693" on="1"/>
        <pt x="264" y="145" on="0"/>
        <pt x="597" y="145" on="1"/>
        <pt x="816" y="145" on="0"/>
        <pt x="887" y="429" on="1"/>
        <pt x="889" y="435" on="1"/>
        <pt x="905" y="515" on="0"/>
      </contour>
      <contour>
        <pt x="1851" y="1295" on="1"/>
        <pt x="1844" y="1286" on="1"/>
        <pt x="1723" y="1122" on="0"/>
        <pt x="1682" y="1011" on="1"/>
        <pt x="1664" y="1032" on="1"/>
        <pt x="1731" y="1187" on="0"/>
        <pt x="1838" y="1316" on="1"/>
      </contour>
      <contour>
        <pt x="1557" y="962" on="1"/>
        <pt x="1557" y="520" on="1"/>
        <pt x="1532" y="533" on="1"/>
        <pt x="1532" y="975" on="1"/>
      </contour>
    </TTGlyph>
    <TTGlyph name="Oacute" xMin="48" yMin="-13" xMax="1230" yMax="1764">
      <component glyphName="O" x="0" y="0" flags="0x14"/>
      <component glyphName="glyph193" x="0" y="0" flags="0x14"/>
    </TTGlyph>
    <TTGlyph name="Ocircumflex" xMin="48" yMin="-13" xMax="1230" yMax="1767">
      <component glyphName="O" x="0" y="0" flags="0x14"/>
      <component glyphName="glyph195" x="0" y="0" flags="0x14"/>
    </TTGlyph>
    <TTGlyph name="Odieresis" xMin="48" yMin="-13" xMax="1230" yMax="1765">
      <component glyphName="O" x="0" y="0" flags="0x14"/>
      <component glyphName="glyph192" x="0" y="0" flags="0x14"/>
    </TTGlyph>
    <TTGlyph name="Ograve" xMin="48" yMin="-13" xMax="1230" yMax="1762">
      <component glyphName="O" x="0" y="0" flags="0x14"/>
      <component glyphName="glyph194" x="0" y="0" flags="0x14"/>
    </TTGlyph>
    <TTGlyph name="Omega" xMin="-64" yMin="0" xMax="1428" yMax="1387">
      <contour>
        <pt x="1428" y="280" on="1"/>
        <pt x="1350" y="0" on="1"/>
        <pt x="765" y="0" on="1"/>
        <pt x="765" y="126" on="1"/>
        <pt x="918" y="210" on="0"/>
        <pt x="991" y="307" on="1"/>
        <pt x="1123" y="486" on="0"/>
        <pt x="1123" y="746" on="1"/>
        <pt x="1123" y="1001" on="0"/>
        <pt x="878" y="1320" on="0"/>
        <pt x="683" y="1320" on="1"/>
        <pt x="475" y="1320" on="0"/>
        <pt x="359" y="1154" on="1"/>
        <pt x="242" y="988" on="0"/>
        <pt x="242" y="755" on="1"/>
        <pt x="242" y="499" on="0"/>
        <pt x="371" y="315" on="1"/>
        <pt x="447" y="207" on="0"/>
        <pt x="601" y="126" on="1"/>
        <pt x="601" y="0" on="1"/>
        <pt x="14" y="0" on="1"/>
        <pt x="-64" y="280" on="1"/>
        <pt x="-22" y="280" on="1"/>
        <pt x="5" y="202" on="0"/>
        <pt x="93" y="137" on="0"/>
        <pt x="178" y="133" on="1"/>
        <pt x="243" y="130" on="1"/>
        <pt x="467" y="120" on="1"/>
        <pt x="467" y="134" on="1"/>
        <pt x="287" y="199" on="0"/>
        <pt x="192" y="283" on="1"/>
        <pt x="-26" y="474" on="0"/>
        <pt x="-26" y="749" on="1"/>
        <pt x="-26" y="1000" on="0"/>
        <pt x="170" y="1195" on="1"/>
        <pt x="361" y="1387" on="0"/>
        <pt x="684" y="1387" on="1"/>
        <pt x="1033" y="1387" on="0"/>
        <pt x="1228" y="1167" on="1"/>
        <pt x="1391" y="984" on="0"/>
        <pt x="1391" y="757" on="1"/>
        <pt x="1391" y="465" on="0"/>
        <pt x="1165" y="276" on="1"/>
        <pt x="1074" y="200" on="0"/>
        <pt x="899" y="134" on="1"/>
        <pt x="899" y="121" on="1"/>
        <pt x="1142" y="131" on="1"/>
        <pt x="1208" y="134" on="1"/>
        <pt x="1280" y="139" on="0"/>
        <pt x="1359" y="204" on="0"/>
        <pt x="1387" y="280" on="1"/>
      </contour>
    </TTGlyph>
    <TTGlyph name="Oslash" xMin="47" yMin="-24" xMax="1232" yMax="1379">
      <contour>
        <pt x="1014" y="1377" on="1"/>
        <pt x="939" y="1247" on="1"/>
        <pt x="1026" y="1174" on="0"/>
        <pt x="1137" y="868" on="0"/>
        <pt x="1137" y="701" on="1"/>
        <pt x="1137" y="414" on="0"/>
        <pt x="851" y="65" on="0"/>
        <pt x="615" y="65" on="1"/>
        <pt x="436" y="65" on="0"/>
        <pt x="297" y="168" on="1"/>
        <pt x="233" y="63" on="1"/>
        <pt x="138" y="63" on="1"/>
        <pt x="233" y="220" on="1"/>
        <pt x="47" y="401" on="0"/>
        <pt x="47" y="728" on="1"/>
        <pt x="47" y="1018" on="0"/>
        <pt x="351" y="1379" on="0"/>
        <pt x="596" y="1379" on="1"/>
        <pt x="756" y="1379" on="0"/>
        <pt x="875" y="1301" on="1"/>
        <pt x="918" y="1377" on="1"/>
      </contour>
      <contour>
        <pt x="891" y="1005" on="1"/>
        <pt x="451" y="270" on="1"/>
        <pt x="482" y="222" on="0"/>
        <pt x="526" y="188" on="1"/>
        <pt x="516" y="177" on="1"/>
        <pt x="454" y="219" on="0"/>
        <pt x="421" y="270" on="1"/>
        <pt x="882" y="1048" on="1"/>
        <pt x="875" y="1077" on="0"/>
        <pt x="859" y="1117" on="1"/>
        <pt x="358" y="270" on="1"/>
        <pt x="444" y="149" on="0"/>
        <pt x="602" y="149" on="1"/>
        <pt x="756" y="149" on="0"/>
        <pt x="915" y="436" on="0"/>
        <pt x="915" y="714" on="1"/>
        <pt x="915" y="875" on="0"/>
      </contour>
      <contour>
        <pt x="787" y="1156" on="1"/>
        <pt x="726" y="1207" on="0"/>
        <pt x="633" y="1207" on="1"/>
        <pt x="359" y="1207" on="0"/>
        <pt x="359" y="688" on="1"/>
        <pt x="359" y="553" on="0"/>
        <pt x="378" y="464" on="1"/>
      </contour>
      <contour>
        <pt x="813" y="1196" on="1"/>
        <pt x="734" y="1294" on="0"/>
        <pt x="598" y="1294" on="1"/>
        <pt x="266" y="1294" on="0"/>
        <pt x="266" y="706" on="1"/>
        <pt x="266" y="464" on="0"/>
        <pt x="314" y="357" on="1"/>
        <pt x="355" y="427" on="1"/>
        <pt x="353" y="441" on="1"/>
        <pt x="330" y="575" on="0"/>
        <pt x="330" y="686" on="1"/>
        <pt x="330" y="1232" on="0"/>
        <pt x="624" y="1232" on="1"/>
        <pt x="717" y="1232" on="0"/>
        <pt x="796" y="1168" on="1"/>
      </contour>
      <contour>
        <pt x="1068" y="1358" on="1"/>
        <pt x="1087" y="1336" on="1"/>
        <pt x="1034" y="1247" on="1"/>
        <pt x="1232" y="1050" on="0"/>
        <pt x="1232" y="694" on="1"/>
        <pt x="1232" y="383" on="0"/>
        <pt x="898" y="-12" on="0"/>
        <pt x="635" y="-12" on="1"/>
        <pt x="483" y="-12" on="0"/>
        <pt x="340" y="85" on="1"/>
        <pt x="277" y="-24" on="1"/>
        <pt x="87" y="-24" on="1"/>
        <pt x="104" y="4" on="1"/>
        <pt x="261" y="4" on="1"/>
        <pt x="322" y="107" on="1"/>
        <pt x="490" y="16" on="0"/>
        <pt x="624" y="16" on="1"/>
        <pt x="883" y="16" on="0"/>
        <pt x="1206" y="396" on="0"/>
        <pt x="1206" y="700" on="1"/>
        <pt x="1206" y="871" on="0"/>
        <pt x="1098" y="1161" on="0"/>
        <pt x="1003" y="1247" on="1"/>
      </contour>
    </TTGlyph>
    <TTGlyph name="Otilde" xMin="48" yMin="-13" xMax="1230" yMax="1779">
      <component glyphName="O" x="0" y="0" flags="0x14"/>
      <component glyphName="glyph196" x="0" y="0" flags="0x14"/>
    </TTGlyph>
    <TTGlyph name="P" xMin="7" yMin="0" xMax="1191" yMax="1365">
      <contour>
        <pt x="97" y="1365" on="1"/>
        <pt x="546" y="1365" on="1"/>
        <pt x="832" y="1365" on="0"/>
        <pt x="953" y="1286" on="1"/>
        <pt x="1107" y="1187" on="0"/>
        <pt x="1107" y="1011" on="1"/>
        <pt x="1107" y="904" on="0"/>
        <pt x="989" y="746" on="0"/>
        <pt x="883" y="711" on="1"/>
        <pt x="777" y="676" on="0"/>
        <pt x="546" y="676" on="1"/>
        <pt x="423" y="676" on="1"/>
        <pt x="423" y="192" on="1"/>
        <pt x="545" y="82" on="1"/>
        <pt x="80" y="82" on="1"/>
        <pt x="219" y="199" on="1"/>
        <pt x="219" y="600" on="1"/>
        <pt x="207" y="601" on="0"/>
        <pt x="202" y="601" on="1"/>
        <pt x="130" y="601" on="0"/>
        <pt x="64" y="570" on="1"/>
        <pt x="55" y="588" on="1"/>
        <pt x="122" y="626" on="0"/>
        <pt x="175" y="626" on="1"/>
        <pt x="211" y="626" on="1"/>
        <pt x="219" y="627" on="1"/>
        <pt x="219" y="676" on="1"/>
        <pt x="196" y="679" on="0"/>
        <pt x="188" y="679" on="1"/>
        <pt x="81" y="679" on="0"/>
        <pt x="17" y="627" on="1"/>
        <pt x="7" y="642" on="1"/>
        <pt x="68" y="754" on="0"/>
        <pt x="203" y="754" on="1"/>
        <pt x="219" y="754" on="1"/>
        <pt x="219" y="1244" on="1"/>
      </contour>
      <contour>
        <pt x="423" y="1262" on="1"/>
        <pt x="423" y="761" on="1"/>
        <pt x="436" y="761" on="1"/>
        <pt x="462" y="760" on="1"/>
        <pt x="466" y="760" on="0"/>
        <pt x="475" y="761" on="1"/>
        <pt x="475" y="1207" on="1"/>
        <pt x="585" y="1207" on="1"/>
        <pt x="713" y="1207" on="0"/>
        <pt x="818" y="1162" on="0"/>
        <pt x="855" y="1091" on="1"/>
        <pt x="818" y="1142" on="0"/>
        <pt x="707" y="1183" on="0"/>
        <pt x="606" y="1183" on="1"/>
        <pt x="503" y="1183" on="1"/>
        <pt x="503" y="761" on="1"/>
        <pt x="701" y="761" on="0"/>
        <pt x="886" y="877" on="0"/>
        <pt x="886" y="1001" on="1"/>
        <pt x="886" y="1140" on="0"/>
        <pt x="721" y="1266" on="0"/>
        <pt x="538" y="1266" on="1"/>
        <pt x="491" y="1266" on="0"/>
      </contour>
      <contour>
        <pt x="1056" y="1258" on="1"/>
        <pt x="1117" y="1228" on="0"/>
        <pt x="1191" y="1077" on="0"/>
        <pt x="1191" y="981" on="1"/>
        <pt x="1191" y="764" on="0"/>
        <pt x="1023" y="669" on="1"/>
        <pt x="896" y="597" on="0"/>
        <pt x="589" y="597" on="1"/>
        <pt x="538" y="597" on="0"/>
        <pt x="503" y="599" on="1"/>
        <pt x="503" y="186" on="1"/>
        <pt x="660" y="0" on="1"/>
        <pt x="159" y="0" on="1"/>
        <pt x="132" y="27" on="1"/>
        <pt x="603" y="27" on="1"/>
        <pt x="475" y="175" on="1"/>
        <pt x="475" y="626" on="1"/>
        <pt x="562" y="621" on="0"/>
        <pt x="660" y="621" on="1"/>
        <pt x="918" y="621" on="0"/>
        <pt x="1168" y="803" on="0"/>
        <pt x="1168" y="991" on="1"/>
        <pt x="1168" y="1069" on="0"/>
        <pt x="1120" y="1184" on="0"/>
      </contour>
    </TTGlyph>
    <TTGlyph name="Q" xMin="48" yMin="-191" xMax="1360" yMax="1389">
      <contour>
        <pt x="783" y="1189" on="1"/>
        <pt x="774" y="1193" on="0"/>
        <pt x="769" y="1195" on="1"/>
        <pt x="690" y="1231" on="0"/>
        <pt x="634" y="1231" on="1"/>
        <pt x="484" y="1231" on="0"/>
        <pt x="352" y="955" on="0"/>
        <pt x="352" y="642" on="1"/>
        <pt x="352" y="283" on="0"/>
        <pt x="554" y="164" on="1"/>
        <pt x="544" y="164" on="1"/>
        <pt x="438" y="196" on="0"/>
        <pt x="327" y="451" on="0"/>
        <pt x="327" y="661" on="1"/>
        <pt x="327" y="974" on="0"/>
        <pt x="465" y="1250" on="0"/>
        <pt x="622" y="1250" on="1"/>
        <pt x="717" y="1250" on="0"/>
        <pt x="783" y="1196" on="1"/>
      </contour>
      <contour>
        <pt x="910" y="164" on="1"/>
        <pt x="1000" y="72" on="0"/>
        <pt x="1126" y="72" on="1"/>
        <pt x="1194" y="72" on="0"/>
        <pt x="1278" y="110" on="1"/>
        <pt x="1285" y="106" on="1"/>
        <pt x="1238" y="41" on="0"/>
        <pt x="1208" y="-12" on="1"/>
        <pt x="1134" y="-145" on="1"/>
        <pt x="1130" y="-153" on="1"/>
        <pt x="965" y="-124" on="0"/>
        <pt x="843" y="24" on="1"/>
        <pt x="740" y="-24" on="0"/>
        <pt x="636" y="-24" on="1"/>
        <pt x="469" y="-24" on="0"/>
        <pt x="370" y="63" on="1"/>
        <pt x="374" y="70" on="1"/>
        <pt x="508" y="4" on="0"/>
        <pt x="622" y="4" on="1"/>
        <pt x="733" y="4" on="0"/>
        <pt x="825" y="44" on="1"/>
        <pt x="821" y="50" on="0"/>
        <pt x="819" y="53" on="1"/>
        <pt x="805" y="76" on="0"/>
        <pt x="792" y="88" on="1"/>
        <pt x="699" y="53" on="0"/>
        <pt x="600" y="53" on="1"/>
        <pt x="362" y="53" on="0"/>
        <pt x="48" y="436" on="0"/>
        <pt x="48" y="725" on="1"/>
        <pt x="48" y="1022" on="0"/>
        <pt x="355" y="1389" on="0"/>
        <pt x="605" y="1389" on="1"/>
        <pt x="848" y="1389" on="0"/>
        <pt x="1145" y="1027" on="0"/>
        <pt x="1145" y="731" on="1"/>
        <pt x="1145" y="551" on="0"/>
        <pt x="1042" y="296" on="0"/>
        <pt x="919" y="173" on="1"/>
      </contour>
      <contour>
        <pt x="858" y="314" on="1"/>
        <pt x="926" y="460" on="0"/>
        <pt x="926" y="739" on="1"/>
        <pt x="926" y="1309" on="0"/>
        <pt x="589" y="1309" on="1"/>
        <pt x="260" y="1309" on="0"/>
        <pt x="260" y="710" on="1"/>
        <pt x="260" y="441" on="0"/>
        <pt x="442" y="135" on="0"/>
        <pt x="601" y="135" on="1"/>
        <pt x="668" y="135" on="0"/>
        <pt x="731" y="164" on="1"/>
        <pt x="672" y="274" on="0"/>
        <pt x="574" y="274" on="1"/>
        <pt x="567" y="274" on="0"/>
        <pt x="550" y="272" on="1"/>
        <pt x="620" y="358" on="1"/>
        <pt x="693" y="337" on="0"/>
        <pt x="797" y="254" on="1"/>
        <pt x="809" y="244" on="1"/>
        <pt x="821" y="259" on="0"/>
        <pt x="837" y="282" on="1"/>
        <pt x="842" y="289" on="1"/>
        <pt x="775" y="354" on="0"/>
        <pt x="667" y="392" on="1"/>
        <pt x="681" y="415" on="1"/>
        <pt x="768" y="382" on="0"/>
        <pt x="845" y="324" on="1"/>
      </contour>
      <contour>
        <pt x="938" y="1317" on="1"/>
        <pt x="1077" y="1259" on="0"/>
        <pt x="1242" y="938" on="0"/>
        <pt x="1242" y="725" on="1"/>
        <pt x="1242" y="406" on="0"/>
        <pt x="1055" y="177" on="1"/>
        <pt x="1112" y="128" on="0"/>
        <pt x="1232" y="118" on="1"/>
        <pt x="1232" y="112" on="1"/>
        <pt x="1194" y="106" on="0"/>
        <pt x="1175" y="106" on="1"/>
        <pt x="1086" y="106" on="0"/>
        <pt x="1014" y="172" on="1"/>
        <pt x="1214" y="375" on="0"/>
        <pt x="1214" y="728" on="1"/>
        <pt x="1214" y="1113" on="0"/>
        <pt x="938" y="1311" on="1"/>
      </contour>
      <contour>
        <pt x="1360" y="60" on="1"/>
        <pt x="1279" y="-46" on="0"/>
        <pt x="1207" y="-180" on="1"/>
        <pt x="1201" y="-191" on="1"/>
        <pt x="1177" y="-179" on="1"/>
        <pt x="1211" y="-111" on="0"/>
        <pt x="1254" y="-48" on="1"/>
        <pt x="1332" y="66" on="1"/>
        <pt x="1337" y="74" on="1"/>
      </contour>
    </TTGlyph>
    <TTGlyph name="R" xMin="34" yMin="-145" xMax="1349" yMax="1382">
      <contour>
        <pt x="88" y="1245" on="1"/>
        <pt x="325" y="1382" on="0"/>
        <pt x="598" y="1382" on="1"/>
        <pt x="810" y="1382" on="0"/>
        <pt x="1085" y="1198" on="0"/>
        <pt x="1085" y="1056" on="1"/>
        <pt x="1085" y="940" on="0"/>
        <pt x="905" y="761" on="0"/>
        <pt x="749" y="721" on="1"/>
        <pt x="818" y="531" on="0"/>
        <pt x="1055" y="171" on="0"/>
        <pt x="1174" y="75" on="1"/>
        <pt x="1159" y="70" on="1"/>
        <pt x="1010" y="19" on="0"/>
        <pt x="867" y="-74" on="1"/>
        <pt x="852" y="-84" on="1"/>
        <pt x="847" y="-52" on="1"/>
        <pt x="783" y="335" on="0"/>
        <pt x="668" y="604" on="1"/>
        <pt x="664" y="614" on="1"/>
        <pt x="595" y="582" on="0"/>
        <pt x="479" y="563" on="1"/>
        <pt x="471" y="562" on="1"/>
        <pt x="471" y="188" on="1"/>
        <pt x="647" y="0" on="1"/>
        <pt x="130" y="0" on="1"/>
        <pt x="114" y="27" on="1"/>
        <pt x="590" y="27" on="1"/>
        <pt x="445" y="181" on="1"/>
        <pt x="445" y="584" on="1"/>
        <pt x="466" y="587" on="1"/>
        <pt x="580" y="599" on="0"/>
        <pt x="657" y="632" on="1"/>
        <pt x="651" y="644" on="0"/>
        <pt x="650" y="647" on="1"/>
        <pt x="640" y="676" on="1"/>
        <pt x="639" y="679" on="0"/>
        <pt x="635" y="688" on="1"/>
        <pt x="573" y="670" on="0"/>
        <pt x="401" y="649" on="1"/>
        <pt x="390" y="647" on="1"/>
        <pt x="390" y="201" on="1"/>
        <pt x="504" y="82" on="1"/>
        <pt x="62" y="82" on="1"/>
        <pt x="192" y="201" on="1"/>
        <pt x="192" y="537" on="1"/>
        <pt x="184" y="536" on="1"/>
        <pt x="126" y="523" on="0"/>
        <pt x="79" y="507" on="1"/>
        <pt x="71" y="504" on="1"/>
        <pt x="62" y="524" on="1"/>
        <pt x="106" y="541" on="0"/>
        <pt x="131" y="547" on="1"/>
        <pt x="184" y="560" on="1"/>
        <pt x="192" y="562" on="1"/>
        <pt x="192" y="614" on="1"/>
        <pt x="133" y="614" on="0"/>
        <pt x="45" y="588" on="1"/>
        <pt x="34" y="584" on="1"/>
        <pt x="36" y="598" on="0"/>
        <pt x="54" y="649" on="1"/>
        <pt x="56" y="653" on="0"/>
        <pt x="68" y="694" on="1"/>
        <pt x="69" y="697" on="0"/>
        <pt x="71" y="703" on="1"/>
        <pt x="116" y="700" on="0"/>
        <pt x="141" y="700" on="1"/>
        <pt x="168" y="700" on="0"/>
        <pt x="191" y="703" on="1"/>
        <pt x="191" y="1195" on="1"/>
        <pt x="145" y="1223" on="0"/>
        <pt x="96" y="1242" on="1"/>
      </contour>
      <contour>
        <pt x="390" y="1271" on="1"/>
        <pt x="390" y="732" on="1"/>
        <pt x="419" y="732" on="0"/>
        <pt x="445" y="737" on="1"/>
        <pt x="445" y="1229" on="1"/>
        <pt x="500" y="1244" on="0"/>
        <pt x="577" y="1244" on="1"/>
        <pt x="772" y="1244" on="0"/>
        <pt x="842" y="1116" on="1"/>
        <pt x="768" y="1176" on="0"/>
        <pt x="656" y="1221" on="0"/>
        <pt x="578" y="1221" on="1"/>
        <pt x="517" y="1221" on="0"/>
        <pt x="471" y="1209" on="1"/>
        <pt x="471" y="737" on="1"/>
        <pt x="482" y="739" on="1"/>
        <pt x="679" y="775" on="0"/>
        <pt x="870" y="930" on="0"/>
        <pt x="870" y="1054" on="1"/>
        <pt x="870" y="1165" on="0"/>
        <pt x="698" y="1310" on="0"/>
        <pt x="567" y="1310" on="1"/>
        <pt x="462" y="1310" on="0"/>
      </contour>
      <contour>
        <pt x="873" y="671" on="1"/>
        <pt x="936" y="465" on="0"/>
        <pt x="1096" y="268" on="1"/>
        <pt x="1196" y="145" on="0"/>
        <pt x="1349" y="47" on="1"/>
        <pt x="1120" y="-14" on="0"/>
        <pt x="919" y="-139" on="1"/>
        <pt x="910" y="-145" on="1"/>
        <pt x="890" y="-129" on="1"/>
        <pt x="1081" y="-4" on="0"/>
        <pt x="1297" y="55" on="1"/>
        <pt x="1009" y="247" on="0"/>
        <pt x="844" y="669" on="1"/>
        <pt x="838" y="686" on="1"/>
        <pt x="1144" y="802" on="0"/>
        <pt x="1144" y="1040" on="1"/>
        <pt x="1144" y="1138" on="0"/>
        <pt x="1065" y="1254" on="1"/>
        <pt x="1166" y="1162" on="0"/>
        <pt x="1166" y="1020" on="1"/>
        <pt x="1166" y="790" on="0"/>
      </contour>
    </TTGlyph>
    <TTGlyph name="S" xMin="-20" yMin="-22" xMax="1116" yMax="1387">
      <contour>
        <pt x="980" y="1354" on="1"/>
        <pt x="928" y="1284" on="0"/>
        <pt x="897" y="1208" on="1"/>
        <pt x="836" y="1058" on="0"/>
        <pt x="816" y="1024" on="1"/>
        <pt x="811" y="1018" on="1"/>
        <pt x="807" y="1029" on="0"/>
        <pt x="805" y="1035" on="1"/>
        <pt x="777" y="1125" on="0"/>
        <pt x="741" y="1195" on="0"/>
        <pt x="705" y="1227" on="1"/>
        <pt x="614" y="1308" on="0"/>
        <pt x="498" y="1308" on="1"/>
        <pt x="391" y="1308" on="0"/>
        <pt x="249" y="1189" on="0"/>
        <pt x="249" y="1099" on="1"/>
        <pt x="249" y="931" on="0"/>
        <pt x="502" y="870" on="1"/>
        <pt x="671" y="829" on="1"/>
        <pt x="1032" y="742" on="0"/>
        <pt x="1032" y="448" on="1"/>
        <pt x="1032" y="284" on="0"/>
        <pt x="785" y="61" on="0"/>
        <pt x="603" y="61" on="1"/>
        <pt x="489" y="61" on="0"/>
        <pt x="348" y="96" on="1"/>
        <pt x="231" y="125" on="1"/>
        <pt x="160" y="142" on="0"/>
        <pt x="114" y="142" on="1"/>
        <pt x="53" y="142" on="0"/>
        <pt x="-12" y="103" on="1"/>
        <pt x="-20" y="117" on="1"/>
        <pt x="104" y="304" on="0"/>
        <pt x="154" y="473" on="1"/>
        <pt x="172" y="468" on="1"/>
        <pt x="193" y="311" on="0"/>
        <pt x="403" y="137" on="0"/>
        <pt x="573" y="137" on="1"/>
        <pt x="707" y="137" on="0"/>
        <pt x="865" y="261" on="0"/>
        <pt x="865" y="366" on="1"/>
        <pt x="865" y="487" on="0"/>
        <pt x="755" y="566" on="1"/>
        <pt x="676" y="622" on="0"/>
        <pt x="431" y="670" on="1"/>
        <pt x="242" y="707" on="0"/>
        <pt x="72" y="879" on="0"/>
        <pt x="72" y="1032" on="1"/>
        <pt x="72" y="1190" on="0"/>
        <pt x="299" y="1387" on="0"/>
        <pt x="481" y="1387" on="1"/>
        <pt x="598" y="1387" on="0"/>
        <pt x="754" y="1345" on="1"/>
        <pt x="827" y="1325" on="0"/>
        <pt x="862" y="1325" on="1"/>
        <pt x="911" y="1325" on="0"/>
        <pt x="969" y="1359" on="1"/>
      </contour>
      <contour>
        <pt x="1042" y="1312" on="1"/>
        <pt x="1033" y="1297" on="1"/>
        <pt x="992" y="1228" on="0"/>
        <pt x="963" y="1165" on="1"/>
        <pt x="893" y="1018" on="0"/>
        <pt x="884" y="1001" on="1"/>
        <pt x="879" y="994" on="1"/>
        <pt x="855" y="1004" on="1"/>
        <pt x="859" y="1013" on="1"/>
        <pt x="888" y="1079" on="0"/>
        <pt x="943" y="1185" on="1"/>
        <pt x="1011" y="1317" on="1"/>
        <pt x="1016" y="1325" on="1"/>
      </contour>
      <contour>
        <pt x="750" y="1113" on="1"/>
        <pt x="640" y="1230" on="0"/>
        <pt x="514" y="1230" on="1"/>
        <pt x="438" y="1230" on="0"/>
        <pt x="338" y="1142" on="0"/>
        <pt x="338" y="1074" on="1"/>
        <pt x="338" y="1000" on="0"/>
        <pt x="439" y="922" on="1"/>
        <pt x="447" y="917" on="1"/>
        <pt x="442" y="909" on="1"/>
        <pt x="310" y="968" on="0"/>
        <pt x="310" y="1080" on="1"/>
        <pt x="310" y="1158" on="0"/>
        <pt x="422" y="1256" on="0"/>
        <pt x="512" y="1256" on="1"/>
        <pt x="598" y="1256" on="0"/>
        <pt x="727" y="1183" on="0"/>
        <pt x="757" y="1117" on="1"/>
      </contour>
      <contour>
        <pt x="980" y="716" on="1"/>
        <pt x="1116" y="613" on="0"/>
        <pt x="1116" y="434" on="1"/>
        <pt x="1116" y="243" on="0"/>
        <pt x="820" y="-22" on="0"/>
        <pt x="608" y="-22" on="1"/>
        <pt x="500" y="-22" on="0"/>
        <pt x="413" y="0" on="1"/>
        <pt x="253" y="39" on="1"/>
        <pt x="197" y="53" on="0"/>
        <pt x="133" y="53" on="1"/>
        <pt x="76" y="53" on="0"/>
        <pt x="28" y="30" on="1"/>
        <pt x="16" y="59" on="1"/>
        <pt x="68" y="83" on="0"/>
        <pt x="122" y="83" on="1"/>
        <pt x="182" y="83" on="0"/>
        <pt x="259" y="65" on="1"/>
        <pt x="413" y="28" on="1"/>
        <pt x="505" y="6" on="0"/>
        <pt x="607" y="6" on="1"/>
        <pt x="807" y="6" on="0"/>
        <pt x="1088" y="261" on="0"/>
        <pt x="1088" y="442" on="1"/>
        <pt x="1088" y="595" on="0"/>
        <pt x="980" y="710" on="1"/>
      </contour>
      <contour>
        <pt x="268" y="428" on="1"/>
        <pt x="305" y="248" on="0"/>
        <pt x="466" y="173" on="1"/>
        <pt x="466" y="165" on="1"/>
        <pt x="280" y="219" on="0"/>
        <pt x="241" y="423" on="1"/>
      </contour>
      <contour>
        <pt x="143" y="752" on="1"/>
        <pt x="177" y="733" on="1"/>
        <pt x="210" y="674" on="0"/>
        <pt x="370" y="635" on="1"/>
        <pt x="531" y="595" on="1"/>
        <pt x="695" y="554" on="0"/>
        <pt x="804" y="495" on="0"/>
        <pt x="827" y="435" on="1"/>
        <pt x="820" y="431" on="1"/>
        <pt x="775" y="483" on="0"/>
        <pt x="670" y="531" on="0"/>
        <pt x="521" y="566" on="1"/>
        <pt x="305" y="616" on="0"/>
        <pt x="157" y="689" on="0"/>
      </contour>
    </TTGlyph>
    <TTGlyph name="Scaron" xMin="-20" yMin="-22" xMax="1116" yMax="1767">
      <component glyphName="S" x="0" y="0" flags="0x14"/>
      <component glyphName="glyph197" x="0" y="0" flags="0x14"/>
    </TTGlyph>
    <TTGlyph name="T" xMin="-48" yMin="0" xMax="1219" yMax="1365">
      <contour>
        <pt x="1156" y="1365" on="1"/>
        <pt x="1147" y="1348" on="0"/>
        <pt x="1144" y="1342" on="1"/>
        <pt x="1076" y="1222" on="1"/>
        <pt x="1041" y="1158" on="0"/>
        <pt x="1011" y="1062" on="1"/>
        <pt x="1009" y="1057" on="1"/>
        <pt x="999" y="1064" on="1"/>
        <pt x="996" y="1077" on="1"/>
        <pt x="967" y="1191" on="0"/>
        <pt x="860" y="1279" on="0"/>
        <pt x="750" y="1279" on="1"/>
        <pt x="705" y="1279" on="0"/>
        <pt x="660" y="1275" on="1"/>
        <pt x="648" y="1275" on="1"/>
        <pt x="648" y="191" on="1"/>
        <pt x="766" y="82" on="1"/>
        <pt x="309" y="82" on="1"/>
        <pt x="449" y="199" on="1"/>
        <pt x="449" y="1194" on="1"/>
        <pt x="378" y="1195" on="1"/>
        <pt x="275" y="1195" on="0"/>
        <pt x="188" y="1114" on="0"/>
        <pt x="180" y="1012" on="1"/>
        <pt x="154" y="1012" on="1"/>
        <pt x="165" y="1129" on="0"/>
        <pt x="264" y="1221" on="0"/>
        <pt x="378" y="1221" on="1"/>
        <pt x="438" y="1220" on="1"/>
        <pt x="449" y="1220" on="1"/>
        <pt x="449" y="1269" on="1"/>
        <pt x="398" y="1275" on="0"/>
        <pt x="352" y="1275" on="1"/>
        <pt x="223" y="1275" on="0"/>
        <pt x="109" y="1170" on="0"/>
        <pt x="103" y="1045" on="1"/>
        <pt x="91" y="1045" on="1"/>
        <pt x="48" y="1184" on="0"/>
        <pt x="-42" y="1355" on="1"/>
        <pt x="-48" y="1365" on="1"/>
      </contour>
      <contour>
        <pt x="1219" y="1302" on="1"/>
        <pt x="1150" y="1214" on="0"/>
        <pt x="1074" y="1010" on="1"/>
        <pt x="1070" y="1000" on="1"/>
        <pt x="1048" y="1019" on="1"/>
        <pt x="1051" y="1028" on="1"/>
        <pt x="1125" y="1235" on="0"/>
        <pt x="1194" y="1316" on="1"/>
        <pt x="1199" y="1322" on="1"/>
      </contour>
      <contour>
        <pt x="952" y="1146" on="1"/>
        <pt x="875" y="1196" on="0"/>
        <pt x="772" y="1196" on="1"/>
        <pt x="749" y="1196" on="0"/>
        <pt x="724" y="1193" on="1"/>
        <pt x="728" y="188" on="1"/>
        <pt x="887" y="0" on="1"/>
        <pt x="376" y="0" on="1"/>
        <pt x="353" y="27" on="1"/>
        <pt x="832" y="27" on="1"/>
        <pt x="698" y="180" on="1"/>
        <pt x="698" y="1222" on="1"/>
        <pt x="752" y="1223" on="1"/>
        <pt x="849" y="1223" on="0"/>
        <pt x="930" y="1192" on="0"/>
      </contour>
    </TTGlyph>
    <TTGlyph name="Thorn" xMin="7" yMin="0" xMax="1164" yMax="1365">
      <contour>
        <pt x="557" y="1365" on="1"/>
        <pt x="423" y="1229" on="1"/>
        <pt x="423" y="1092" on="1"/>
        <pt x="475" y="1092" on="1"/>
        <pt x="475" y="1217" on="1"/>
        <pt x="588" y="1328" on="1"/>
        <pt x="605" y="1308" on="1"/>
        <pt x="503" y="1207" on="1"/>
        <pt x="503" y="1092" on="1"/>
        <pt x="546" y="1092" on="1"/>
        <pt x="818" y="1092" on="0"/>
        <pt x="933" y="1013" on="1"/>
        <pt x="1079" y="914" on="0"/>
        <pt x="1079" y="738" on="1"/>
        <pt x="1079" y="631" on="0"/>
        <pt x="967" y="473" on="0"/>
        <pt x="867" y="438" on="1"/>
        <pt x="766" y="403" on="0"/>
        <pt x="546" y="403" on="1"/>
        <pt x="423" y="403" on="1"/>
        <pt x="423" y="192" on="1"/>
        <pt x="541" y="82" on="1"/>
        <pt x="80" y="82" on="1"/>
        <pt x="219" y="199" on="1"/>
        <pt x="219" y="327" on="1"/>
        <pt x="206" y="328" on="0"/>
        <pt x="202" y="328" on="1"/>
        <pt x="130" y="328" on="0"/>
        <pt x="64" y="297" on="1"/>
        <pt x="55" y="315" on="1"/>
        <pt x="122" y="353" on="0"/>
        <pt x="175" y="353" on="1"/>
        <pt x="211" y="353" on="1"/>
        <pt x="219" y="354" on="1"/>
        <pt x="219" y="403" on="1"/>
        <pt x="196" y="406" on="0"/>
        <pt x="188" y="406" on="1"/>
        <pt x="80" y="406" on="0"/>
        <pt x="17" y="354" on="1"/>
        <pt x="7" y="369" on="1"/>
        <pt x="69" y="481" on="0"/>
        <pt x="203" y="481" on="1"/>
        <pt x="219" y="481" on="1"/>
        <pt x="219" y="1240" on="1"/>
        <pt x="80" y="1365" on="1"/>
      </contour>
      <contour>
        <pt x="423" y="989" on="1"/>
        <pt x="423" y="488" on="1"/>
        <pt x="436" y="488" on="1"/>
        <pt x="462" y="487" on="1"/>
        <pt x="465" y="487" on="0"/>
        <pt x="475" y="488" on="1"/>
        <pt x="475" y="934" on="1"/>
        <pt x="585" y="934" on="1"/>
        <pt x="699" y="934" on="0"/>
        <pt x="794" y="889" on="0"/>
        <pt x="828" y="818" on="1"/>
        <pt x="795" y="869" on="0"/>
        <pt x="695" y="910" on="0"/>
        <pt x="606" y="910" on="1"/>
        <pt x="503" y="910" on="1"/>
        <pt x="503" y="488" on="1"/>
        <pt x="687" y="488" on="0"/>
        <pt x="858" y="604" on="0"/>
        <pt x="858" y="729" on="1"/>
        <pt x="858" y="868" on="0"/>
        <pt x="707" y="993" on="0"/>
        <pt x="537" y="993" on="1"/>
        <pt x="491" y="993" on="0"/>
      </contour>
      <contour>
        <pt x="1029" y="985" on="1"/>
        <pt x="1090" y="955" on="0"/>
        <pt x="1164" y="804" on="0"/>
        <pt x="1164" y="708" on="1"/>
        <pt x="1164" y="491" on="0"/>
        <pt x="1005" y="396" on="1"/>
        <pt x="882" y="324" on="0"/>
        <pt x="589" y="324" on="1"/>
        <pt x="538" y="324" on="0"/>
        <pt x="503" y="326" on="1"/>
        <pt x="503" y="186" on="1"/>
        <pt x="660" y="0" on="1"/>
        <pt x="159" y="0" on="1"/>
        <pt x="132" y="27" on="1"/>
        <pt x="603" y="27" on="1"/>
        <pt x="475" y="175" on="1"/>
        <pt x="475" y="353" on="1"/>
        <pt x="557" y="347" on="0"/>
        <pt x="651" y="347" on="1"/>
        <pt x="903" y="347" on="0"/>
        <pt x="1141" y="527" on="0"/>
        <pt x="1141" y="718" on="1"/>
        <pt x="1141" y="796" on="0"/>
        <pt x="1093" y="910" on="0"/>
      </contour>
    </TTGlyph>
    <TTGlyph name="U" xMin="34" yMin="-23" xMax="1223" yMax="1365">
      <contour>
        <pt x="1189" y="1365" on="1"/>
        <pt x="1010" y="1222" on="1"/>
        <pt x="1010" y="576" on="1"/>
        <pt x="1010" y="398" on="0"/>
        <pt x="987" y="242" on="0"/>
        <pt x="953" y="192" on="1"/>
        <pt x="867" y="64" on="0"/>
        <pt x="619" y="64" on="1"/>
        <pt x="357" y="64" on="0"/>
        <pt x="253" y="192" on="1"/>
        <pt x="170" y="293" on="0"/>
        <pt x="170" y="579" on="1"/>
        <pt x="170" y="1243" on="1"/>
        <pt x="34" y="1365" on="1"/>
        <pt x="506" y="1365" on="1"/>
        <pt x="370" y="1232" on="1"/>
        <pt x="370" y="578" on="1"/>
        <pt x="372" y="424" on="1"/>
        <pt x="372" y="275" on="0"/>
        <pt x="496" y="150" on="0"/>
        <pt x="643" y="150" on="1"/>
        <pt x="805" y="150" on="0"/>
        <pt x="866" y="245" on="1"/>
        <pt x="915" y="322" on="0"/>
        <pt x="915" y="575" on="1"/>
        <pt x="919" y="1222" on="1"/>
        <pt x="763" y="1365" on="1"/>
      </contour>
      <contour>
        <pt x="1223" y="1297" on="1"/>
        <pt x="1087" y="1184" on="1"/>
        <pt x="1087" y="563" on="1"/>
        <pt x="1087" y="258" on="0"/>
        <pt x="1039" y="165" on="1"/>
        <pt x="941" y="-23" on="0"/>
        <pt x="656" y="-23" on="1"/>
        <pt x="410" y="-23" on="0"/>
        <pt x="286" y="100" on="1"/>
        <pt x="294" y="96" on="1"/>
        <pt x="329" y="76" on="1"/>
        <pt x="452" y="4" on="0"/>
        <pt x="645" y="4" on="1"/>
        <pt x="921" y="4" on="0"/>
        <pt x="1011" y="178" on="1"/>
        <pt x="1059" y="272" on="0"/>
        <pt x="1059" y="556" on="1"/>
        <pt x="1059" y="1196" on="1"/>
        <pt x="1208" y="1318" on="1"/>
      </contour>
      <contour>
        <pt x="548" y="1311" on="1"/>
        <pt x="450" y="1212" on="1"/>
        <pt x="450" y="469" on="1"/>
        <pt x="449" y="400" on="1"/>
        <pt x="480" y="273" on="1"/>
        <pt x="503" y="235" on="0"/>
        <pt x="567" y="181" on="1"/>
        <pt x="569" y="172" on="1"/>
        <pt x="485" y="206" on="0"/>
        <pt x="421" y="336" on="0"/>
        <pt x="421" y="472" on="1"/>
        <pt x="421" y="1222" on="1"/>
        <pt x="534" y="1332" on="1"/>
      </contour>
    </TTGlyph>
    <TTGlyph name="Uacute" xMin="34" yMin="-23" xMax="1223" yMax="1764">
      <component glyphName="U" x="0" y="0" flags="0x14"/>
      <component glyphName="glyph199" x="0" y="0" flags="0x14"/>
    </TTGlyph>
    <TTGlyph name="Ucircumflex" xMin="34" yMin="-23" xMax="1223" yMax="1767">
      <component glyphName="U" x="0" y="0" flags="0x14"/>
      <component glyphName="glyph201" x="0" y="0" flags="0x14"/>
    </TTGlyph>
    <TTGlyph name="Udieresis" xMin="34" yMin="-23" xMax="1223" yMax="1765">
      <component glyphName="U" x="0" y="0" flags="0x14"/>
      <component glyphName="glyph198" x="0" y="0" flags="0x14"/>
    </TTGlyph>
    <TTGlyph name="Ugrave" xMin="34" yMin="-23" xMax="1223" yMax="1762">
      <component glyphName="U" x="0" y="0" flags="0x14"/>
      <component glyphName="glyph200" x="0" y="0" flags="0x14"/>
    </TTGlyph>
    <TTGlyph name="V" xMin="-48" yMin="0" xMax="1439" yMax="1681">
      <contour>
        <pt x="1376" y="1681" on="1"/>
        <pt x="1387" y="1670" on="1"/>
        <pt x="1256" y="1544" on="0"/>
        <pt x="1090" y="1256" on="0"/>
        <pt x="974" y="950" on="1"/>
        <pt x="682" y="186" on="1"/>
        <pt x="801" y="82" on="1"/>
        <pt x="340" y="82" on="1"/>
        <pt x="472" y="191" on="1"/>
        <pt x="106" y="1233" on="1"/>
        <pt x="-48" y="1365" on="1"/>
        <pt x="448" y="1365" on="1"/>
        <pt x="307" y="1224" on="1"/>
        <pt x="637" y="285" on="1"/>
        <pt x="676" y="378" on="1"/>
        <pt x="381" y="1210" on="1"/>
        <pt x="483" y="1311" on="1"/>
        <pt x="501" y="1292" on="1"/>
        <pt x="412" y="1204" on="1"/>
        <pt x="689" y="413" on="1"/>
        <pt x="901" y="979" on="1"/>
        <pt x="996" y="1231" on="0"/>
        <pt x="996" y="1332" on="1"/>
        <pt x="996" y="1434" on="0"/>
        <pt x="921" y="1507" on="1"/>
        <pt x="940" y="1511" on="1"/>
        <pt x="1231" y="1567" on="0"/>
      </contour>
      <contour>
        <pt x="1430" y="1620" on="1"/>
        <pt x="1439" y="1597" on="1"/>
        <pt x="1248" y="1448" on="0"/>
        <pt x="1045" y="917" on="1"/>
        <pt x="763" y="182" on="1"/>
        <pt x="919" y="0" on="1"/>
        <pt x="403" y="0" on="1"/>
        <pt x="381" y="27" on="1"/>
        <pt x="860" y="27" on="1"/>
        <pt x="734" y="175" on="1"/>
        <pt x="1021" y="924" on="1"/>
        <pt x="1075" y="1066" on="1"/>
        <pt x="1147" y="1250" on="0"/>
        <pt x="1343" y="1555" on="0"/>
      </contour>
    </TTGlyph>
    <TTGlyph name="W" xMin="-61" yMin="0" xMax="1790" yMax="1722">
      <contour>
        <pt x="1730" y="1708" on="1"/>
        <pt x="1591" y="1555" on="0"/>
        <pt x="1450" y="1251" on="0"/>
        <pt x="1354" y="900" on="1"/>
        <pt x="1181" y="270" on="1"/>
        <pt x="1201" y="192" on="1"/>
        <pt x="1324" y="82" on="1"/>
        <pt x="868" y="82" on="1"/>
        <pt x="999" y="192" on="1"/>
        <pt x="822" y="833" on="1"/>
        <pt x="650" y="206" on="1"/>
        <pt x="822" y="0" on="1"/>
        <pt x="311" y="0" on="1"/>
        <pt x="291" y="27" on="1"/>
        <pt x="767" y="27" on="1"/>
        <pt x="617" y="200" on="1"/>
        <pt x="806" y="884" on="1"/>
        <pt x="773" y="1003" on="1"/>
        <pt x="568" y="254" on="1"/>
        <pt x="584" y="192" on="1"/>
        <pt x="701" y="82" on="1"/>
        <pt x="244" y="82" on="1"/>
        <pt x="380" y="192" on="1"/>
        <pt x="89" y="1239" on="1"/>
        <pt x="-61" y="1365" on="1"/>
        <pt x="428" y="1365" on="1"/>
        <pt x="291" y="1239" on="1"/>
        <pt x="520" y="415" on="1"/>
        <pt x="555" y="536" on="1"/>
        <pt x="362" y="1224" on="1"/>
        <pt x="453" y="1305" on="1"/>
        <pt x="476" y="1289" on="1"/>
        <pt x="393" y="1215" on="1"/>
        <pt x="568" y="586" on="1"/>
        <pt x="782" y="1365" on="1"/>
        <pt x="876" y="1365" on="1"/>
        <pt x="1136" y="423" on="1"/>
        <pt x="1168" y="536" on="1"/>
        <pt x="938" y="1365" on="1"/>
        <pt x="966" y="1365" on="1"/>
        <pt x="1181" y="586" on="1"/>
        <pt x="1275" y="924" on="1"/>
        <pt x="1363" y="1242" on="0"/>
        <pt x="1363" y="1338" on="1"/>
        <pt x="1363" y="1445" on="0"/>
        <pt x="1263" y="1506" on="1"/>
        <pt x="1380" y="1543" on="0"/>
        <pt x="1648" y="1671" on="0"/>
        <pt x="1714" y="1722" on="1"/>
      </contour>
      <contour>
        <pt x="1790" y="1632" on="1"/>
        <pt x="1670" y="1500" on="0"/>
        <pt x="1515" y="1168" on="0"/>
        <pt x="1434" y="870" on="1"/>
        <pt x="1257" y="224" on="1"/>
        <pt x="1449" y="0" on="1"/>
        <pt x="936" y="0" on="1"/>
        <pt x="913" y="27" on="1"/>
        <pt x="1388" y="27" on="1"/>
        <pt x="1226" y="214" on="1"/>
        <pt x="1410" y="884" on="1"/>
        <pt x="1492" y="1182" on="0"/>
        <pt x="1642" y="1503" on="0"/>
        <pt x="1767" y="1649" on="1"/>
      </contour>
    </TTGlyph>
    <TTGlyph name="X" xMin="-48" yMin="0" xMax="1422" yMax="1365">
      <contour>
        <pt x="1275" y="1365" on="1"/>
        <pt x="1055" y="1221" on="1"/>
        <pt x="735" y="814" on="1"/>
        <pt x="1101" y="213" on="1"/>
        <pt x="1275" y="82" on="1"/>
        <pt x="759" y="82" on="1"/>
        <pt x="886" y="205" on="1"/>
        <pt x="658" y="577" on="1"/>
        <pt x="376" y="213" on="1"/>
        <pt x="540" y="0" on="1"/>
        <pt x="-7" y="0" on="1"/>
        <pt x="-22" y="27" on="1"/>
        <pt x="487" y="27" on="1"/>
        <pt x="344" y="213" on="1"/>
        <pt x="644" y="602" on="1"/>
        <pt x="616" y="646" on="1"/>
        <pt x="289" y="232" on="1"/>
        <pt x="411" y="82" on="1"/>
        <pt x="-48" y="82" on="1"/>
        <pt x="186" y="232" on="1"/>
        <pt x="573" y="722" on="1"/>
        <pt x="261" y="1231" on="1"/>
        <pt x="71" y="1365" on="1"/>
        <pt x="599" y="1365" on="1"/>
        <pt x="468" y="1251" on="1"/>
        <pt x="691" y="887" on="1"/>
        <pt x="727" y="933" on="1"/>
        <pt x="540" y="1231" on="1"/>
        <pt x="651" y="1337" on="1"/>
        <pt x="669" y="1320" on="1"/>
        <pt x="573" y="1231" on="1"/>
        <pt x="743" y="953" on="1"/>
        <pt x="960" y="1231" on="1"/>
        <pt x="835" y="1365" on="1"/>
      </contour>
      <contour>
        <pt x="1311" y="1289" on="1"/>
        <pt x="1116" y="1174" on="1"/>
        <pt x="833" y="807" on="1"/>
        <pt x="1178" y="237" on="1"/>
        <pt x="1422" y="0" on="1"/>
        <pt x="801" y="0" on="1"/>
        <pt x="783" y="27" on="1"/>
        <pt x="1358" y="27" on="1"/>
        <pt x="1155" y="224" on="1"/>
        <pt x="801" y="807" on="1"/>
        <pt x="1098" y="1191" on="1"/>
        <pt x="1296" y="1309" on="1"/>
      </contour>
    </TTGlyph>
    <TTGlyph name="Y" xMin="-48" yMin="0" xMax="1484" yMax="1717">
      <contour>
        <pt x="1439" y="1717" on="1"/>
        <pt x="1445" y="1709" on="1"/>
        <pt x="1435" y="1698" on="1"/>
        <pt x="1256" y="1512" on="0"/>
        <pt x="1140" y="1320" on="1"/>
        <pt x="1095" y="1247" on="0"/>
        <pt x="1076" y="1216" on="1"/>
        <pt x="704" y="621" on="1"/>
        <pt x="704" y="215" on="1"/>
        <pt x="849" y="82" on="1"/>
        <pt x="362" y="82" on="1"/>
        <pt x="506" y="215" on="1"/>
        <pt x="506" y="621" on="1"/>
        <pt x="266" y="990" on="1"/>
        <pt x="214" y="1073" on="1"/>
        <pt x="143" y="1184" on="0"/>
        <pt x="52" y="1286" on="0"/>
        <pt x="-37" y="1356" on="1"/>
        <pt x="-48" y="1365" on="1"/>
        <pt x="457" y="1365" on="1"/>
        <pt x="333" y="1236" on="1"/>
        <pt x="666" y="734" on="1"/>
        <pt x="698" y="785" on="1"/>
        <pt x="401" y="1236" on="1"/>
        <pt x="506" y="1336" on="1"/>
        <pt x="527" y="1320" on="1"/>
        <pt x="436" y="1236" on="1"/>
        <pt x="713" y="809" on="1"/>
        <pt x="937" y="1162" on="1"/>
        <pt x="1034" y="1316" on="0"/>
        <pt x="1034" y="1392" on="1"/>
        <pt x="1034" y="1456" on="0"/>
        <pt x="949" y="1538" on="1"/>
        <pt x="1240" y="1608" on="0"/>
        <pt x="1427" y="1711" on="1"/>
      </contour>
      <contour>
        <pt x="1484" y="1657" on="1"/>
        <pt x="1484" y="1616" on="1"/>
        <pt x="1474" y="1606" on="1"/>
        <pt x="1390" y="1526" on="0"/>
        <pt x="1269" y="1366" on="0"/>
        <pt x="1150" y="1177" on="1"/>
        <pt x="788" y="607" on="1"/>
        <pt x="788" y="215" on="1"/>
        <pt x="966" y="0" on="1"/>
        <pt x="340" y="0" on="1"/>
        <pt x="328" y="27" on="1"/>
        <pt x="913" y="27" on="1"/>
        <pt x="761" y="215" on="1"/>
        <pt x="761" y="614" on="1"/>
        <pt x="1130" y="1196" on="1"/>
        <pt x="1188" y="1288" on="1"/>
        <pt x="1343" y="1535" on="0"/>
      </contour>
    </TTGlyph>
    <TTGlyph name="Yacute" xMin="-48" yMin="0" xMax="1484" yMax="1764">
      <component glyphName="Y" x="0" y="0" flags="0x14"/>
      <component glyphName="glyph202" x="0" y="0" flags="0x14"/>
    </TTGlyph>
    <TTGlyph name="Ydieresis" xMin="-48" yMin="0" xMax="1484" yMax="1765">
      <contour>
        <pt x="-48" y="1365" on="1"/>
        <pt x="457" y="1365" on="1"/>
        <pt x="333" y="1236" on="1"/>
        <pt x="666" y="734" on="1"/>
        <pt x="698" y="785" on="1"/>
        <pt x="401" y="1236" on="1"/>
        <pt x="506" y="1336" on="1"/>
        <pt x="527" y="1320" on="1"/>
        <pt x="436" y="1236" on="1"/>
        <pt x="713" y="809" on="1"/>
        <pt x="937" y="1162" on="1"/>
        <pt x="1034" y="1316" on="0"/>
        <pt x="1034" y="1392" on="1"/>
        <pt x="1034" y="1448" on="0"/>
        <pt x="964" y="1524" on="1"/>
        <pt x="925" y="1496" on="0"/>
        <pt x="886" y="1496" on="1"/>
        <pt x="827" y="1496" on="0"/>
        <pt x="792" y="1543" on="1"/>
        <pt x="792" y="1549" on="1"/>
        <pt x="839" y="1516" on="0"/>
        <pt x="873" y="1516" on="1"/>
        <pt x="922" y="1516" on="0"/>
        <pt x="992" y="1585" on="0"/>
        <pt x="992" y="1634" on="1"/>
        <pt x="992" y="1672" on="0"/>
        <pt x="954" y="1722" on="1"/>
        <pt x="1010" y="1696" on="0"/>
        <pt x="1010" y="1623" on="1"/>
        <pt x="1010" y="1582" on="0"/>
        <pt x="986" y="1547" on="1"/>
        <pt x="1251" y="1614" on="0"/>
        <pt x="1427" y="1711" on="1"/>
        <pt x="1439" y="1717" on="1"/>
        <pt x="1445" y="1709" on="1"/>
        <pt x="1435" y="1698" on="1"/>
        <pt x="1256" y="1512" on="0"/>
        <pt x="1140" y="1320" on="1"/>
        <pt x="1095" y="1247" on="0"/>
        <pt x="1076" y="1216" on="1"/>
        <pt x="704" y="621" on="1"/>
        <pt x="704" y="215" on="1"/>
        <pt x="849" y="82" on="1"/>
        <pt x="362" y="82" on="1"/>
        <pt x="506" y="215" on="1"/>
        <pt x="506" y="621" on="1"/>
        <pt x="266" y="990" on="1"/>
        <pt x="214" y="1073" on="1"/>
        <pt x="143" y="1184" on="0"/>
        <pt x="52" y="1286" on="0"/>
        <pt x="-37" y="1356" on="1"/>
      </contour>
      <contour>
        <pt x="1484" y="1657" on="1"/>
        <pt x="1484" y="1616" on="1"/>
        <pt x="1474" y="1606" on="1"/>
        <pt x="1390" y="1526" on="0"/>
        <pt x="1269" y="1366" on="0"/>
        <pt x="1150" y="1177" on="1"/>
        <pt x="788" y="607" on="1"/>
        <pt x="788" y="215" on="1"/>
        <pt x="966" y="0" on="1"/>
        <pt x="340" y="0" on="1"/>
        <pt x="328" y="27" on="1"/>
        <pt x="913" y="27" on="1"/>
        <pt x="761" y="215" on="1"/>
        <pt x="761" y="614" on="1"/>
        <pt x="1130" y="1196" on="1"/>
        <pt x="1188" y="1288" on="1"/>
        <pt x="1343" y="1535" on="0"/>
      </contour>
      <contour>
        <pt x="830" y="1765" on="1"/>
        <pt x="870" y="1765" on="0"/>
        <pt x="926" y="1709" on="0"/>
        <pt x="926" y="1669" on="1"/>
        <pt x="926" y="1629" on="0"/>
        <pt x="870" y="1573" on="0"/>
        <pt x="830" y="1573" on="1"/>
        <pt x="790" y="1573" on="0"/>
        <pt x="734" y="1629" on="0"/>
        <pt x="734" y="1669" on="1"/>
        <pt x="734" y="1709" on="0"/>
        <pt x="790" y="1765" on="0"/>
      </contour>
      <contour>
        <pt x="609" y="1722" on="1"/>
        <pt x="665" y="1696" on="0"/>
        <pt x="665" y="1623" on="1"/>
        <pt x="665" y="1569" on="0"/>
        <pt x="593" y="1496" on="0"/>
        <pt x="541" y="1496" on="1"/>
        <pt x="482" y="1496" on="0"/>
        <pt x="446" y="1543" on="1"/>
        <pt x="446" y="1550" on="1"/>
        <pt x="494" y="1516" on="0"/>
        <pt x="528" y="1516" on="1"/>
        <pt x="577" y="1516" on="0"/>
        <pt x="647" y="1585" on="0"/>
        <pt x="647" y="1634" on="1"/>
        <pt x="647" y="1673" on="0"/>
      </contour>
      <contour>
        <pt x="482" y="1765" on="1"/>
        <pt x="522" y="1765" on="0"/>
        <pt x="578" y="1709" on="0"/>
        <pt x="578" y="1669" on="1"/>
        <pt x="578" y="1629" on="0"/>
        <pt x="522" y="1573" on="0"/>
        <pt x="482" y="1573" on="1"/>
        <pt x="442" y="1573" on="0"/>
        <pt x="386" y="1629" on="0"/>
        <pt x="386" y="1669" on="1"/>
        <pt x="386" y="1709" on="0"/>
        <pt x="442" y="1765" on="0"/>
      </contour>
    </TTGlyph>
    <TTGlyph name="Z" xMin="34" yMin="0" xMax="1278" yMax="1365">
      <contour>
        <pt x="1132" y="1365" on="1"/>
        <pt x="330" y="167" on="1"/>
        <pt x="393" y="167" on="1"/>
        <pt x="1179" y="1343" on="1"/>
        <pt x="1197" y="1319" on="1"/>
        <pt x="427" y="167" on="1"/>
        <pt x="527" y="167" on="1"/>
        <pt x="606" y="169" on="1"/>
        <pt x="647" y="169" on="1"/>
        <pt x="729" y="169" on="0"/>
        <pt x="876" y="231" on="0"/>
        <pt x="914" y="281" on="1"/>
        <pt x="961" y="343" on="0"/>
        <pt x="994" y="418" on="1"/>
        <pt x="1078" y="198" on="0"/>
        <pt x="1172" y="82" on="1"/>
        <pt x="34" y="82" on="1"/>
        <pt x="775" y="1195" on="1"/>
        <pt x="755" y="1196" on="1"/>
        <pt x="627" y="1198" on="1"/>
        <pt x="445" y="1198" on="0"/>
        <pt x="307" y="1119" on="0"/>
        <pt x="276" y="996" on="1"/>
        <pt x="255" y="1019" on="1"/>
        <pt x="274" y="1104" on="0"/>
        <pt x="337" y="1160" on="1"/>
        <pt x="379" y="1198" on="0"/>
        <pt x="493" y="1223" on="0"/>
        <pt x="624" y="1223" on="1"/>
        <pt x="707" y="1223" on="0"/>
        <pt x="777" y="1220" on="1"/>
        <pt x="792" y="1219" on="1"/>
        <pt x="831" y="1276" on="1"/>
        <pt x="761" y="1281" on="0"/>
        <pt x="693" y="1281" on="1"/>
        <pt x="486" y="1281" on="0"/>
        <pt x="331" y="1245" on="0"/>
        <pt x="274" y="1185" on="1"/>
        <pt x="230" y="1138" on="0"/>
        <pt x="202" y="1058" on="1"/>
        <pt x="194" y="1075" on="1"/>
        <pt x="144" y="1190" on="0"/>
        <pt x="52" y="1354" on="1"/>
        <pt x="46" y="1365" on="1"/>
      </contour>
      <contour>
        <pt x="1278" y="90" on="1"/>
        <pt x="1227" y="0" on="1"/>
        <pt x="85" y="0" on="1"/>
        <pt x="64" y="27" on="1"/>
        <pt x="1211" y="27" on="1"/>
        <pt x="1247" y="90" on="1"/>
        <pt x="1132" y="230" on="0"/>
        <pt x="1066" y="408" on="1"/>
        <pt x="1100" y="395" on="1"/>
        <pt x="1151" y="244" on="0"/>
        <pt x="1270" y="99" on="1"/>
      </contour>
    </TTGlyph>
    <TTGlyph name="acute" xMin="445" yMin="1482" xMax="853" yMax="1764">
      <contour>
        <pt x="795" y="1764" on="1"/>
        <pt x="551" y="1566" on="1"/>
        <pt x="445" y="1566" on="1"/>
        <pt x="592" y="1764" on="1"/>
      </contour>
      <contour>
        <pt x="489" y="1482" on="1"/>
        <pt x="465" y="1510" on="1"/>
        <pt x="588" y="1510" on="1"/>
        <pt x="834" y="1709" on="1"/>
        <pt x="853" y="1685" on="1"/>
        <pt x="602" y="1482" on="1"/>
      </contour>
    </TTGlyph>
    <TTGlyph name="ampersand" xMin="136" yMin="1" xMax="1492" yMax="1408">
      <contour>
        <pt x="561" y="928" on="1"/>
        <pt x="534" y="1026" on="0"/>
        <pt x="534" y="1112" on="1"/>
        <pt x="534" y="1246" on="0"/>
        <pt x="668" y="1408" on="0"/>
        <pt x="778" y="1408" on="1"/>
        <pt x="880" y="1408" on="0"/>
        <pt x="1023" y="1274" on="0"/>
        <pt x="1023" y="1180" on="1"/>
        <pt x="1023" y="988" on="0"/>
        <pt x="750" y="902" on="1"/>
        <pt x="856" y="631" on="0"/>
        <pt x="973" y="462" on="1"/>
        <pt x="989" y="495" on="0"/>
        <pt x="998" y="537" on="1"/>
        <pt x="894" y="696" on="0"/>
        <pt x="827" y="864" on="1"/>
        <pt x="841" y="870" on="1"/>
        <pt x="1080" y="967" on="0"/>
        <pt x="1080" y="1162" on="1"/>
        <pt x="1080" y="1232" on="0"/>
        <pt x="1032" y="1310" on="1"/>
        <pt x="1024" y="1323" on="1"/>
        <pt x="1104" y="1253" on="0"/>
        <pt x="1104" y="1147" on="1"/>
        <pt x="1104" y="957" on="0"/>
        <pt x="862" y="846" on="1"/>
        <pt x="932" y="680" on="0"/>
        <pt x="1003" y="571" on="1"/>
        <pt x="1007" y="619" on="0"/>
        <pt x="1007" y="666" on="1"/>
        <pt x="1007" y="740" on="0"/>
        <pt x="998" y="788" on="1"/>
        <pt x="1008" y="782" on="1"/>
        <pt x="1142" y="679" on="0"/>
        <pt x="1261" y="636" on="1"/>
        <pt x="1141" y="515" on="0"/>
        <pt x="1046" y="347" on="1"/>
        <pt x="1163" y="182" on="0"/>
        <pt x="1273" y="182" on="1"/>
        <pt x="1316" y="182" on="0"/>
        <pt x="1346" y="207" on="1"/>
        <pt x="1364" y="223" on="1"/>
        <pt x="1378" y="234" on="0"/>
        <pt x="1390" y="234" on="1"/>
        <pt x="1424" y="234" on="0"/>
        <pt x="1424" y="206" on="1"/>
        <pt x="1424" y="164" on="0"/>
        <pt x="1292" y="81" on="0"/>
        <pt x="1227" y="81" on="1"/>
        <pt x="1126" y="81" on="0"/>
        <pt x="1009" y="156" on="1"/>
        <pt x="866" y="1" on="0"/>
        <pt x="643" y="1" on="1"/>
        <pt x="436" y="1" on="0"/>
        <pt x="289" y="135" on="1"/>
        <pt x="295" y="144" on="1"/>
        <pt x="456" y="28" on="0"/>
        <pt x="643" y="28" on="1"/>
        <pt x="852" y="28" on="0"/>
        <pt x="985" y="173" on="1"/>
        <pt x="965" y="187" on="0"/>
        <pt x="948" y="202" on="1"/>
        <pt x="803" y="90" on="0"/>
        <pt x="620" y="90" on="1"/>
        <pt x="407" y="90" on="0"/>
        <pt x="136" y="321" on="0"/>
        <pt x="136" y="502" on="1"/>
        <pt x="136" y="656" on="0"/>
        <pt x="330" y="856" on="0"/>
        <pt x="543" y="923" on="1"/>
      </contour>
      <contour>
        <pt x="614" y="767" on="1"/>
        <pt x="434" y="667" on="0"/>
        <pt x="434" y="478" on="1"/>
        <pt x="434" y="375" on="0"/>
        <pt x="538" y="230" on="0"/>
        <pt x="633" y="201" on="1"/>
        <pt x="633" y="188" on="1"/>
        <pt x="533" y="202" on="0"/>
        <pt x="408" y="358" on="0"/>
        <pt x="408" y="468" on="1"/>
        <pt x="408" y="676" on="0"/>
        <pt x="603" y="793" on="1"/>
        <pt x="598" y="806" on="1"/>
        <pt x="591" y="823" on="0"/>
        <pt x="585" y="840" on="1"/>
        <pt x="470" y="794" on="0"/>
        <pt x="342" y="602" on="0"/>
        <pt x="342" y="478" on="1"/>
        <pt x="342" y="346" on="0"/>
        <pt x="504" y="170" on="0"/>
        <pt x="626" y="170" on="1"/>
        <pt x="762" y="170" on="0"/>
        <pt x="873" y="288" on="1"/>
        <pt x="743" y="466" on="0"/>
      </contour>
      <contour>
        <pt x="799" y="1012" on="1"/>
        <pt x="907" y="1068" on="0"/>
        <pt x="907" y="1184" on="1"/>
        <pt x="907" y="1247" on="0"/>
        <pt x="832" y="1331" on="0"/>
        <pt x="776" y="1331" on="1"/>
        <pt x="664" y="1331" on="0"/>
        <pt x="664" y="1200" on="1"/>
        <pt x="664" y="1096" on="0"/>
        <pt x="723" y="978" on="1"/>
        <pt x="730" y="982" on="0"/>
        <pt x="733" y="983" on="1"/>
        <pt x="759" y="993" on="1"/>
        <pt x="762" y="994" on="0"/>
        <pt x="773" y="999" on="1"/>
        <pt x="724" y="1115" on="0"/>
        <pt x="724" y="1183" on="1"/>
        <pt x="724" y="1283" on="0"/>
        <pt x="804" y="1283" on="1"/>
        <pt x="836" y="1283" on="0"/>
        <pt x="872" y="1250" on="1"/>
        <pt x="865" y="1240" on="1"/>
        <pt x="857" y="1245" on="1"/>
        <pt x="830" y="1261" on="0"/>
        <pt x="807" y="1261" on="1"/>
        <pt x="745" y="1261" on="0"/>
        <pt x="745" y="1179" on="1"/>
        <pt x="745" y="1108" on="0"/>
      </contour>
      <contour>
        <pt x="1313" y="565" on="1"/>
        <pt x="1199" y="446" on="0"/>
        <pt x="1154" y="358" on="1"/>
        <pt x="1151" y="350" on="1"/>
        <pt x="1159" y="341" on="1"/>
        <pt x="1244" y="243" on="0"/>
        <pt x="1315" y="243" on="1"/>
        <pt x="1330" y="243" on="0"/>
        <pt x="1351" y="249" on="1"/>
        <pt x="1351" y="241" on="1"/>
        <pt x="1325" y="226" on="0"/>
        <pt x="1297" y="226" on="1"/>
        <pt x="1204" y="226" on="0"/>
        <pt x="1127" y="350" on="1"/>
        <pt x="1200" y="485" on="0"/>
        <pt x="1294" y="580" on="1"/>
      </contour>
      <contour>
        <pt x="1492" y="154" on="1"/>
        <pt x="1471" y="90" on="0"/>
        <pt x="1352" y="2" on="0"/>
        <pt x="1286" y="2" on="1"/>
        <pt x="1193" y="2" on="0"/>
        <pt x="1127" y="58" on="1"/>
        <pt x="1127" y="66" on="1"/>
        <pt x="1193" y="27" on="0"/>
        <pt x="1263" y="27" on="1"/>
        <pt x="1389" y="27" on="0"/>
        <pt x="1463" y="156" on="1"/>
        <pt x="1467" y="163" on="1"/>
      </contour>
    </TTGlyph>
    <TTGlyph name="approxequal" xMin="51" yMin="422" xMax="973" yMax="1008">
      <contour>
        <pt x="930" y="1008" on="1"/>
        <pt x="973" y="985" on="1"/>
        <pt x="913" y="887" on="0"/>
        <pt x="751" y="775" on="0"/>
        <pt x="669" y="775" on="1"/>
        <pt x="620" y="775" on="0"/>
        <pt x="541" y="799" on="1"/>
        <pt x="477" y="819" on="1"/>
        <pt x="345" y="859" on="0"/>
        <pt x="283" y="859" on="1"/>
        <pt x="231" y="859" on="0"/>
        <pt x="165" y="825" on="0"/>
        <pt x="113" y="771" on="1"/>
        <pt x="106" y="765" on="0"/>
        <pt x="93" y="752" on="1"/>
        <pt x="51" y="775" on="1"/>
        <pt x="194" y="987" on="0"/>
        <pt x="356" y="987" on="1"/>
        <pt x="417" y="987" on="0"/>
        <pt x="551" y="944" on="1"/>
        <pt x="672" y="906" on="0"/>
        <pt x="728" y="906" on="1"/>
        <pt x="841" y="906" on="0"/>
      </contour>
      <contour>
        <pt x="930" y="679" on="1"/>
        <pt x="973" y="656" on="1"/>
        <pt x="913" y="558" on="0"/>
        <pt x="751" y="446" on="0"/>
        <pt x="669" y="446" on="1"/>
        <pt x="617" y="446" on="0"/>
        <pt x="477" y="490" on="1"/>
        <pt x="348" y="530" on="0"/>
        <pt x="283" y="530" on="1"/>
        <pt x="231" y="530" on="0"/>
        <pt x="165" y="496" on="0"/>
        <pt x="113" y="442" on="1"/>
        <pt x="106" y="436" on="0"/>
        <pt x="93" y="422" on="1"/>
        <pt x="51" y="446" on="1"/>
        <pt x="194" y="658" on="0"/>
        <pt x="356" y="658" on="1"/>
        <pt x="418" y="658" on="0"/>
        <pt x="551" y="615" on="1"/>
        <pt x="671" y="577" on="0"/>
        <pt x="728" y="577" on="1"/>
        <pt x="840" y="577" on="0"/>
      </contour>
    </TTGlyph>
    <TTGlyph name="asciicircum" xMin="-56" yMin="578" xMax="1079" yMax="1434">
      <contour>
        <pt x="1079" y="578" on="1"/>
        <pt x="978" y="578" on="1"/>
        <pt x="604" y="1160" on="1"/>
        <pt x="212" y="578" on="1"/>
        <pt x="-56" y="578" on="1"/>
        <pt x="521" y="1434" on="1"/>
        <pt x="537" y="1434" on="1"/>
      </contour>
    </TTGlyph>
    <TTGlyph name="asciitilde" xMin="265" yMin="1246" xMax="1100" yMax="1502">
      <contour>
        <pt x="1064" y="1502" on="1"/>
        <pt x="1100" y="1479" on="1"/>
        <pt x="1051" y="1384" on="0"/>
        <pt x="901" y="1269" on="0"/>
        <pt x="826" y="1269" on="1"/>
        <pt x="782" y="1269" on="0"/>
        <pt x="708" y="1293" on="1"/>
        <pt x="650" y="1313" on="1"/>
        <pt x="591" y="1332" on="1"/>
        <pt x="525" y="1353" on="0"/>
        <pt x="475" y="1353" on="1"/>
        <pt x="395" y="1353" on="0"/>
        <pt x="319" y="1265" on="1"/>
        <pt x="313" y="1259" on="0"/>
        <pt x="301" y="1246" on="1"/>
        <pt x="265" y="1269" on="1"/>
        <pt x="386" y="1481" on="0"/>
        <pt x="542" y="1481" on="1"/>
        <pt x="596" y="1481" on="0"/>
        <pt x="719" y="1438" on="1"/>
        <pt x="829" y="1400" on="0"/>
        <pt x="877" y="1400" on="1"/>
        <pt x="981" y="1400" on="0"/>
      </contour>
    </TTGlyph>
    <TTGlyph name="asterisk" xMin="41" yMin="813" xMax="683" yMax="1399">
      <contour>
        <pt x="362" y="1033" on="1"/>
        <pt x="308" y="964" on="0"/>
        <pt x="298" y="828" on="1"/>
        <pt x="297" y="813" on="1"/>
        <pt x="276" y="839" on="1"/>
        <pt x="285" y="974" on="0"/>
        <pt x="351" y="1051" on="1"/>
        <pt x="342" y="1065" on="0"/>
        <pt x="331" y="1080" on="1"/>
        <pt x="242" y="958" on="0"/>
        <pt x="242" y="851" on="1"/>
        <pt x="95" y="958" on="1"/>
        <pt x="174" y="979" on="0"/>
        <pt x="254" y="1069" on="1"/>
        <pt x="208" y="1072" on="0"/>
        <pt x="181" y="1072" on="1"/>
        <pt x="154" y="1072" on="0"/>
        <pt x="109" y="1067" on="1"/>
        <pt x="78" y="1088" on="1"/>
        <pt x="115" y="1093" on="0"/>
        <pt x="133" y="1093" on="1"/>
        <pt x="187" y="1093" on="0"/>
        <pt x="259" y="1075" on="1"/>
        <pt x="274" y="1093" on="0"/>
        <pt x="286" y="1110" on="1"/>
        <pt x="206" y="1136" on="0"/>
        <pt x="133" y="1136" on="1"/>
        <pt x="87" y="1136" on="0"/>
        <pt x="41" y="1124" on="1"/>
        <pt x="97" y="1296" on="1"/>
        <pt x="152" y="1211" on="0"/>
        <pt x="300" y="1161" on="1"/>
        <pt x="300" y="1304" on="0"/>
        <pt x="238" y="1399" on="1"/>
        <pt x="419" y="1399" on="1"/>
        <pt x="354" y="1318" on="0"/>
        <pt x="354" y="1164" on="1"/>
        <pt x="378" y="1172" on="0"/>
        <pt x="406" y="1183" on="1"/>
        <pt x="425" y="1287" on="0"/>
        <pt x="469" y="1350" on="1"/>
        <pt x="476" y="1312" on="1"/>
        <pt x="442" y="1259" on="0"/>
        <pt x="414" y="1187" on="1"/>
        <pt x="511" y="1234" on="0"/>
        <pt x="561" y="1296" on="1"/>
        <pt x="617" y="1124" on="1"/>
        <pt x="573" y="1141" on="0"/>
        <pt x="525" y="1141" on="1"/>
        <pt x="458" y="1141" on="0"/>
        <pt x="373" y="1114" on="1"/>
        <pt x="457" y="998" on="0"/>
        <pt x="563" y="958" on="1"/>
        <pt x="416" y="851" on="1"/>
        <pt x="417" y="863" on="0"/>
        <pt x="417" y="870" on="1"/>
        <pt x="417" y="938" on="0"/>
      </contour>
      <contour>
        <pt x="487" y="1065" on="1"/>
        <pt x="567" y="990" on="0"/>
        <pt x="664" y="962" on="1"/>
        <pt x="490" y="823" on="1"/>
        <pt x="458" y="826" on="1"/>
        <pt x="623" y="954" on="1"/>
        <pt x="528" y="983" on="0"/>
        <pt x="430" y="1079" on="1"/>
        <pt x="495" y="1106" on="0"/>
        <pt x="563" y="1106" on="1"/>
        <pt x="612" y="1106" on="0"/>
        <pt x="655" y="1093" on="1"/>
        <pt x="607" y="1258" on="1"/>
        <pt x="635" y="1242" on="1"/>
        <pt x="683" y="1064" on="1"/>
        <pt x="635" y="1079" on="0"/>
        <pt x="583" y="1079" on="1"/>
        <pt x="533" y="1079" on="0"/>
      </contour>
    </TTGlyph>
    <TTGlyph name="at" xMin="48" yMin="-21" xMax="1419" yMax="1385">
      <contour>
        <pt x="845" y="393" on="1"/>
        <pt x="743" y="296" on="0"/>
        <pt x="639" y="296" on="1"/>
        <pt x="547" y="296" on="0"/>
        <pt x="481" y="372" on="1"/>
        <pt x="481" y="376" on="1"/>
        <pt x="543" y="320" on="0"/>
        <pt x="641" y="320" on="1"/>
        <pt x="733" y="320" on="0"/>
        <pt x="823" y="406" on="1"/>
        <pt x="838" y="421" on="1"/>
        <pt x="902" y="322" on="0"/>
        <pt x="1003" y="322" on="1"/>
        <pt x="1157" y="322" on="0"/>
        <pt x="1388" y="633" on="0"/>
        <pt x="1388" y="841" on="1"/>
        <pt x="1388" y="1010" on="0"/>
        <pt x="1221" y="1262" on="0"/>
        <pt x="1064" y="1329" on="1"/>
        <pt x="1066" y="1341" on="1"/>
        <pt x="1232" y="1283" on="0"/>
        <pt x="1419" y="1018" on="0"/>
        <pt x="1419" y="841" on="1"/>
        <pt x="1419" y="623" on="0"/>
        <pt x="1174" y="293" on="0"/>
        <pt x="1012" y="293" on="1"/>
        <pt x="909" y="293" on="0"/>
      </contour>
      <contour>
        <pt x="379" y="111" on="1"/>
        <pt x="379" y="118" on="1"/>
        <pt x="509" y="4" on="0"/>
        <pt x="737" y="4" on="1"/>
        <pt x="891" y="4" on="0"/>
        <pt x="1116" y="91" on="0"/>
        <pt x="1210" y="187" on="1"/>
        <pt x="1228" y="171" on="1"/>
        <pt x="1160" y="80" on="0"/>
        <pt x="900" y="-21" on="0"/>
        <pt x="737" y="-21" on="1"/>
        <pt x="619" y="-21" on="0"/>
        <pt x="458" y="38" on="0"/>
      </contour>
      <contour>
        <pt x="808" y="998" on="1"/>
        <pt x="787" y="1017" on="0"/>
        <pt x="767" y="1017" on="1"/>
        <pt x="691" y="1017" on="0"/>
        <pt x="597" y="814" on="0"/>
        <pt x="597" y="651" on="1"/>
        <pt x="597" y="488" on="0"/>
        <pt x="658" y="450" on="1"/>
        <pt x="657" y="444" on="1"/>
        <pt x="572" y="467" on="0"/>
        <pt x="572" y="663" on="1"/>
        <pt x="572" y="830" on="0"/>
        <pt x="680" y="1037" on="0"/>
        <pt x="767" y="1037" on="1"/>
        <pt x="795" y="1037" on="0"/>
        <pt x="815" y="1004" on="1"/>
      </contour>
      <contour>
        <pt x="1063" y="1075" on="1"/>
        <pt x="1086" y="1048" on="1"/>
        <pt x="1032" y="619" on="1"/>
        <pt x="1028" y="588" on="0"/>
        <pt x="1028" y="572" on="1"/>
        <pt x="1028" y="512" on="0"/>
        <pt x="1063" y="477" on="1"/>
        <pt x="1142" y="517" on="0"/>
        <pt x="1235" y="721" on="0"/>
        <pt x="1235" y="854" on="1"/>
        <pt x="1235" y="1047" on="0"/>
        <pt x="947" y="1319" on="0"/>
        <pt x="742" y="1319" on="1"/>
        <pt x="505" y="1319" on="0"/>
        <pt x="167" y="952" on="0"/>
        <pt x="167" y="694" on="1"/>
        <pt x="167" y="454" on="0"/>
        <pt x="481" y="130" on="0"/>
        <pt x="714" y="130" on="1"/>
        <pt x="917" y="130" on="0"/>
        <pt x="1092" y="256" on="1"/>
        <pt x="1120" y="276" on="0"/>
        <pt x="1142" y="278" on="1"/>
        <pt x="1164" y="280" on="0"/>
        <pt x="1163" y="259" on="1"/>
        <pt x="1162" y="226" on="0"/>
        <pt x="1094" y="181" on="1"/>
        <pt x="921" y="65" on="0"/>
        <pt x="698" y="65" on="1"/>
        <pt x="426" y="65" on="0"/>
        <pt x="48" y="440" on="0"/>
        <pt x="48" y="710" on="1"/>
        <pt x="48" y="1040" on="0"/>
        <pt x="317" y="1244" on="1"/>
        <pt x="503" y="1385" on="0"/>
        <pt x="722" y="1385" on="1"/>
        <pt x="980" y="1385" on="0"/>
        <pt x="1323" y="1080" on="0"/>
        <pt x="1323" y="852" on="1"/>
        <pt x="1323" y="666" on="0"/>
        <pt x="1118" y="385" on="0"/>
        <pt x="982" y="385" on="1"/>
        <pt x="849" y="385" on="0"/>
        <pt x="839" y="522" on="1"/>
        <pt x="753" y="378" on="0"/>
        <pt x="621" y="378" on="1"/>
        <pt x="507" y="378" on="0"/>
        <pt x="371" y="548" on="0"/>
        <pt x="371" y="690" on="1"/>
        <pt x="371" y="872" on="0"/>
        <pt x="589" y="1132" on="0"/>
        <pt x="742" y="1132" on="1"/>
        <pt x="804" y="1132" on="0"/>
        <pt x="880" y="1102" on="1"/>
        <pt x="920" y="1086" on="0"/>
        <pt x="944" y="1086" on="1"/>
        <pt x="976" y="1086" on="0"/>
        <pt x="1000" y="1102" on="1"/>
        <pt x="1013" y="1093" on="1"/>
        <pt x="961" y="686" on="1"/>
        <pt x="952" y="598" on="1"/>
        <pt x="949" y="567" on="0"/>
        <pt x="949" y="552" on="1"/>
        <pt x="949" y="514" on="0"/>
        <pt x="986" y="466" on="0"/>
        <pt x="1015" y="466" on="1"/>
        <pt x="1026" y="466" on="0"/>
        <pt x="1047" y="471" on="1"/>
        <pt x="1001" y="504" on="0"/>
        <pt x="1001" y="567" on="1"/>
        <pt x="1001" y="582" on="0"/>
        <pt x="1006" y="622" on="1"/>
      </contour>
      <contour>
        <pt x="833" y="711" on="1"/>
        <pt x="850" y="860" on="1"/>
        <pt x="851" y="866" on="0"/>
        <pt x="851" y="880" on="1"/>
        <pt x="851" y="971" on="0"/>
        <pt x="782" y="1080" on="0"/>
        <pt x="725" y="1080" on="1"/>
        <pt x="634" y="1080" on="0"/>
        <pt x="520" y="849" on="0"/>
        <pt x="520" y="665" on="1"/>
        <pt x="520" y="555" on="0"/>
        <pt x="587" y="431" on="0"/>
        <pt x="647" y="431" on="1"/>
        <pt x="719" y="431" on="0"/>
        <pt x="817" y="578" on="0"/>
      </contour>
      <contour>
        <pt x="1009" y="1203" on="1"/>
        <pt x="988" y="1209" on="1"/>
        <pt x="873" y="1240" on="0"/>
        <pt x="778" y="1240" on="1"/>
        <pt x="552" y="1240" on="0"/>
        <pt x="251" y="911" on="0"/>
        <pt x="251" y="665" on="1"/>
        <pt x="251" y="509" on="0"/>
        <pt x="394" y="266" on="0"/>
        <pt x="520" y="208" on="1"/>
        <pt x="511" y="197" on="1"/>
        <pt x="223" y="334" on="0"/>
        <pt x="223" y="666" on="1"/>
        <pt x="223" y="923" on="0"/>
        <pt x="541" y="1266" on="0"/>
        <pt x="779" y="1266" on="1"/>
        <pt x="938" y="1266" on="0"/>
      </contour>
    </TTGlyph>
    <TTGlyph name="backslash" xMin="-110" yMin="-184" xMax="1086" yMax="1536">
      <contour>
        <pt x="-16" y="1536" on="1"/>
        <pt x="958" y="-98" on="1"/>
        <pt x="864" y="-98" on="1"/>
        <pt x="-110" y="1536" on="1"/>
      </contour>
      <contour>
        <pt x="932" y="-157" on="1"/>
        <pt x="1038" y="-157" on="1"/>
        <pt x="46" y="1507" on="1"/>
        <pt x="89" y="1486" on="1"/>
        <pt x="1086" y="-184" on="1"/>
        <pt x="976" y="-184" on="1"/>
      </contour>
    </TTGlyph>
    <TTGlyph name="bar" xMin="436" yMin="-341" xMax="589" yMax="1365">
      <contour>
        <pt x="436" y="1365" on="1"/>
        <pt x="589" y="1365" on="1"/>
        <pt x="589" y="-341" on="1"/>
        <pt x="436" y="-341" on="1"/>
      </contour>
    </TTGlyph>
    <TTGlyph name="braceleft" xMin="68" yMin="-177" xMax="751" yMax="1529">
      <contour>
        <pt x="669" y="1529" on="1"/>
        <pt x="669" y="1446" on="1"/>
        <pt x="538" y="1446" on="0"/>
        <pt x="411" y="1326" on="0"/>
        <pt x="411" y="1204" on="1"/>
        <pt x="411" y="1157" on="0"/>
        <pt x="422" y="1124" on="1"/>
        <pt x="450" y="1038" on="1"/>
        <pt x="465" y="992" on="0"/>
        <pt x="465" y="950" on="1"/>
        <pt x="465" y="782" on="0"/>
        <pt x="224" y="742" on="1"/>
        <pt x="224" y="734" on="1"/>
        <pt x="269" y="728" on="0"/>
        <pt x="302" y="718" on="1"/>
        <pt x="520" y="763" on="0"/>
        <pt x="520" y="922" on="1"/>
        <pt x="520" y="965" on="0"/>
        <pt x="505" y="1010" on="1"/>
        <pt x="477" y="1096" on="1"/>
        <pt x="466" y="1129" on="0"/>
        <pt x="466" y="1176" on="1"/>
        <pt x="466" y="1299" on="0"/>
        <pt x="593" y="1418" on="0"/>
        <pt x="724" y="1418" on="1"/>
        <pt x="724" y="1501" on="1"/>
        <pt x="751" y="1488" on="1"/>
        <pt x="751" y="1405" on="1"/>
        <pt x="620" y="1405" on="0"/>
        <pt x="493" y="1285" on="0"/>
        <pt x="493" y="1162" on="1"/>
        <pt x="493" y="1114" on="0"/>
        <pt x="504" y="1082" on="1"/>
        <pt x="532" y="996" on="1"/>
        <pt x="547" y="952" on="0"/>
        <pt x="547" y="914" on="1"/>
        <pt x="547" y="759" on="0"/>
        <pt x="319" y="712" on="1"/>
        <pt x="470" y="654" on="0"/>
        <pt x="470" y="507" on="1"/>
        <pt x="470" y="466" on="0"/>
        <pt x="456" y="415" on="1"/>
        <pt x="430" y="319" on="1"/>
        <pt x="416" y="270" on="0"/>
        <pt x="416" y="220" on="1"/>
        <pt x="416" y="29" on="0"/>
        <pt x="549" y="-13" on="1"/>
        <pt x="471" y="52" on="0"/>
        <pt x="471" y="192" on="1"/>
        <pt x="471" y="242" on="0"/>
        <pt x="485" y="291" on="1"/>
        <pt x="511" y="387" on="1"/>
        <pt x="525" y="438" on="0"/>
        <pt x="525" y="478" on="1"/>
        <pt x="525" y="590" on="0"/>
        <pt x="437" y="653" on="1"/>
        <pt x="499" y="617" on="0"/>
        <pt x="552" y="529" on="0"/>
        <pt x="552" y="464" on="1"/>
        <pt x="552" y="424" on="0"/>
        <pt x="538" y="373" on="1"/>
        <pt x="512" y="277" on="1"/>
        <pt x="498" y="228" on="0"/>
        <pt x="498" y="179" on="1"/>
        <pt x="498" y="47" on="0"/>
        <pt x="571" y="-19" on="1"/>
        <pt x="617" y="-27" on="0"/>
        <pt x="669" y="-27" on="1"/>
        <pt x="669" y="-109" on="1"/>
        <pt x="626" y="-105" on="0"/>
        <pt x="543" y="-105" on="1"/>
        <pt x="354" y="-105" on="0"/>
        <pt x="282" y="-35" on="1"/>
        <pt x="195" y="49" on="0"/>
        <pt x="195" y="213" on="1"/>
        <pt x="195" y="281" on="0"/>
        <pt x="239" y="449" on="1"/>
        <pt x="256" y="514" on="0"/>
        <pt x="256" y="561" on="1"/>
        <pt x="256" y="596" on="0"/>
        <pt x="233" y="636" on="1"/>
        <pt x="190" y="641" on="0"/>
        <pt x="160" y="641" on="1"/>
        <pt x="147" y="641" on="0"/>
        <pt x="116" y="639" on="1"/>
        <pt x="102" y="664" on="1"/>
        <pt x="136" y="667" on="0"/>
        <pt x="160" y="667" on="1"/>
        <pt x="173" y="667" on="0"/>
        <pt x="208" y="663" on="1"/>
        <pt x="163" y="696" on="0"/>
        <pt x="68" y="700" on="1"/>
        <pt x="68" y="775" on="1"/>
        <pt x="255" y="787" on="0"/>
        <pt x="255" y="915" on="1"/>
        <pt x="255" y="951" on="0"/>
        <pt x="239" y="1002" on="1"/>
        <pt x="194" y="1148" on="0"/>
        <pt x="194" y="1209" on="1"/>
        <pt x="194" y="1383" on="0"/>
        <pt x="293" y="1468" on="1"/>
        <pt x="361" y="1526" on="0"/>
        <pt x="546" y="1526" on="1"/>
        <pt x="637" y="1526" on="0"/>
      </contour>
      <contour>
        <pt x="751" y="-75" on="1"/>
        <pt x="751" y="-177" on="1"/>
        <pt x="502" y="-177" on="0"/>
        <pt x="335" y="-136" on="1"/>
        <pt x="335" y="-131" on="1"/>
        <pt x="479" y="-150" on="0"/>
        <pt x="646" y="-150" on="1"/>
        <pt x="706" y="-151" on="1"/>
        <pt x="724" y="-151" on="1"/>
        <pt x="724" y="-51" on="1"/>
      </contour>
    </TTGlyph>
    <TTGlyph name="braceright" xMin="150" yMin="-177" xMax="833" yMax="1529">
      <contour>
        <pt x="763" y="782" on="1"/>
        <pt x="763" y="708" on="1"/>
        <pt x="661" y="703" on="0"/>
        <pt x="571" y="635" on="0"/>
        <pt x="571" y="565" on="1"/>
        <pt x="571" y="524" on="0"/>
        <pt x="588" y="459" on="1"/>
        <pt x="633" y="292" on="0"/>
        <pt x="633" y="224" on="1"/>
        <pt x="633" y="61" on="0"/>
        <pt x="544" y="-22" on="1"/>
        <pt x="470" y="-91" on="0"/>
        <pt x="279" y="-91" on="1"/>
        <pt x="150" y="-95" on="1"/>
        <pt x="150" y="-13" on="1"/>
        <pt x="285" y="-13" on="0"/>
        <pt x="408" y="103" on="0"/>
        <pt x="408" y="231" on="1"/>
        <pt x="408" y="280" on="0"/>
        <pt x="394" y="330" on="1"/>
        <pt x="367" y="424" on="1"/>
        <pt x="353" y="476" on="0"/>
        <pt x="353" y="516" on="1"/>
        <pt x="353" y="661" on="0"/>
        <pt x="505" y="719" on="1"/>
        <pt x="461" y="740" on="0"/>
        <pt x="425" y="777" on="1"/>
        <pt x="487" y="744" on="0"/>
        <pt x="537" y="731" on="1"/>
        <pt x="566" y="737" on="0"/>
        <pt x="604" y="741" on="1"/>
        <pt x="604" y="749" on="1"/>
        <pt x="358" y="789" on="0"/>
        <pt x="358" y="955" on="1"/>
        <pt x="358" y="997" on="0"/>
        <pt x="373" y="1042" on="1"/>
        <pt x="402" y="1127" on="1"/>
        <pt x="413" y="1160" on="0"/>
        <pt x="413" y="1210" on="1"/>
        <pt x="413" y="1269" on="0"/>
        <pt x="382" y="1339" on="1"/>
        <pt x="324" y="1385" on="0"/>
        <pt x="199" y="1385" on="1"/>
        <pt x="185" y="1412" on="1"/>
        <pt x="296" y="1412" on="0"/>
        <pt x="360" y="1375" on="1"/>
        <pt x="302" y="1447" on="0"/>
        <pt x="150" y="1447" on="1"/>
        <pt x="150" y="1529" on="1"/>
        <pt x="209" y="1526" on="0"/>
        <pt x="275" y="1526" on="1"/>
        <pt x="463" y="1526" on="0"/>
        <pt x="533" y="1468" on="1"/>
        <pt x="634" y="1385" on="0"/>
        <pt x="634" y="1212" on="1"/>
        <pt x="634" y="1151" on="0"/>
        <pt x="588" y="1006" on="1"/>
        <pt x="572" y="956" on="0"/>
        <pt x="572" y="920" on="1"/>
        <pt x="572" y="794" on="0"/>
      </contour>
      <contour>
        <pt x="171" y="-150" on="1"/>
        <pt x="321" y="-146" on="1"/>
        <pt x="512" y="-146" on="0"/>
        <pt x="586" y="-77" on="1"/>
        <pt x="675" y="6" on="0"/>
        <pt x="675" y="169" on="1"/>
        <pt x="675" y="236" on="0"/>
        <pt x="630" y="404" on="1"/>
        <pt x="613" y="468" on="0"/>
        <pt x="613" y="510" on="1"/>
        <pt x="613" y="580" on="0"/>
        <pt x="703" y="648" on="0"/>
        <pt x="805" y="653" on="1"/>
        <pt x="805" y="743" on="1"/>
        <pt x="833" y="716" on="1"/>
        <pt x="833" y="625" on="1"/>
        <pt x="731" y="620" on="0"/>
        <pt x="641" y="553" on="0"/>
        <pt x="641" y="482" on="1"/>
        <pt x="641" y="440" on="0"/>
        <pt x="658" y="376" on="1"/>
        <pt x="703" y="208" on="0"/>
        <pt x="703" y="141" on="1"/>
        <pt x="703" y="-21" on="0"/>
        <pt x="614" y="-104" on="1"/>
        <pt x="540" y="-174" on="0"/>
        <pt x="349" y="-174" on="1"/>
        <pt x="236" y="-176" on="1"/>
        <pt x="199" y="-177" on="1"/>
      </contour>
      <contour>
        <pt x="663" y="811" on="1"/>
        <pt x="614" y="852" on="0"/>
        <pt x="614" y="894" on="1"/>
        <pt x="614" y="930" on="0"/>
        <pt x="630" y="979" on="1"/>
        <pt x="676" y="1119" on="0"/>
        <pt x="676" y="1191" on="1"/>
        <pt x="676" y="1288" on="0"/>
        <pt x="605" y="1409" on="1"/>
        <pt x="704" y="1318" on="0"/>
        <pt x="704" y="1158" on="1"/>
        <pt x="704" y="1081" on="0"/>
        <pt x="658" y="951" on="1"/>
        <pt x="642" y="906" on="0"/>
        <pt x="642" y="879" on="1"/>
        <pt x="642" y="856" on="0"/>
      </contour>
    </TTGlyph>
    <TTGlyph name="bracketleft" xMin="205" yMin="-177" xMax="746" yMax="1529">
      <contour>
        <pt x="205" y="1529" on="1"/>
        <pt x="665" y="1529" on="1"/>
        <pt x="665" y="1431" on="1"/>
        <pt x="428" y="1431" on="1"/>
        <pt x="428" y="2" on="1"/>
        <pt x="485" y="2" on="1"/>
        <pt x="485" y="1377" on="1"/>
        <pt x="723" y="1377" on="1"/>
        <pt x="723" y="1474" on="1"/>
        <pt x="746" y="1448" on="1"/>
        <pt x="746" y="1349" on="1"/>
        <pt x="514" y="1349" on="1"/>
        <pt x="514" y="2" on="1"/>
        <pt x="665" y="2" on="1"/>
        <pt x="665" y="-96" on="1"/>
        <pt x="205" y="-96" on="1"/>
      </contour>
      <contour>
        <pt x="723" y="-52" on="1"/>
        <pt x="746" y="-78" on="1"/>
        <pt x="746" y="-177" on="1"/>
        <pt x="257" y="-177" on="1"/>
        <pt x="239" y="-149" on="1"/>
        <pt x="723" y="-149" on="1"/>
      </contour>
    </TTGlyph>
    <TTGlyph name="bracketright" xMin="150" yMin="-177" xMax="691" yMax="1529">
      <contour>
        <pt x="150" y="1431" on="1"/>
        <pt x="150" y="1529" on="1"/>
        <pt x="610" y="1529" on="1"/>
        <pt x="610" y="-96" on="1"/>
        <pt x="150" y="-96" on="1"/>
        <pt x="150" y="2" on="1"/>
        <pt x="387" y="2" on="1"/>
        <pt x="387" y="1349" on="1"/>
        <pt x="201" y="1349" on="1"/>
        <pt x="183" y="1377" on="1"/>
        <pt x="387" y="1377" on="1"/>
        <pt x="387" y="1431" on="1"/>
      </contour>
      <contour>
        <pt x="668" y="1475" on="1"/>
        <pt x="691" y="1450" on="1"/>
        <pt x="691" y="-177" on="1"/>
        <pt x="202" y="-177" on="1"/>
        <pt x="184" y="-149" on="1"/>
        <pt x="668" y="-149" on="1"/>
      </contour>
    </TTGlyph>
    <TTGlyph name="breve" xMin="188" yMin="1483" xMax="836" yMax="1790">
      <contour>
        <pt x="189" y="1790" on="1"/>
        <pt x="260" y="1790" on="1"/>
        <pt x="270" y="1734" on="0"/>
        <pt x="295" y="1714" on="1"/>
        <pt x="353" y="1666" on="0"/>
        <pt x="477" y="1666" on="1"/>
        <pt x="579" y="1666" on="0"/>
        <pt x="682" y="1726" on="0"/>
        <pt x="689" y="1790" on="1"/>
        <pt x="756" y="1790" on="1"/>
        <pt x="757" y="1780" on="0"/>
        <pt x="757" y="1777" on="1"/>
        <pt x="757" y="1682" on="0"/>
        <pt x="598" y="1556" on="0"/>
        <pt x="478" y="1556" on="1"/>
        <pt x="352" y="1556" on="0"/>
        <pt x="188" y="1681" on="0"/>
        <pt x="188" y="1778" on="1"/>
        <pt x="188" y="1780" on="0"/>
      </contour>
      <contour>
        <pt x="305" y="1547" on="1"/>
        <pt x="315" y="1562" on="1"/>
        <pt x="403" y="1507" on="0"/>
        <pt x="516" y="1507" on="1"/>
        <pt x="642" y="1507" on="0"/>
        <pt x="796" y="1635" on="0"/>
        <pt x="815" y="1756" on="1"/>
        <pt x="836" y="1740" on="1"/>
        <pt x="826" y="1623" on="0"/>
        <pt x="652" y="1483" on="0"/>
        <pt x="515" y="1483" on="1"/>
        <pt x="386" y="1483" on="0"/>
      </contour>
    </TTGlyph>
    <TTGlyph name="brokenbar" xMin="436" yMin="-341" xMax="589" yMax="1365">
      <contour>
        <pt x="436" y="1365" on="1"/>
        <pt x="589" y="1365" on="1"/>
        <pt x="589" y="662" on="1"/>
        <pt x="436" y="662" on="1"/>
      </contour>
      <contour>
        <pt x="436" y="314" on="1"/>
        <pt x="589" y="314" on="1"/>
        <pt x="589" y="-341" on="1"/>
        <pt x="436" y="-341" on="1"/>
      </contour>
    </TTGlyph>
    <TTGlyph name="bullet" xMin="401" yMin="410" xMax="969" yMax="978">
      <contour>
        <pt x="685" y="978" on="1"/>
        <pt x="803" y="978" on="0"/>
        <pt x="969" y="812" on="0"/>
        <pt x="969" y="694" on="1"/>
        <pt x="969" y="576" on="0"/>
        <pt x="803" y="410" on="0"/>
        <pt x="685" y="410" on="1"/>
        <pt x="567" y="410" on="0"/>
        <pt x="401" y="576" on="0"/>
        <pt x="401" y="694" on="1"/>
        <pt x="401" y="812" on="0"/>
        <pt x="567" y="978" on="0"/>
      </contour>
    </TTGlyph>
    <TTGlyph name="caron" xMin="252" yMin="1493" xMax="774" yMax="1767">
      <contour>
        <pt x="515" y="1651" on="1"/>
        <pt x="616" y="1767" on="1"/>
        <pt x="722" y="1767" on="1"/>
        <pt x="553" y="1567" on="1"/>
        <pt x="424" y="1567" on="1"/>
        <pt x="252" y="1767" on="1"/>
        <pt x="413" y="1767" on="1"/>
      </contour>
      <contour>
        <pt x="774" y="1700" on="1"/>
        <pt x="601" y="1493" on="1"/>
        <pt x="514" y="1493" on="1"/>
        <pt x="491" y="1519" on="1"/>
        <pt x="587" y="1519" on="1"/>
        <pt x="754" y="1722" on="1"/>
      </contour>
    </TTGlyph>
    <TTGlyph name="cedilla" xMin="307" yMin="-458" xMax="724" yMax="15">
      <contour>
        <pt x="550" y="-73" on="1"/>
        <pt x="560" y="-72" on="0"/>
        <pt x="565" y="-72" on="1"/>
        <pt x="604" y="-72" on="0"/>
        <pt x="653" y="-141" on="0"/>
        <pt x="653" y="-196" on="1"/>
        <pt x="653" y="-283" on="0"/>
        <pt x="546" y="-398" on="0"/>
        <pt x="463" y="-398" on="1"/>
        <pt x="364" y="-398" on="0"/>
        <pt x="307" y="-299" on="1"/>
        <pt x="315" y="-295" on="1"/>
        <pt x="374" y="-257" on="0"/>
        <pt x="413" y="-225" on="1"/>
        <pt x="413" y="-319" on="0"/>
        <pt x="475" y="-319" on="1"/>
        <pt x="503" y="-319" on="0"/>
        <pt x="546" y="-242" on="0"/>
        <pt x="546" y="-190" on="1"/>
        <pt x="546" y="-123" on="0"/>
        <pt x="489" y="-123" on="1"/>
        <pt x="460" y="-123" on="0"/>
        <pt x="439" y="-152" on="1"/>
        <pt x="421" y="-136" on="1"/>
        <pt x="452" y="-58" on="0"/>
        <pt x="468" y="15" on="1"/>
        <pt x="571" y="15" on="1"/>
      </contour>
      <contour>
        <pt x="611" y="-17" on="1"/>
        <pt x="633" y="-40" on="1"/>
        <pt x="622" y="-76" on="1"/>
        <pt x="598" y="-62" on="1"/>
      </contour>
      <contour>
        <pt x="657" y="-100" on="1"/>
        <pt x="724" y="-153" on="0"/>
        <pt x="724" y="-256" on="1"/>
        <pt x="724" y="-336" on="0"/>
        <pt x="607" y="-458" on="0"/>
        <pt x="530" y="-458" on="1"/>
        <pt x="442" y="-458" on="0"/>
        <pt x="399" y="-414" on="1"/>
        <pt x="399" y="-405" on="1"/>
        <pt x="454" y="-437" on="0"/>
        <pt x="517" y="-437" on="1"/>
        <pt x="585" y="-437" on="0"/>
        <pt x="697" y="-309" on="0"/>
        <pt x="697" y="-231" on="1"/>
        <pt x="697" y="-164" on="0"/>
        <pt x="648" y="-106" on="1"/>
      </contour>
      <contour>
        <pt x="475" y="-180" on="1"/>
        <pt x="483" y="-146" on="0"/>
        <pt x="520" y="-146" on="1"/>
        <pt x="520" y="-156" on="1"/>
        <pt x="502" y="-166" on="0"/>
        <pt x="489" y="-195" on="1"/>
      </contour>
      <contour>
        <pt x="479" y="-273" on="1"/>
        <pt x="503" y="-284" on="1"/>
        <pt x="484" y="-296" on="1"/>
      </contour>
    </TTGlyph>
    <TTGlyph name="cent" xMin="204" yMin="27" xMax="998" yMax="1338">
      <contour>
        <pt x="539" y="1338" on="1"/>
        <pt x="615" y="1338" on="1"/>
        <pt x="615" y="1205" on="1"/>
        <pt x="642" y="1205" on="0"/>
        <pt x="677" y="1197" on="1"/>
        <pt x="677" y="1303" on="1"/>
        <pt x="702" y="1283" on="1"/>
        <pt x="702" y="1191" on="1"/>
        <pt x="735" y="1181" on="0"/>
        <pt x="783" y="1160" on="1"/>
        <pt x="840" y="1135" on="0"/>
        <pt x="870" y="1135" on="1"/>
        <pt x="906" y="1135" on="0"/>
        <pt x="931" y="1162" on="1"/>
        <pt x="940" y="1156" on="1"/>
        <pt x="857" y="1022" on="0"/>
        <pt x="810" y="879" on="1"/>
        <pt x="799" y="879" on="1"/>
        <pt x="799" y="972" on="0"/>
        <pt x="693" y="1118" on="0"/>
        <pt x="615" y="1131" on="1"/>
        <pt x="615" y="330" on="1"/>
        <pt x="630" y="330" on="1"/>
        <pt x="654" y="330" on="0"/>
        <pt x="677" y="337" on="1"/>
        <pt x="677" y="1067" on="1"/>
        <pt x="703" y="1062" on="0"/>
        <pt x="736" y="1022" on="1"/>
        <pt x="736" y="1009" on="1"/>
        <pt x="702" y="1029" on="1"/>
        <pt x="702" y="344" on="1"/>
        <pt x="752" y="362" on="0"/>
        <pt x="829" y="472" on="0"/>
        <pt x="837" y="539" on="1"/>
        <pt x="841" y="575" on="1"/>
        <pt x="845" y="608" on="0"/>
        <pt x="871" y="608" on="1"/>
        <pt x="905" y="608" on="0"/>
        <pt x="905" y="560" on="1"/>
        <pt x="905" y="479" on="0"/>
        <pt x="830" y="337" on="0"/>
        <pt x="770" y="304" on="1"/>
        <pt x="714" y="273" on="0"/>
        <pt x="615" y="263" on="1"/>
        <pt x="615" y="101" on="1"/>
        <pt x="539" y="101" on="1"/>
        <pt x="539" y="204" on="1"/>
        <pt x="523" y="209" on="1"/>
        <pt x="458" y="233" on="0"/>
        <pt x="411" y="266" on="1"/>
        <pt x="404" y="282" on="1"/>
        <pt x="468" y="244" on="0"/>
        <pt x="539" y="229" on="1"/>
        <pt x="539" y="266" on="1"/>
        <pt x="385" y="291" on="0"/>
        <pt x="204" y="538" on="0"/>
        <pt x="204" y="723" on="1"/>
        <pt x="204" y="914" on="0"/>
        <pt x="391" y="1183" on="0"/>
        <pt x="539" y="1205" on="1"/>
      </contour>
      <contour>
        <pt x="539" y="1047" on="1"/>
        <pt x="450" y="984" on="0"/>
        <pt x="450" y="767" on="1"/>
        <pt x="450" y="590" on="0"/>
        <pt x="511" y="437" on="1"/>
        <pt x="519" y="419" on="1"/>
        <pt x="519" y="411" on="1"/>
        <pt x="424" y="551" on="0"/>
        <pt x="424" y="753" on="1"/>
        <pt x="424" y="1004" on="0"/>
        <pt x="539" y="1078" on="1"/>
        <pt x="539" y="1128" on="1"/>
        <pt x="375" y="1078" on="0"/>
        <pt x="375" y="754" on="1"/>
        <pt x="375" y="590" on="0"/>
        <pt x="453" y="398" on="0"/>
        <pt x="539" y="351" on="1"/>
      </contour>
      <contour>
        <pt x="998" y="1117" on="1"/>
        <pt x="993" y="1108" on="1"/>
        <pt x="960" y="1049" on="0"/>
        <pt x="934" y="995" on="1"/>
        <pt x="871" y="861" on="1"/>
        <pt x="865" y="849" on="1"/>
        <pt x="841" y="864" on="1"/>
        <pt x="897" y="998" on="0"/>
        <pt x="973" y="1132" on="1"/>
      </contour>
      <contour>
        <pt x="975" y="562" on="1"/>
        <pt x="975" y="420" on="0"/>
        <pt x="831" y="230" on="0"/>
        <pt x="702" y="202" on="1"/>
        <pt x="702" y="27" on="1"/>
        <pt x="593" y="27" on="1"/>
        <pt x="573" y="52" on="1"/>
        <pt x="677" y="52" on="1"/>
        <pt x="677" y="226" on="1"/>
        <pt x="797" y="243" on="0"/>
        <pt x="948" y="423" on="0"/>
        <pt x="948" y="550" on="1"/>
        <pt x="948" y="557" on="0"/>
        <pt x="946" y="577" on="1"/>
      </contour>
    </TTGlyph>
    <TTGlyph name="circumflex" xMin="209" yMin="1498" xMax="814" yMax="1767">
      <contour>
        <pt x="455" y="1638" on="1"/>
        <pt x="335" y="1498" on="1"/>
        <pt x="248" y="1498" on="1"/>
        <pt x="230" y="1519" on="1"/>
        <pt x="326" y="1519" on="1"/>
        <pt x="441" y="1654" on="1"/>
        <pt x="415" y="1683" on="1"/>
        <pt x="314" y="1567" on="1"/>
        <pt x="209" y="1567" on="1"/>
        <pt x="377" y="1767" on="1"/>
        <pt x="507" y="1767" on="1"/>
        <pt x="679" y="1567" on="1"/>
        <pt x="518" y="1567" on="1"/>
      </contour>
      <contour>
        <pt x="814" y="1498" on="1"/>
        <pt x="583" y="1498" on="1"/>
        <pt x="564" y="1519" on="1"/>
        <pt x="764" y="1519" on="1"/>
        <pt x="591" y="1721" on="1"/>
        <pt x="628" y="1713" on="1"/>
      </contour>
    </TTGlyph>
    <TTGlyph name="colon" xMin="98" yMin="-14" xMax="446" yMax="1063">
      <contour>
        <pt x="227" y="1063" on="1"/>
        <pt x="281" y="1063" on="0"/>
        <pt x="357" y="987" on="0"/>
        <pt x="357" y="933" on="1"/>
        <pt x="357" y="880" on="0"/>
        <pt x="281" y="804" on="0"/>
        <pt x="227" y="804" on="1"/>
        <pt x="174" y="804" on="0"/>
        <pt x="98" y="880" on="0"/>
        <pt x="98" y="933" on="1"/>
        <pt x="98" y="987" on="0"/>
        <pt x="174" y="1063" on="0"/>
      </contour>
      <contour>
        <pt x="391" y="1022" on="1"/>
        <pt x="446" y="970" on="0"/>
        <pt x="446" y="894" on="1"/>
        <pt x="446" y="826" on="0"/>
        <pt x="345" y="724" on="0"/>
        <pt x="278" y="724" on="1"/>
        <pt x="197" y="724" on="0"/>
        <pt x="147" y="783" on="1"/>
        <pt x="154" y="791" on="1"/>
        <pt x="218" y="753" on="0"/>
        <pt x="270" y="753" on="1"/>
        <pt x="333" y="753" on="0"/>
        <pt x="422" y="839" on="0"/>
        <pt x="422" y="899" on="1"/>
        <pt x="422" y="956" on="0"/>
        <pt x="382" y="1014" on="1"/>
      </contour>
      <contour>
        <pt x="227" y="326" on="1"/>
        <pt x="281" y="326" on="0"/>
        <pt x="357" y="250" on="0"/>
        <pt x="357" y="196" on="1"/>
        <pt x="357" y="143" on="0"/>
        <pt x="281" y="67" on="0"/>
        <pt x="227" y="67" on="1"/>
        <pt x="174" y="67" on="0"/>
        <pt x="98" y="143" on="0"/>
        <pt x="98" y="196" on="1"/>
        <pt x="98" y="250" on="0"/>
        <pt x="174" y="326" on="0"/>
      </contour>
      <contour>
        <pt x="391" y="284" on="1"/>
        <pt x="446" y="233" on="0"/>
        <pt x="446" y="156" on="1"/>
        <pt x="446" y="88" on="0"/>
        <pt x="345" y="-14" on="0"/>
        <pt x="278" y="-14" on="1"/>
        <pt x="197" y="-14" on="0"/>
        <pt x="147" y="46" on="1"/>
        <pt x="154" y="53" on="1"/>
        <pt x="218" y="15" on="0"/>
        <pt x="270" y="15" on="1"/>
        <pt x="333" y="15" on="0"/>
        <pt x="422" y="102" on="0"/>
        <pt x="422" y="162" on="1"/>
        <pt x="422" y="219" on="0"/>
        <pt x="382" y="277" on="1"/>
      </contour>
    </TTGlyph>
    <TTGlyph name="comma" xMin="34" yMin="-247" xMax="424" yMax="304">
      <contour>
        <pt x="308" y="304" on="1"/>
        <pt x="338" y="234" on="0"/>
        <pt x="338" y="167" on="1"/>
        <pt x="338" y="-82" on="0"/>
        <pt x="42" y="-178" on="1"/>
        <pt x="34" y="-164" on="1"/>
        <pt x="44" y="-155" on="1"/>
        <pt x="147" y="-70" on="0"/>
        <pt x="147" y="51" on="1"/>
        <pt x="147" y="137" on="0"/>
        <pt x="94" y="200" on="1"/>
        <pt x="106" y="204" on="0"/>
        <pt x="113" y="207" on="1"/>
        <pt x="222" y="247" on="0"/>
      </contour>
      <contour>
        <pt x="407" y="274" on="1"/>
        <pt x="424" y="212" on="0"/>
        <pt x="424" y="163" on="1"/>
        <pt x="424" y="-120" on="0"/>
        <pt x="93" y="-247" on="1"/>
        <pt x="80" y="-219" on="1"/>
        <pt x="97" y="-213" on="1"/>
        <pt x="266" y="-146" on="0"/>
        <pt x="331" y="-48" on="1"/>
        <pt x="397" y="52" on="0"/>
        <pt x="397" y="156" on="1"/>
        <pt x="397" y="207" on="0"/>
        <pt x="379" y="287" on="1"/>
      </contour>
    </TTGlyph>
    <TTGlyph name="copyright" xMin="68" yMin="-13" xMax="1537" yMax="1378">
      <contour>
        <pt x="1089" y="1162" on="1"/>
        <pt x="1061" y="1172" on="1"/>
        <pt x="912" y="1226" on="0"/>
        <pt x="787" y="1226" on="1"/>
        <pt x="277" y="1226" on="0"/>
        <pt x="277" y="689" on="1"/>
        <pt x="277" y="474" on="0"/>
        <pt x="473" y="229" on="0"/>
        <pt x="693" y="167" on="1"/>
        <pt x="677" y="156" on="1"/>
        <pt x="431" y="230" on="0"/>
        <pt x="347" y="328" on="1"/>
        <pt x="246" y="447" on="0"/>
        <pt x="246" y="681" on="1"/>
        <pt x="246" y="1252" on="0"/>
        <pt x="770" y="1252" on="1"/>
        <pt x="990" y="1252" on="0"/>
      </contour>
      <contour>
        <pt x="1067" y="1081" on="1"/>
        <pt x="1060" y="1069" on="1"/>
        <pt x="1001" y="974" on="0"/>
        <pt x="959" y="881" on="1"/>
        <pt x="952" y="867" on="1"/>
        <pt x="944" y="871" on="1"/>
        <pt x="929" y="962" on="0"/>
        <pt x="820" y="1069" on="0"/>
        <pt x="742" y="1069" on="1"/>
        <pt x="642" y="1069" on="0"/>
        <pt x="535" y="889" on="0"/>
        <pt x="535" y="721" on="1"/>
        <pt x="535" y="551" on="0"/>
        <pt x="663" y="358" on="0"/>
        <pt x="777" y="358" on="1"/>
        <pt x="964" y="358" on="0"/>
        <pt x="987" y="575" on="1"/>
        <pt x="989" y="600" on="0"/>
        <pt x="1009" y="600" on="1"/>
        <pt x="1034" y="600" on="0"/>
        <pt x="1034" y="561" on="1"/>
        <pt x="1034" y="446" on="0"/>
        <pt x="882" y="308" on="0"/>
        <pt x="756" y="308" on="1"/>
        <pt x="587" y="308" on="0"/>
        <pt x="388" y="527" on="0"/>
        <pt x="388" y="713" on="1"/>
        <pt x="388" y="886" on="0"/>
        <pt x="594" y="1119" on="0"/>
        <pt x="748" y="1119" on="1"/>
        <pt x="822" y="1119" on="0"/>
        <pt x="914" y="1086" on="1"/>
        <pt x="962" y="1069" on="0"/>
        <pt x="991" y="1069" on="1"/>
        <pt x="1029" y="1069" on="0"/>
        <pt x="1056" y="1086" on="1"/>
      </contour>
      <contour>
        <pt x="892" y="964" on="1"/>
        <pt x="833" y="1005" on="0"/>
        <pt x="780" y="1005" on="1"/>
        <pt x="620" y="1005" on="0"/>
        <pt x="620" y="716" on="1"/>
        <pt x="620" y="437" on="0"/>
        <pt x="761" y="380" on="1"/>
        <pt x="761" y="369" on="1"/>
        <pt x="684" y="383" on="0"/>
        <pt x="592" y="572" on="0"/>
        <pt x="592" y="717" on="1"/>
        <pt x="592" y="1027" on="0"/>
        <pt x="777" y="1027" on="1"/>
        <pt x="839" y="1027" on="0"/>
        <pt x="892" y="976" on="1"/>
      </contour>
      <contour>
        <pt x="1112" y="552" on="1"/>
        <pt x="1102" y="402" on="0"/>
        <pt x="942" y="246" on="0"/>
        <pt x="799" y="246" on="1"/>
        <pt x="687" y="246" on="0"/>
        <pt x="589" y="314" on="1"/>
        <pt x="589" y="319" on="1"/>
        <pt x="672" y="268" on="0"/>
        <pt x="790" y="268" on="1"/>
        <pt x="922" y="268" on="0"/>
        <pt x="1073" y="413" on="0"/>
        <pt x="1084" y="550" on="1"/>
        <pt x="1085" y="564" on="1"/>
      </contour>
      <contour>
        <pt x="1135" y="1039" on="1"/>
        <pt x="1127" y="1028" on="1"/>
        <pt x="1060" y="923" on="0"/>
        <pt x="1014" y="824" on="1"/>
        <pt x="990" y="836" on="1"/>
        <pt x="998" y="851" on="1"/>
        <pt x="1038" y="930" on="0"/>
        <pt x="1106" y="1041" on="1"/>
        <pt x="1113" y="1052" on="1"/>
      </contour>
      <contour>
        <pt x="765" y="1378" on="1"/>
        <pt x="1060" y="1378" on="0"/>
        <pt x="1443" y="995" on="0"/>
        <pt x="1443" y="701" on="1"/>
        <pt x="1443" y="411" on="0"/>
        <pt x="1077" y="65" on="0"/>
        <pt x="771" y="65" on="1"/>
        <pt x="533" y="65" on="0"/>
        <pt x="345" y="187" on="1"/>
        <pt x="68" y="366" on="0"/>
        <pt x="68" y="720" on="1"/>
        <pt x="68" y="1022" on="0"/>
        <pt x="446" y="1378" on="0"/>
      </contour>
      <contour>
        <pt x="755" y="1306" on="1"/>
        <pt x="188" y="1306" on="0"/>
        <pt x="188" y="697" on="1"/>
        <pt x="188" y="424" on="0"/>
        <pt x="482" y="135" on="0"/>
        <pt x="760" y="135" on="1"/>
        <pt x="1034" y="135" on="0"/>
        <pt x="1317" y="433" on="0"/>
        <pt x="1317" y="721" on="1"/>
        <pt x="1317" y="882" on="0"/>
        <pt x="1245" y="1091" on="0"/>
        <pt x="1164" y="1168" on="1"/>
        <pt x="1017" y="1306" on="0"/>
      </contour>
      <contour>
        <pt x="1166" y="1327" on="1"/>
        <pt x="1337" y="1259" on="0"/>
        <pt x="1537" y="924" on="0"/>
        <pt x="1537" y="706" on="1"/>
        <pt x="1537" y="383" on="0"/>
        <pt x="1131" y="-13" on="0"/>
        <pt x="800" y="-13" on="1"/>
        <pt x="587" y="-13" on="0"/>
        <pt x="400" y="102" on="1"/>
        <pt x="400" y="107" on="1"/>
        <pt x="558" y="16" on="0"/>
        <pt x="794" y="16" on="1"/>
        <pt x="1111" y="16" on="0"/>
        <pt x="1510" y="397" on="0"/>
        <pt x="1510" y="701" on="1"/>
        <pt x="1510" y="910" on="0"/>
        <pt x="1327" y="1237" on="0"/>
        <pt x="1166" y="1316" on="1"/>
      </contour>
    </TTGlyph>
    <TTGlyph name="currency" xMin="71" yMin="134" xMax="1131" yMax="1145">
      <contour>
        <pt x="778" y="818" on="1"/>
        <pt x="666" y="882" on="0"/>
        <pt x="585" y="882" on="1"/>
        <pt x="390" y="882" on="0"/>
        <pt x="390" y="638" on="1"/>
        <pt x="390" y="466" on="0"/>
        <pt x="485" y="410" on="1"/>
        <pt x="476" y="400" on="1"/>
        <pt x="359" y="462" on="0"/>
        <pt x="359" y="633" on="1"/>
        <pt x="359" y="908" on="0"/>
        <pt x="583" y="908" on="1"/>
        <pt x="715" y="908" on="0"/>
      </contour>
      <contour>
        <pt x="332" y="348" on="1"/>
        <pt x="167" y="183" on="1"/>
        <pt x="79" y="272" on="1"/>
        <pt x="233" y="426" on="1"/>
        <pt x="147" y="527" on="0"/>
        <pt x="147" y="670" on="1"/>
        <pt x="147" y="813" on="0"/>
        <pt x="219" y="908" on="1"/>
        <pt x="71" y="1056" on="1"/>
        <pt x="160" y="1145" on="1"/>
        <pt x="314" y="991" on="1"/>
        <pt x="339" y="1005" on="0"/>
        <pt x="365" y="1016" on="1"/>
        <pt x="261" y="1119" on="1"/>
        <pt x="294" y="1127" on="1"/>
        <pt x="393" y="1027" on="1"/>
        <pt x="477" y="1055" on="0"/>
        <pt x="564" y="1055" on="1"/>
        <pt x="697" y="1055" on="0"/>
        <pt x="799" y="992" on="1"/>
        <pt x="945" y="1138" on="1"/>
        <pt x="1033" y="1049" on="1"/>
        <pt x="889" y="905" on="1"/>
        <pt x="961" y="793" on="0"/>
        <pt x="961" y="665" on="1"/>
        <pt x="961" y="522" on="0"/>
        <pt x="885" y="419" on="1"/>
        <pt x="1035" y="269" on="1"/>
        <pt x="946" y="181" on="1"/>
        <pt x="849" y="278" on="1"/>
        <pt x="744" y="210" on="0"/>
        <pt x="599" y="210" on="1"/>
        <pt x="484" y="210" on="0"/>
        <pt x="368" y="268" on="1"/>
        <pt x="234" y="134" on="1"/>
        <pt x="202" y="141" on="1"/>
        <pt x="353" y="292" on="1"/>
        <pt x="359" y="285" on="1"/>
        <pt x="484" y="239" on="0"/>
        <pt x="592" y="239" on="1"/>
        <pt x="716" y="239" on="0"/>
        <pt x="827" y="301" on="1"/>
        <pt x="788" y="339" on="1"/>
        <pt x="685" y="288" on="0"/>
        <pt x="569" y="288" on="1"/>
        <pt x="443" y="288" on="0"/>
      </contour>
      <contour>
        <pt x="565" y="969" on="1"/>
        <pt x="295" y="969" on="0"/>
        <pt x="295" y="659" on="1"/>
        <pt x="295" y="372" on="0"/>
        <pt x="559" y="372" on="1"/>
        <pt x="808" y="372" on="0"/>
        <pt x="808" y="680" on="1"/>
        <pt x="808" y="830" on="0"/>
        <pt x="691" y="969" on="0"/>
      </contour>
      <contour>
        <pt x="981" y="405" on="1"/>
        <pt x="1131" y="255" on="1"/>
        <pt x="1039" y="164" on="1"/>
        <pt x="1007" y="164" on="1"/>
        <pt x="1094" y="252" on="1"/>
        <pt x="945" y="402" on="1"/>
        <pt x="1037" y="519" on="0"/>
        <pt x="1037" y="673" on="1"/>
        <pt x="1037" y="791" on="0"/>
        <pt x="1010" y="833" on="1"/>
        <pt x="971" y="894" on="1"/>
        <pt x="970" y="896" on="0"/>
        <pt x="965" y="905" on="1"/>
        <pt x="1095" y="1034" on="1"/>
        <pt x="1007" y="1122" on="1"/>
        <pt x="1040" y="1122" on="1"/>
        <pt x="1131" y="1031" on="1"/>
        <pt x="1000" y="899" on="1"/>
        <pt x="1063" y="817" on="0"/>
        <pt x="1063" y="666" on="1"/>
        <pt x="1063" y="584" on="0"/>
        <pt x="1031" y="482" on="0"/>
      </contour>
    </TTGlyph>
    <TTGlyph name="dagger" xMin="68" yMin="-177" xMax="1135" yMax="1529">
      <contour>
        <pt x="324" y="1529" on="1"/>
        <pt x="800" y="1529" on="1"/>
        <pt x="665" y="1393" on="1"/>
        <pt x="665" y="1047" on="1"/>
        <pt x="726" y="1047" on="1"/>
        <pt x="726" y="1381" on="1"/>
        <pt x="839" y="1492" on="1"/>
        <pt x="856" y="1472" on="1"/>
        <pt x="754" y="1371" on="1"/>
        <pt x="754" y="1047" on="1"/>
        <pt x="902" y="1047" on="1"/>
        <pt x="1063" y="1215" on="1"/>
        <pt x="1063" y="797" on="1"/>
        <pt x="895" y="963" on="1"/>
        <pt x="665" y="963" on="1"/>
        <pt x="665" y="48" on="1"/>
        <pt x="793" y="-87" on="1"/>
        <pt x="303" y="-87" on="1"/>
        <pt x="465" y="48" on="1"/>
        <pt x="465" y="878" on="1"/>
        <pt x="269" y="878" on="1"/>
        <pt x="130" y="739" on="1"/>
        <pt x="107" y="760" on="1"/>
        <pt x="262" y="905" on="1"/>
        <pt x="465" y="905" on="1"/>
        <pt x="465" y="963" on="1"/>
        <pt x="236" y="963" on="1"/>
        <pt x="68" y="797" on="1"/>
        <pt x="68" y="1215" on="1"/>
        <pt x="229" y="1047" on="1"/>
        <pt x="465" y="1047" on="1"/>
        <pt x="465" y="1400" on="1"/>
      </contour>
      <contour>
        <pt x="1135" y="1180" on="1"/>
        <pt x="1135" y="748" on="1"/>
        <pt x="1109" y="763" on="1"/>
        <pt x="1109" y="1195" on="1"/>
      </contour>
      <contour>
        <pt x="956" y="878" on="1"/>
        <pt x="751" y="878" on="1"/>
        <pt x="751" y="40" on="1"/>
        <pt x="927" y="-177" on="1"/>
        <pt x="362" y="-177" on="1"/>
        <pt x="337" y="-150" on="1"/>
        <pt x="871" y="-150" on="1"/>
        <pt x="726" y="29" on="1"/>
        <pt x="726" y="905" on="1"/>
        <pt x="927" y="905" on="1"/>
      </contour>
    </TTGlyph>
    <TTGlyph name="daggerdbl" xMin="68" yMin="-177" xMax="1135" yMax="1529">
      <contour>
        <pt x="726" y="705" on="1"/>
        <pt x="726" y="1014" on="1"/>
        <pt x="927" y="1014" on="1"/>
        <pt x="956" y="987" on="1"/>
        <pt x="751" y="987" on="1"/>
        <pt x="751" y="705" on="1"/>
        <pt x="902" y="705" on="1"/>
        <pt x="1063" y="868" on="1"/>
        <pt x="1063" y="449" on="1"/>
        <pt x="895" y="621" on="1"/>
        <pt x="665" y="621" on="1"/>
        <pt x="665" y="48" on="1"/>
        <pt x="793" y="-87" on="1"/>
        <pt x="303" y="-87" on="1"/>
        <pt x="465" y="48" on="1"/>
        <pt x="465" y="536" on="1"/>
        <pt x="269" y="536" on="1"/>
        <pt x="130" y="391" on="1"/>
        <pt x="107" y="412" on="1"/>
        <pt x="262" y="563" on="1"/>
        <pt x="465" y="563" on="1"/>
        <pt x="465" y="621" on="1"/>
        <pt x="236" y="621" on="1"/>
        <pt x="68" y="449" on="1"/>
        <pt x="68" y="868" on="1"/>
        <pt x="229" y="705" on="1"/>
        <pt x="465" y="705" on="1"/>
        <pt x="465" y="987" on="1"/>
        <pt x="269" y="987" on="1"/>
        <pt x="130" y="848" on="1"/>
        <pt x="107" y="869" on="1"/>
        <pt x="262" y="1014" on="1"/>
        <pt x="465" y="1014" on="1"/>
        <pt x="465" y="1072" on="1"/>
        <pt x="236" y="1072" on="1"/>
        <pt x="68" y="906" on="1"/>
        <pt x="68" y="1324" on="1"/>
        <pt x="229" y="1156" on="1"/>
        <pt x="465" y="1156" on="1"/>
        <pt x="465" y="1400" on="1"/>
        <pt x="324" y="1529" on="1"/>
        <pt x="800" y="1529" on="1"/>
        <pt x="665" y="1393" on="1"/>
        <pt x="665" y="1156" on="1"/>
        <pt x="726" y="1156" on="1"/>
        <pt x="726" y="1381" on="1"/>
        <pt x="839" y="1492" on="1"/>
        <pt x="856" y="1472" on="1"/>
        <pt x="754" y="1371" on="1"/>
        <pt x="754" y="1156" on="1"/>
        <pt x="902" y="1156" on="1"/>
        <pt x="1063" y="1324" on="1"/>
        <pt x="1063" y="906" on="1"/>
        <pt x="895" y="1072" on="1"/>
        <pt x="665" y="1072" on="1"/>
        <pt x="665" y="705" on="1"/>
      </contour>
      <contour>
        <pt x="1135" y="1290" on="1"/>
        <pt x="1135" y="857" on="1"/>
        <pt x="1109" y="873" on="1"/>
        <pt x="1109" y="1304" on="1"/>
      </contour>
      <contour>
        <pt x="1135" y="819" on="1"/>
        <pt x="1135" y="400" on="1"/>
        <pt x="1109" y="416" on="1"/>
        <pt x="1109" y="834" on="1"/>
      </contour>
      <contour>
        <pt x="956" y="536" on="1"/>
        <pt x="751" y="536" on="1"/>
        <pt x="751" y="40" on="1"/>
        <pt x="927" y="-177" on="1"/>
        <pt x="362" y="-177" on="1"/>
        <pt x="337" y="-150" on="1"/>
        <pt x="871" y="-150" on="1"/>
        <pt x="726" y="29" on="1"/>
        <pt x="726" y="563" on="1"/>
        <pt x="927" y="563" on="1"/>
      </contour>
    </TTGlyph>
    <TTGlyph name="degree" xMin="53" yMin="900" xMax="549" yMax="1383">
      <contour>
        <pt x="433" y="1344" on="1"/>
        <pt x="486" y="1316" on="0"/>
        <pt x="549" y="1207" on="0"/>
        <pt x="549" y="1143" on="1"/>
        <pt x="549" y="1044" on="0"/>
        <pt x="409" y="900" on="0"/>
        <pt x="313" y="900" on="1"/>
        <pt x="208" y="900" on="0"/>
        <pt x="137" y="971" on="1"/>
        <pt x="145" y="977" on="1"/>
        <pt x="220" y="921" on="0"/>
        <pt x="297" y="921" on="1"/>
        <pt x="390" y="921" on="0"/>
        <pt x="523" y="1055" on="0"/>
        <pt x="523" y="1149" on="1"/>
        <pt x="523" y="1261" on="0"/>
        <pt x="421" y="1335" on="1"/>
      </contour>
      <contour>
        <pt x="258" y="1383" on="1"/>
        <pt x="343" y="1383" on="0"/>
        <pt x="463" y="1263" on="0"/>
        <pt x="463" y="1178" on="1"/>
        <pt x="463" y="1093" on="0"/>
        <pt x="343" y="973" on="0"/>
        <pt x="258" y="973" on="1"/>
        <pt x="173" y="973" on="0"/>
        <pt x="53" y="1093" on="0"/>
        <pt x="53" y="1178" on="1"/>
        <pt x="53" y="1263" on="0"/>
        <pt x="173" y="1383" on="0"/>
      </contour>
      <contour>
        <pt x="258" y="1298" on="1"/>
        <pt x="209" y="1298" on="0"/>
        <pt x="138" y="1227" on="0"/>
        <pt x="138" y="1177" on="1"/>
        <pt x="138" y="1128" on="0"/>
        <pt x="209" y="1057" on="0"/>
        <pt x="258" y="1057" on="1"/>
        <pt x="309" y="1057" on="0"/>
        <pt x="379" y="1127" on="0"/>
        <pt x="379" y="1177" on="1"/>
        <pt x="379" y="1228" on="0"/>
        <pt x="309" y="1298" on="0"/>
      </contour>
    </TTGlyph>
    <TTGlyph name="dieresis" xMin="200" yMin="1496" xMax="824" yMax="1765">
      <contour>
        <pt x="644" y="1765" on="1"/>
        <pt x="684" y="1765" on="0"/>
        <pt x="740" y="1709" on="0"/>
        <pt x="740" y="1669" on="1"/>
        <pt x="740" y="1629" on="0"/>
        <pt x="684" y="1573" on="0"/>
        <pt x="644" y="1573" on="1"/>
        <pt x="604" y="1573" on="0"/>
        <pt x="548" y="1629" on="0"/>
        <pt x="548" y="1669" on="1"/>
        <pt x="548" y="1709" on="0"/>
        <pt x="604" y="1765" on="0"/>
      </contour>
      <contour>
        <pt x="768" y="1722" on="1"/>
        <pt x="824" y="1697" on="0"/>
        <pt x="824" y="1623" on="1"/>
        <pt x="824" y="1569" on="0"/>
        <pt x="753" y="1496" on="0"/>
        <pt x="700" y="1496" on="1"/>
        <pt x="641" y="1496" on="0"/>
        <pt x="606" y="1543" on="1"/>
        <pt x="606" y="1550" on="1"/>
        <pt x="653" y="1516" on="0"/>
        <pt x="687" y="1516" on="1"/>
        <pt x="736" y="1516" on="0"/>
        <pt x="806" y="1585" on="0"/>
        <pt x="806" y="1634" on="1"/>
        <pt x="806" y="1673" on="0"/>
      </contour>
      <contour>
        <pt x="423" y="1722" on="1"/>
        <pt x="479" y="1696" on="0"/>
        <pt x="479" y="1623" on="1"/>
        <pt x="479" y="1569" on="0"/>
        <pt x="407" y="1496" on="0"/>
        <pt x="355" y="1496" on="1"/>
        <pt x="296" y="1496" on="0"/>
        <pt x="261" y="1543" on="1"/>
        <pt x="261" y="1550" on="1"/>
        <pt x="308" y="1516" on="0"/>
        <pt x="342" y="1516" on="1"/>
        <pt x="391" y="1516" on="0"/>
        <pt x="461" y="1585" on="0"/>
        <pt x="461" y="1634" on="1"/>
        <pt x="461" y="1673" on="0"/>
      </contour>
      <contour>
        <pt x="296" y="1765" on="1"/>
        <pt x="336" y="1765" on="0"/>
        <pt x="392" y="1709" on="0"/>
        <pt x="392" y="1669" on="1"/>
        <pt x="392" y="1629" on="0"/>
        <pt x="336" y="1573" on="0"/>
        <pt x="296" y="1573" on="1"/>
        <pt x="256" y="1573" on="0"/>
        <pt x="200" y="1629" on="0"/>
        <pt x="200" y="1669" on="1"/>
        <pt x="200" y="1709" on="0"/>
        <pt x="256" y="1765" on="0"/>
      </contour>
    </TTGlyph>
    <TTGlyph name="divide" xMin="153" yMin="251" xMax="1049" yMax="1138">
      <contour>
        <pt x="968" y="793" on="1"/>
        <pt x="968" y="668" on="1"/>
        <pt x="153" y="668" on="1"/>
        <pt x="153" y="793" on="1"/>
      </contour>
      <contour>
        <pt x="1026" y="738" on="1"/>
        <pt x="1049" y="716" on="1"/>
        <pt x="1049" y="586" on="1"/>
        <pt x="205" y="586" on="1"/>
        <pt x="187" y="614" on="1"/>
        <pt x="1026" y="614" on="1"/>
      </contour>
      <contour>
        <pt x="557" y="1138" on="1"/>
        <pt x="600" y="1138" on="0"/>
        <pt x="661" y="1077" on="0"/>
        <pt x="661" y="1034" on="1"/>
        <pt x="661" y="991" on="0"/>
        <pt x="600" y="930" on="0"/>
        <pt x="557" y="930" on="1"/>
        <pt x="514" y="930" on="0"/>
        <pt x="453" y="991" on="0"/>
        <pt x="453" y="1034" on="1"/>
        <pt x="453" y="1077" on="0"/>
        <pt x="514" y="1138" on="0"/>
      </contour>
      <contour>
        <pt x="687" y="1099" on="1"/>
        <pt x="738" y="1059" on="0"/>
        <pt x="738" y="997" on="1"/>
        <pt x="738" y="941" on="0"/>
        <pt x="653" y="857" on="0"/>
        <pt x="596" y="857" on="1"/>
        <pt x="532" y="857" on="0"/>
        <pt x="492" y="908" on="1"/>
        <pt x="497" y="914" on="1"/>
        <pt x="549" y="885" on="0"/>
        <pt x="591" y="885" on="1"/>
        <pt x="640" y="885" on="0"/>
        <pt x="712" y="954" on="0"/>
        <pt x="712" y="1002" on="1"/>
        <pt x="712" y="1047" on="0"/>
        <pt x="680" y="1093" on="1"/>
      </contour>
      <contour>
        <pt x="557" y="532" on="1"/>
        <pt x="600" y="532" on="0"/>
        <pt x="661" y="471" on="0"/>
        <pt x="661" y="428" on="1"/>
        <pt x="661" y="385" on="0"/>
        <pt x="600" y="324" on="0"/>
        <pt x="557" y="324" on="1"/>
        <pt x="514" y="324" on="0"/>
        <pt x="453" y="385" on="0"/>
        <pt x="453" y="428" on="1"/>
        <pt x="453" y="471" on="0"/>
        <pt x="514" y="532" on="0"/>
      </contour>
      <contour>
        <pt x="687" y="494" on="1"/>
        <pt x="738" y="453" on="0"/>
        <pt x="738" y="391" on="1"/>
        <pt x="738" y="335" on="0"/>
        <pt x="653" y="251" on="0"/>
        <pt x="596" y="251" on="1"/>
        <pt x="531" y="251" on="0"/>
        <pt x="492" y="303" on="1"/>
        <pt x="497" y="309" on="1"/>
        <pt x="550" y="279" on="0"/>
        <pt x="591" y="279" on="1"/>
        <pt x="640" y="279" on="0"/>
        <pt x="712" y="348" on="0"/>
        <pt x="712" y="396" on="1"/>
        <pt x="712" y="441" on="0"/>
        <pt x="680" y="487" on="1"/>
      </contour>
    </TTGlyph>
    <TTGlyph name="dollar" xMin="33" yMin="-180" xMax="1168" yMax="1545">
      <contour>
        <pt x="1031" y="1376" on="1"/>
        <pt x="918" y="1197" on="0"/>
        <pt x="869" y="1048" on="1"/>
        <pt x="867" y="1039" on="1"/>
        <pt x="861" y="1040" on="1"/>
        <pt x="822" y="1259" on="0"/>
        <pt x="625" y="1316" on="1"/>
        <pt x="625" y="876" on="1"/>
        <pt x="685" y="860" on="1"/>
        <pt x="685" y="1251" on="1"/>
        <pt x="738" y="1226" on="0"/>
        <pt x="782" y="1186" on="0"/>
        <pt x="812" y="1135" on="1"/>
        <pt x="803" y="1135" on="1"/>
        <pt x="796" y="1142" on="1"/>
        <pt x="742" y="1192" on="0"/>
        <pt x="711" y="1208" on="1"/>
        <pt x="711" y="852" on="1"/>
        <pt x="727" y="847" on="1"/>
        <pt x="894" y="799" on="0"/>
        <pt x="960" y="744" on="1"/>
        <pt x="1083" y="640" on="0"/>
        <pt x="1083" y="472" on="1"/>
        <pt x="1083" y="308" on="0"/>
        <pt x="836" y="80" on="0"/>
        <pt x="657" y="80" on="1"/>
        <pt x="648" y="80" on="0"/>
        <pt x="625" y="82" on="1"/>
        <pt x="625" y="-103" on="1"/>
        <pt x="544" y="-103" on="1"/>
        <pt x="544" y="5" on="1"/>
        <pt x="528" y="8" on="1"/>
        <pt x="449" y="24" on="0"/>
        <pt x="407" y="35" on="1"/>
        <pt x="314" y="58" on="1"/>
        <pt x="251" y="73" on="0"/>
        <pt x="186" y="73" on="1"/>
        <pt x="132" y="73" on="0"/>
        <pt x="80" y="51" on="1"/>
        <pt x="67" y="82" on="1"/>
        <pt x="122" y="103" on="0"/>
        <pt x="175" y="103" on="1"/>
        <pt x="244" y="103" on="0"/>
        <pt x="414" y="61" on="1"/>
        <pt x="475" y="47" on="0"/>
        <pt x="531" y="36" on="1"/>
        <pt x="544" y="33" on="1"/>
        <pt x="544" y="90" on="1"/>
        <pt x="469" y="99" on="0"/>
        <pt x="299" y="143" on="1"/>
        <pt x="224" y="163" on="0"/>
        <pt x="173" y="163" on="1"/>
        <pt x="111" y="163" on="0"/>
        <pt x="41" y="124" on="1"/>
        <pt x="33" y="140" on="1"/>
        <pt x="42" y="154" on="1"/>
        <pt x="157" y="344" on="0"/>
        <pt x="207" y="492" on="1"/>
        <pt x="223" y="492" on="1"/>
        <pt x="242" y="352" on="0"/>
        <pt x="410" y="182" on="0"/>
        <pt x="544" y="167" on="1"/>
        <pt x="544" y="593" on="1"/>
        <pt x="523" y="599" on="1"/>
        <pt x="325" y="650" on="0"/>
        <pt x="218" y="707" on="0"/>
        <pt x="194" y="773" on="1"/>
        <pt x="231" y="753" on="1"/>
        <pt x="261" y="697" on="0"/>
        <pt x="409" y="660" on="1"/>
        <pt x="529" y="630" on="1"/>
        <pt x="544" y="626" on="1"/>
        <pt x="544" y="680" on="1"/>
        <pt x="524" y="684" on="1"/>
        <pt x="318" y="727" on="0"/>
        <pt x="245" y="782" on="1"/>
        <pt x="191" y="824" on="0"/>
        <pt x="125" y="967" on="0"/>
        <pt x="125" y="1044" on="1"/>
        <pt x="125" y="1212" on="0"/>
        <pt x="351" y="1410" on="0"/>
        <pt x="544" y="1410" on="1"/>
        <pt x="544" y="1545" on="1"/>
        <pt x="625" y="1545" on="1"/>
        <pt x="625" y="1404" on="1"/>
        <pt x="659" y="1398" on="0"/>
        <pt x="685" y="1391" on="1"/>
        <pt x="685" y="1510" on="1"/>
        <pt x="711" y="1491" on="1"/>
        <pt x="711" y="1391" on="1"/>
        <pt x="734" y="1386" on="0"/>
        <pt x="836" y="1360" on="1"/>
        <pt x="887" y="1347" on="0"/>
        <pt x="924" y="1347" on="1"/>
        <pt x="977" y="1347" on="0"/>
        <pt x="1023" y="1383" on="1"/>
      </contour>
      <contour>
        <pt x="709" y="162" on="1"/>
        <pt x="808" y="183" on="0"/>
        <pt x="917" y="299" on="0"/>
        <pt x="917" y="384" on="1"/>
        <pt x="917" y="470" on="0"/>
        <pt x="855" y="541" on="1"/>
        <pt x="816" y="586" on="0"/>
        <pt x="732" y="630" on="0"/>
        <pt x="636" y="656" on="1"/>
        <pt x="623" y="660" on="1"/>
        <pt x="623" y="158" on="1"/>
        <pt x="630" y="158" on="0"/>
        <pt x="634" y="158" on="1"/>
        <pt x="637" y="158" on="0"/>
        <pt x="673" y="162" on="1"/>
        <pt x="677" y="162" on="0"/>
        <pt x="684" y="162" on="1"/>
        <pt x="684" y="587" on="1"/>
        <pt x="843" y="552" on="0"/>
        <pt x="880" y="452" on="1"/>
        <pt x="873" y="452" on="1"/>
        <pt x="812" y="526" on="0"/>
        <pt x="709" y="551" on="1"/>
      </contour>
      <contour>
        <pt x="543" y="895" on="1"/>
        <pt x="543" y="1248" on="1"/>
        <pt x="473" y="1242" on="0"/>
        <pt x="390" y="1159" on="0"/>
        <pt x="390" y="1095" on="1"/>
        <pt x="390" y="1006" on="0"/>
        <pt x="497" y="939" on="1"/>
        <pt x="497" y="932" on="1"/>
        <pt x="361" y="990" on="0"/>
        <pt x="361" y="1099" on="1"/>
        <pt x="361" y="1171" on="0"/>
        <pt x="468" y="1275" on="0"/>
        <pt x="543" y="1275" on="1"/>
        <pt x="543" y="1329" on="1"/>
        <pt x="443" y="1329" on="0"/>
        <pt x="299" y="1206" on="0"/>
        <pt x="299" y="1120" on="1"/>
        <pt x="299" y="959" on="0"/>
        <pt x="530" y="898" on="1"/>
      </contour>
      <contour>
        <pt x="1095" y="1335" on="1"/>
        <pt x="1086" y="1319" on="1"/>
        <pt x="1020" y="1205" on="0"/>
        <pt x="977" y="1113" on="1"/>
        <pt x="938" y="1028" on="1"/>
        <pt x="933" y="1016" on="1"/>
        <pt x="909" y="1025" on="1"/>
        <pt x="917" y="1042" on="0"/>
        <pt x="918" y="1044" on="1"/>
        <pt x="961" y="1138" on="1"/>
        <pt x="1017" y="1262" on="0"/>
        <pt x="1070" y="1346" on="1"/>
      </contour>
      <contour>
        <pt x="1031" y="738" on="1"/>
        <pt x="1168" y="638" on="0"/>
        <pt x="1168" y="456" on="1"/>
        <pt x="1168" y="293" on="0"/>
        <pt x="931" y="31" on="0"/>
        <pt x="762" y="8" on="1"/>
        <pt x="718" y="2" on="1"/>
        <pt x="709" y="0" on="1"/>
        <pt x="709" y="-180" on="1"/>
        <pt x="599" y="-180" on="1"/>
        <pt x="577" y="-153" on="1"/>
        <pt x="684" y="-153" on="1"/>
        <pt x="684" y="28" on="1"/>
        <pt x="766" y="28" on="0"/>
        <pt x="864" y="69" on="1"/>
        <pt x="989" y="121" on="0"/>
        <pt x="1139" y="334" on="0"/>
        <pt x="1139" y="460" on="1"/>
        <pt x="1139" y="620" on="0"/>
        <pt x="1031" y="732" on="1"/>
      </contour>
      <contour>
        <pt x="321" y="452" on="1"/>
        <pt x="339" y="355" on="0"/>
        <pt x="422" y="247" on="0"/>
        <pt x="518" y="193" on="1"/>
        <pt x="518" y="188" on="1"/>
        <pt x="429" y="209" on="0"/>
        <pt x="306" y="349" on="0"/>
        <pt x="293" y="445" on="1"/>
      </contour>
    </TTGlyph>
    <TTGlyph name="dotaccent" xMin="373" yMin="1496" xMax="652" yMax="1765">
      <contour>
        <pt x="596" y="1722" on="1"/>
        <pt x="652" y="1696" on="0"/>
        <pt x="652" y="1623" on="1"/>
        <pt x="652" y="1569" on="0"/>
        <pt x="580" y="1496" on="0"/>
        <pt x="528" y="1496" on="1"/>
        <pt x="469" y="1496" on="0"/>
        <pt x="434" y="1543" on="1"/>
        <pt x="434" y="1550" on="1"/>
        <pt x="481" y="1516" on="0"/>
        <pt x="515" y="1516" on="1"/>
        <pt x="564" y="1516" on="0"/>
        <pt x="634" y="1585" on="0"/>
        <pt x="634" y="1634" on="1"/>
        <pt x="634" y="1673" on="0"/>
      </contour>
      <contour>
        <pt x="469" y="1765" on="1"/>
        <pt x="509" y="1765" on="0"/>
        <pt x="565" y="1709" on="0"/>
        <pt x="565" y="1669" on="1"/>
        <pt x="565" y="1629" on="0"/>
        <pt x="509" y="1573" on="0"/>
        <pt x="469" y="1573" on="1"/>
        <pt x="429" y="1573" on="0"/>
        <pt x="373" y="1629" on="0"/>
        <pt x="373" y="1669" on="1"/>
        <pt x="373" y="1709" on="0"/>
        <pt x="429" y="1765" on="0"/>
      </contour>
    </TTGlyph>
    <TTGlyph name="eight" xMin="71" yMin="-43" xMax="1164" yMax="1681">
      <contour>
        <pt x="400" y="792" on="1"/>
        <pt x="155" y="898" on="0"/>
        <pt x="155" y="1065" on="1"/>
        <pt x="155" y="1171" on="0"/>
        <pt x="284" y="1317" on="0"/>
        <pt x="459" y="1409" on="1"/>
        <pt x="573" y="1469" on="0"/>
        <pt x="628" y="1510" on="1"/>
        <pt x="659" y="1533" on="1"/>
        <pt x="681" y="1548" on="0"/>
        <pt x="680" y="1560" on="1"/>
        <pt x="680" y="1568" on="0"/>
        <pt x="672" y="1571" on="1"/>
        <pt x="657" y="1578" on="1"/>
        <pt x="634" y="1588" on="0"/>
        <pt x="634" y="1623" on="1"/>
        <pt x="634" y="1681" on="0"/>
        <pt x="689" y="1681" on="1"/>
        <pt x="716" y="1681" on="0"/>
        <pt x="760" y="1625" on="0"/>
        <pt x="760" y="1590" on="1"/>
        <pt x="760" y="1503" on="0"/>
        <pt x="580" y="1399" on="1"/>
        <pt x="458" y="1328" on="1"/>
        <pt x="316" y="1246" on="0"/>
        <pt x="316" y="1136" on="1"/>
        <pt x="316" y="1076" on="0"/>
        <pt x="394" y="993" on="0"/>
        <pt x="496" y="944" on="1"/>
        <pt x="581" y="903" on="0"/>
        <pt x="652" y="884" on="1"/>
        <pt x="884" y="953" on="0"/>
        <pt x="884" y="1116" on="1"/>
        <pt x="884" y="1184" on="0"/>
        <pt x="779" y="1279" on="0"/>
        <pt x="703" y="1279" on="1"/>
        <pt x="604" y="1279" on="0"/>
        <pt x="568" y="1196" on="1"/>
        <pt x="556" y="1167" on="0"/>
        <pt x="540" y="1167" on="1"/>
        <pt x="509" y="1167" on="0"/>
        <pt x="509" y="1217" on="1"/>
        <pt x="509" y="1275" on="0"/>
        <pt x="612" y="1354" on="0"/>
        <pt x="689" y="1354" on="1"/>
        <pt x="806" y="1354" on="0"/>
        <pt x="969" y="1214" on="0"/>
        <pt x="969" y="1113" on="1"/>
        <pt x="969" y="1030" on="0"/>
        <pt x="865" y="902" on="0"/>
        <pt x="742" y="835" on="1"/>
        <pt x="754" y="830" on="0"/>
        <pt x="755" y="829" on="1"/>
        <pt x="802" y="809" on="1"/>
        <pt x="804" y="808" on="0"/>
        <pt x="813" y="804" on="1"/>
        <pt x="1025" y="908" on="0"/>
        <pt x="1025" y="1087" on="1"/>
        <pt x="1025" y="1136" on="0"/>
        <pt x="994" y="1203" on="0"/>
        <pt x="940" y="1275" on="1"/>
        <pt x="937" y="1278" on="0"/>
        <pt x="931" y="1286" on="1"/>
        <pt x="1049" y="1213" on="0"/>
        <pt x="1049" y="1075" on="1"/>
        <pt x="1049" y="992" on="0"/>
        <pt x="931" y="834" on="0"/>
        <pt x="837" y="792" on="1"/>
        <pt x="956" y="728" on="0"/>
        <pt x="1088" y="525" on="0"/>
        <pt x="1088" y="407" on="1"/>
        <pt x="1088" y="241" on="0"/>
        <pt x="821" y="33" on="0"/>
        <pt x="609" y="33" on="1"/>
        <pt x="373" y="33" on="0"/>
        <pt x="71" y="252" on="0"/>
        <pt x="71" y="423" on="1"/>
        <pt x="71" y="539" on="0"/>
        <pt x="218" y="711" on="0"/>
        <pt x="381" y="784" on="1"/>
      </contour>
      <contour>
        <pt x="596" y="704" on="1"/>
        <pt x="333" y="603" on="0"/>
        <pt x="333" y="416" on="1"/>
        <pt x="333" y="272" on="0"/>
        <pt x="468" y="159" on="1"/>
        <pt x="468" y="151" on="1"/>
        <pt x="394" y="193" on="0"/>
        <pt x="308" y="338" on="0"/>
        <pt x="308" y="420" on="1"/>
        <pt x="308" y="627" on="0"/>
        <pt x="567" y="715" on="1"/>
        <pt x="468" y="747" on="1"/>
        <pt x="240" y="634" on="0"/>
        <pt x="240" y="429" on="1"/>
        <pt x="240" y="280" on="0"/>
        <pt x="451" y="103" on="0"/>
        <pt x="629" y="103" on="1"/>
        <pt x="768" y="103" on="0"/>
        <pt x="929" y="241" on="0"/>
        <pt x="929" y="360" on="1"/>
        <pt x="929" y="471" on="0"/>
        <pt x="778" y="633" on="0"/>
        <pt x="615" y="697" on="1"/>
      </contour>
      <contour>
        <pt x="770" y="1667" on="1"/>
        <pt x="822" y="1619" on="0"/>
        <pt x="822" y="1566" on="1"/>
        <pt x="822" y="1466" on="0"/>
        <pt x="680" y="1377" on="1"/>
        <pt x="670" y="1371" on="1"/>
        <pt x="630" y="1371" on="1"/>
        <pt x="795" y="1469" on="0"/>
        <pt x="795" y="1564" on="1"/>
        <pt x="795" y="1606" on="0"/>
        <pt x="760" y="1658" on="1"/>
      </contour>
      <contour>
        <pt x="1004" y="701" on="1"/>
        <pt x="1074" y="665" on="0"/>
        <pt x="1164" y="496" on="0"/>
        <pt x="1164" y="399" on="1"/>
        <pt x="1164" y="201" on="0"/>
        <pt x="865" y="-43" on="0"/>
        <pt x="621" y="-43" on="1"/>
        <pt x="384" y="-43" on="0"/>
        <pt x="244" y="80" on="1"/>
        <pt x="244" y="85" on="1"/>
        <pt x="259" y="75" on="1"/>
        <pt x="337" y="25" on="0"/>
        <pt x="500" y="-17" on="0"/>
        <pt x="618" y="-17" on="1"/>
        <pt x="854" y="-17" on="0"/>
        <pt x="1138" y="213" on="0"/>
        <pt x="1138" y="406" on="1"/>
        <pt x="1138" y="534" on="0"/>
        <pt x="1060" y="630" on="1"/>
        <pt x="1013" y="688" on="1"/>
        <pt x="1012" y="689" on="0"/>
      </contour>
      <contour>
        <pt x="855" y="1142" on="1"/>
        <pt x="798" y="1203" on="0"/>
        <pt x="731" y="1203" on="1"/>
        <pt x="651" y="1203" on="0"/>
        <pt x="610" y="1142" on="1"/>
        <pt x="595" y="1142" on="1"/>
        <pt x="638" y="1229" on="0"/>
        <pt x="731" y="1229" on="1"/>
        <pt x="821" y="1229" on="0"/>
        <pt x="864" y="1142" on="1"/>
      </contour>
      <contour>
        <pt x="494" y="1254" on="1"/>
        <pt x="397" y="1187" on="0"/>
        <pt x="397" y="1114" on="1"/>
        <pt x="397" y="1047" on="0"/>
        <pt x="445" y="1007" on="1"/>
        <pt x="439" y="1000" on="1"/>
        <pt x="372" y="1056" on="0"/>
        <pt x="372" y="1127" on="1"/>
        <pt x="372" y="1204" on="0"/>
        <pt x="494" y="1286" on="1"/>
      </contour>
    </TTGlyph>
</ttFont>
